<svg width="40" height="40" viewBox="0 0 40 40" fill="none" xmlns="http://www.w3.org/2000/svg">
<g clip-path="url(#clip0_63_1021)">
<path d="M34 0H6C2.68629 0 0 2.68629 0 6V34C0 37.3137 2.68629 40 6 40H34C37.3137 40 40 37.3137 40 34V6C40 2.68629 37.3137 0 34 0Z" fill="#37AEE2"/>
<path d="M15.5469 31.5625C14.6875 31.5625 14.7656 31.25 14.5312 30.4688L12.0312 22.2656L31.1719 11.0156" fill="#C8DAEA"/>
<path d="M15.5469 31.5625C16.0938 31.5625 16.4062 31.25 16.7969 30.9375L20.3125 27.5781L15.9375 24.9219" fill="#A9C9DD"/>
<path d="M15.9375 24.922L26.4844 32.6564C27.5781 33.3595 28.5156 32.9689 28.8281 31.5626L33.125 11.4063C33.5156 9.6876 32.4219 8.90635 31.25 9.45322L6.17187 19.1407C4.53125 19.7657 4.53125 20.7813 5.85937 21.172L12.3438 23.2032L27.1875 13.7501C27.8906 13.3595 28.5156 13.5157 28.0469 14.0626" fill="#F6FBFE"/>
</g>
<defs>
<clipPath id="clip0_63_1021">
<rect width="40" height="40" fill="white"/>
</clipPath>
</defs>
</svg>
