<svg width="210" height="62" viewBox="0 0 210 62" fill="none" xmlns="http://www.w3.org/2000/svg">
<rect width="210" height="62" fill="#0D1117"/>
<path d="M51.9 38.14C51.95 37.68 52.105 37.225 52.365 36.775C52.635 36.315 52.93 35.955 53.25 35.695C54.12 36.265 55.085 36.745 56.145 37.135C57.205 37.525 58.255 37.72 59.295 37.72C60.505 37.72 61.44 37.455 62.1 36.925C62.77 36.395 63.105 35.72 63.105 34.9C63.105 34.2 62.87 33.58 62.4 33.04C61.93 32.49 61.255 32.03 60.375 31.66L56.745 30.145C55.485 29.605 54.48 28.92 53.73 28.09C52.99 27.26 52.62 26.205 52.62 24.925C52.62 23.835 52.905 22.855 53.475 21.985C54.055 21.105 54.855 20.41 55.875 19.9C56.895 19.38 58.075 19.12 59.415 19.12C60.665 19.12 61.84 19.28 62.94 19.6C64.04 19.92 64.98 20.275 65.76 20.665C65.74 21.125 65.625 21.585 65.415 22.045C65.205 22.495 64.935 22.87 64.605 23.17C63.825 22.77 62.965 22.435 62.025 22.165C61.095 21.895 60.24 21.76 59.46 21.76C58.35 21.76 57.475 22.03 56.835 22.57C56.205 23.11 55.89 23.775 55.89 24.565C55.89 25.225 56.12 25.765 56.58 26.185C57.04 26.605 57.64 26.97 58.38 27.28L61.965 28.765C62.815 29.125 63.58 29.57 64.26 30.1C64.94 30.63 65.475 31.25 65.865 31.96C66.255 32.67 66.45 33.475 66.45 34.375C66.45 35.515 66.18 36.545 65.64 37.465C65.1 38.375 64.285 39.09 63.195 39.61C62.115 40.13 60.75 40.39 59.1 40.39C57.86 40.39 56.6 40.19 55.32 39.79C54.05 39.39 52.91 38.84 51.9 38.14ZM70.9399 33.58V31.33H78.2149V30.94C78.2149 30.24 78.1149 29.6 77.9149 29.02C77.7249 28.43 77.4099 27.96 76.9699 27.61C76.5399 27.26 75.9649 27.085 75.2449 27.085C74.2249 27.085 73.4599 27.515 72.9499 28.375C72.4399 29.235 72.1849 30.42 72.1849 31.93V32.875C72.1849 33.815 72.2799 34.665 72.4699 35.425C72.6699 36.175 73.0199 36.77 73.5199 37.21C74.0199 37.64 74.7299 37.855 75.6499 37.855C76.3999 37.855 77.1249 37.75 77.8249 37.54C78.5249 37.32 79.1899 37.045 79.8199 36.715C80.0799 36.965 80.2949 37.28 80.4649 37.66C80.6449 38.03 80.7549 38.375 80.7949 38.695C80.0849 39.215 79.2299 39.63 78.2299 39.94C77.2399 40.24 76.2199 40.39 75.1699 40.39C73.9799 40.39 72.9849 40.18 72.1849 39.76C71.3949 39.34 70.7649 38.765 70.2949 38.035C69.8349 37.295 69.4999 36.46 69.2899 35.53C69.0899 34.6 68.9899 33.63 68.9899 32.62C68.9899 31.13 69.2199 29.795 69.6799 28.615C70.1499 27.435 70.8499 26.505 71.7799 25.825C72.7099 25.145 73.8649 24.805 75.2449 24.805C76.5449 24.805 77.6349 25.09 78.5149 25.66C79.4049 26.23 80.0749 27 80.5249 27.97C80.9749 28.93 81.1999 30.005 81.1999 31.195C81.1999 31.675 81.1799 32.09 81.1399 32.44C81.1099 32.78 81.0549 33.16 80.9749 33.58H70.9399ZM82.9934 25.39C83.3434 25.23 83.6634 25.12 83.9534 25.06C84.2534 25 84.5384 24.97 84.8084 24.97C85.2184 24.97 85.5384 25.065 85.7684 25.255C85.9984 25.445 86.1584 25.77 86.2484 26.23L87.6134 32.455C87.8134 33.385 87.9984 34.305 88.1684 35.215C88.3484 36.125 88.4884 36.865 88.5884 37.435C88.6184 37.605 88.6984 37.69 88.8284 37.69L91.3484 25.27C91.5984 25.21 91.9184 25.17 92.3084 25.15C92.6984 25.12 92.9934 25.105 93.1934 25.105C93.4234 25.105 93.7334 25.12 94.1234 25.15C94.5234 25.17 94.8334 25.21 95.0534 25.27L97.4834 37.435C97.5234 37.605 97.6034 37.69 97.7234 37.69C97.9034 36.82 98.0784 35.955 98.2484 35.095C98.4284 34.225 98.6184 33.345 98.8184 32.455L100.453 25.18C100.623 25.14 100.828 25.11 101.068 25.09C101.308 25.07 101.543 25.06 101.773 25.06C102.013 25.06 102.278 25.08 102.568 25.12C102.868 25.15 103.118 25.21 103.318 25.3L103.423 25.45L99.7784 40.015C99.4684 40.065 99.0934 40.095 98.6534 40.105C98.2134 40.125 97.8084 40.135 97.4384 40.135C96.8384 40.135 96.3634 40.04 96.0134 39.85C95.6634 39.66 95.4184 39.2 95.2784 38.47L94.4084 34.3C94.3184 33.77 94.2084 33.16 94.0784 32.47C93.9484 31.77 93.8134 31.04 93.6734 30.28C93.5434 29.52 93.4084 28.785 93.2684 28.075H93.1184C92.9984 28.785 92.8634 29.52 92.7134 30.28C92.5634 31.03 92.4184 31.755 92.2784 32.455C92.1384 33.145 92.0134 33.755 91.9034 34.285L90.6734 40C90.3334 40.05 89.9284 40.085 89.4584 40.105C88.9984 40.125 88.5784 40.135 88.1984 40.135C87.6684 40.135 87.2284 40.035 86.8784 39.835C86.5284 39.635 86.2734 39.17 86.1134 38.44L82.9934 25.39ZM110.258 40C110.048 40.04 109.808 40.07 109.538 40.09C109.268 40.11 108.993 40.12 108.713 40.12C108.433 40.12 108.158 40.11 107.888 40.09C107.618 40.07 107.373 40.04 107.153 40V29.005C107.153 28.475 107.058 28.085 106.868 27.835C106.688 27.575 106.348 27.445 105.848 27.445H105.518C105.428 27.085 105.383 26.72 105.383 26.35C105.383 26.17 105.393 25.99 105.413 25.81C105.433 25.62 105.468 25.425 105.518 25.225C105.898 25.175 106.253 25.14 106.583 25.12C106.923 25.1 107.203 25.09 107.423 25.09H107.828C108.578 25.09 109.168 25.33 109.598 25.81C110.038 26.28 110.258 26.925 110.258 27.745V40ZM106.238 21.19C106.238 20.97 106.258 20.735 106.298 20.485C106.348 20.235 106.418 20.02 106.508 19.84C106.688 19.74 106.933 19.655 107.243 19.585C107.563 19.515 107.868 19.48 108.158 19.48C108.438 19.48 108.743 19.515 109.073 19.585C109.403 19.655 109.648 19.74 109.808 19.84C109.898 20.02 109.963 20.24 110.003 20.5C110.053 20.75 110.078 20.98 110.078 21.19C110.078 21.4 110.053 21.63 110.003 21.88C109.963 22.13 109.898 22.345 109.808 22.525C109.668 22.625 109.428 22.715 109.088 22.795C108.748 22.865 108.438 22.9 108.158 22.9C107.868 22.9 107.563 22.865 107.243 22.795C106.923 22.725 106.678 22.635 106.508 22.525C106.418 22.345 106.348 22.13 106.298 21.88C106.258 21.63 106.238 21.4 106.238 21.19ZM116.243 25.06C116.893 25.06 117.343 25.255 117.593 25.645C117.853 26.035 117.983 26.575 117.983 27.265V40C117.783 40.04 117.548 40.07 117.278 40.09C117.008 40.11 116.733 40.12 116.453 40.12C116.173 40.12 115.898 40.11 115.628 40.09C115.358 40.07 115.113 40.04 114.893 40V25.255L115.088 25.06H116.243ZM126.713 36.835C126.713 37.355 126.748 37.85 126.818 38.32C126.898 38.78 127.033 39.185 127.223 39.535C126.993 39.725 126.703 39.88 126.353 40C126.003 40.13 125.643 40.195 125.273 40.195C124.663 40.195 124.233 40.03 123.983 39.7C123.743 39.37 123.623 38.88 123.623 38.23V30.595C123.623 29.585 123.493 28.855 123.233 28.405C122.973 27.945 122.478 27.715 121.748 27.715C121.248 27.715 120.703 27.835 120.113 28.075C119.533 28.315 118.983 28.66 118.463 29.11C117.943 29.55 117.523 30.065 117.203 30.655V27.685C117.873 26.915 118.693 26.265 119.663 25.735C120.633 25.195 121.658 24.925 122.738 24.925C123.678 24.925 124.438 25.145 125.018 25.585C125.598 26.015 126.023 26.6 126.293 27.34C126.573 28.08 126.713 28.915 126.713 29.845V36.835ZM143.315 26.575C142.985 26.855 142.76 27.255 142.64 27.775C142.53 28.285 142.475 28.83 142.475 29.41V38.29C142.475 39.44 142.42 40.41 142.31 41.2C142.2 42 142.04 42.67 141.83 43.21C141.62 43.76 141.355 44.23 141.035 44.62C140.565 45.22 139.905 45.7 139.055 46.06C138.205 46.43 137.215 46.615 136.085 46.615C135.165 46.615 134.24 46.515 133.31 46.315C132.38 46.115 131.57 45.875 130.88 45.595C130.89 45.215 130.97 44.8 131.12 44.35C131.27 43.9 131.465 43.54 131.705 43.27C132.335 43.57 133.025 43.8 133.775 43.96C134.525 44.13 135.195 44.215 135.785 44.215C136.805 44.215 137.575 44.025 138.095 43.645C138.625 43.275 138.985 42.77 139.175 42.13C139.365 41.5 139.46 40.8 139.46 40.03V28.93C139.46 27.97 139.66 27.12 140.06 26.38C140.47 25.63 141.165 25.16 142.145 24.97C142.395 25.12 142.635 25.355 142.865 25.675C143.095 25.995 143.245 26.295 143.315 26.575ZM130.25 32.62C130.25 30.84 130.53 29.375 131.09 28.225C131.66 27.075 132.385 26.22 133.265 25.66C134.145 25.09 135.055 24.805 135.995 24.805C136.865 24.805 137.62 24.935 138.26 25.195C138.9 25.455 139.45 25.785 139.91 26.185C140.38 26.585 140.78 26.995 141.11 27.415L140.69 30.07C140.16 29.25 139.51 28.58 138.74 28.06C137.98 27.54 137.225 27.28 136.475 27.28C135.595 27.28 134.865 27.72 134.285 28.6C133.705 29.47 133.415 30.82 133.415 32.65C133.415 34.43 133.675 35.715 134.195 36.505C134.725 37.285 135.36 37.675 136.1 37.675C136.9 37.675 137.665 37.415 138.395 36.895C139.135 36.365 139.71 35.695 140.12 34.885L140.585 37.27C140.315 37.73 139.93 38.19 139.43 38.65C138.93 39.1 138.34 39.48 137.66 39.79C136.99 40.1 136.26 40.255 135.47 40.255C134.32 40.255 133.355 39.935 132.575 39.295C131.805 38.655 131.225 37.765 130.835 36.625C130.445 35.475 130.25 34.14 130.25 32.62ZM145.679 19.675C145.969 19.545 146.264 19.45 146.564 19.39C146.864 19.33 147.159 19.3 147.449 19.3C147.979 19.3 148.369 19.425 148.619 19.675C148.869 19.925 149.049 20.375 149.159 21.025L151.049 31.195C151.139 31.715 151.244 32.34 151.364 33.07C151.484 33.79 151.604 34.51 151.724 35.23C151.844 35.94 151.939 36.535 152.009 37.015C152.029 37.185 152.054 37.285 152.084 37.315C152.124 37.345 152.184 37.36 152.264 37.36L155.534 19.945C155.844 19.885 156.194 19.845 156.584 19.825C156.974 19.805 157.314 19.795 157.604 19.795C157.924 19.795 158.279 19.805 158.669 19.825C159.069 19.845 159.399 19.885 159.659 19.945L162.659 37.015C162.689 37.175 162.724 37.275 162.764 37.315C162.804 37.345 162.864 37.36 162.944 37.36C163.034 36.74 163.139 36.05 163.259 35.29C163.389 34.53 163.519 33.785 163.649 33.055C163.789 32.325 163.909 31.695 164.009 31.165L166.319 19.51C166.539 19.46 166.774 19.43 167.024 19.42C167.284 19.4 167.529 19.39 167.759 19.39C168.009 19.39 168.269 19.405 168.539 19.435C168.809 19.465 169.059 19.51 169.289 19.57L169.454 19.795L165.149 39.97C164.769 40.03 164.299 40.07 163.739 40.09C163.189 40.12 162.709 40.135 162.299 40.135C161.819 40.135 161.399 40.05 161.039 39.88C160.679 39.7 160.444 39.27 160.334 38.59L158.879 30.55C158.719 29.56 158.524 28.4 158.294 27.07C158.074 25.73 157.864 24.42 157.664 23.14H157.469C157.259 24.42 157.034 25.725 156.794 27.055C156.564 28.385 156.349 29.55 156.149 30.55L154.304 39.985C153.924 40.035 153.474 40.07 152.954 40.09C152.444 40.12 151.984 40.135 151.574 40.135C151.074 40.135 150.629 40.045 150.239 39.865C149.849 39.685 149.584 39.25 149.444 38.56L145.679 19.675ZM172.395 33.58V31.33H179.67V30.94C179.67 30.24 179.57 29.6 179.37 29.02C179.18 28.43 178.865 27.96 178.425 27.61C177.995 27.26 177.42 27.085 176.7 27.085C175.68 27.085 174.915 27.515 174.405 28.375C173.895 29.235 173.64 30.42 173.64 31.93V32.875C173.64 33.815 173.735 34.665 173.925 35.425C174.125 36.175 174.475 36.77 174.975 37.21C175.475 37.64 176.185 37.855 177.105 37.855C177.855 37.855 178.58 37.75 179.28 37.54C179.98 37.32 180.645 37.045 181.275 36.715C181.535 36.965 181.75 37.28 181.92 37.66C182.1 38.03 182.21 38.375 182.25 38.695C181.54 39.215 180.685 39.63 179.685 39.94C178.695 40.24 177.675 40.39 176.625 40.39C175.435 40.39 174.44 40.18 173.64 39.76C172.85 39.34 172.22 38.765 171.75 38.035C171.29 37.295 170.955 36.46 170.745 35.53C170.545 34.6 170.445 33.63 170.445 32.62C170.445 31.13 170.675 29.795 171.135 28.615C171.605 27.435 172.305 26.505 173.235 25.825C174.165 25.145 175.32 24.805 176.7 24.805C178 24.805 179.09 25.09 179.97 25.66C180.86 26.23 181.53 27 181.98 27.97C182.43 28.93 182.655 30.005 182.655 31.195C182.655 31.675 182.635 32.09 182.595 32.44C182.565 32.78 182.51 33.16 182.43 33.58H172.395ZM189.539 39.25H186.494V18.13L186.689 17.935H187.844C188.494 17.935 188.939 18.095 189.179 18.415C189.419 18.725 189.539 19.225 189.539 19.915V39.25ZM198.689 32.395C198.689 34.145 198.384 35.6 197.774 36.76C197.164 37.92 196.349 38.79 195.329 39.37C194.309 39.94 193.184 40.225 191.954 40.225C190.994 40.225 190.054 40.14 189.134 39.97C188.214 39.8 187.334 39.56 186.494 39.25L188.024 36.865C188.644 37.225 189.264 37.495 189.884 37.675C190.514 37.845 191.214 37.93 191.984 37.93C192.664 37.93 193.269 37.73 193.799 37.33C194.339 36.92 194.759 36.305 195.059 35.485C195.369 34.665 195.524 33.65 195.524 32.44C195.524 30.7 195.259 29.445 194.729 28.675C194.209 27.905 193.564 27.52 192.794 27.52C192.054 27.51 191.329 27.745 190.619 28.225C189.909 28.705 189.344 29.325 188.924 30.085L188.474 27.55C188.784 27.16 189.179 26.765 189.659 26.365C190.139 25.965 190.699 25.63 191.339 25.36C191.989 25.08 192.709 24.94 193.499 24.94C194.649 24.94 195.604 25.26 196.364 25.9C197.134 26.53 197.714 27.41 198.104 28.54C198.494 29.66 198.689 30.945 198.689 32.395Z" fill="#FEFEFE"/>
<path d="M26 14.4194C17.3927 14.4194 10.4191 21.3931 10.4191 30.0004C10.4191 38.6051 17.3927 45.5788 26 45.5788C34.6048 45.5788 41.5784 38.6051 41.5784 30.0004C41.5784 21.3931 34.6048 14.4194 26 14.4194ZM20.7629 39.4006C18.4617 39.4006 16.5947 37.5361 16.5947 35.2325C16.5947 32.9314 18.4617 31.0644 20.7629 31.0644C23.0665 31.0644 24.931 32.9314 24.931 35.2325C24.931 37.5361 23.0665 39.4006 20.7629 39.4006ZM20.7629 28.9364C18.4617 28.9364 16.5947 27.0719 16.5947 24.7682C16.5947 22.4646 18.4617 20.6001 20.7629 20.6001C23.0665 20.6001 24.931 22.4646 24.931 24.7682C24.931 27.0719 23.0665 28.9364 20.7629 28.9364ZM31.2371 39.4006C28.936 39.4006 27.069 37.5361 27.069 35.2325C27.069 32.9314 28.936 31.0644 31.2371 31.0644C33.5383 31.0644 35.4053 32.9314 35.4053 35.2325C35.4053 37.5361 33.5383 39.4006 31.2371 39.4006ZM31.2371 28.9364C28.936 28.9364 27.069 27.0719 27.069 24.7682C27.069 22.4646 28.936 20.6001 31.2371 20.6001C33.5383 20.6001 35.4053 22.4646 35.4053 24.7682C35.4053 27.0719 33.5383 28.9364 31.2371 28.9364Z" fill="#4C5CEF"/>
<path d="M26 10C14.9737 10 6 18.9737 6 30C6 41.0263 14.9737 50 26 50C37.0263 50 46 41.0263 46 30C46 18.9737 37.0263 10 26 10ZM26 47.7315C16.2208 47.7315 8.266 39.7767 8.266 30C8.266 20.2208 16.2208 12.266 26 12.266C35.7767 12.266 43.7315 20.2208 43.7315 30C43.7315 39.7767 35.7767 47.7315 26 47.7315Z" fill="#4C5CEF"/>
</svg>
