<svg width="174" height="38" viewBox="0 0 174 38" fill="none" xmlns="http://www.w3.org/2000/svg">
<g clip-path="url(#clip0_426_29)">
<rect width="174" height="38" fill="#0D1117"/>
<path d="M42.78 25.388C42.8233 24.9893 42.9577 24.595 43.183 24.205C43.417 23.8063 43.6727 23.4943 43.95 23.269C44.704 23.763 45.5403 24.179 46.459 24.517C47.3777 24.855 48.2877 25.024 49.189 25.024C50.2377 25.024 51.048 24.7943 51.62 24.335C52.2007 23.8757 52.491 23.2907 52.491 22.58C52.491 21.9733 52.2873 21.436 51.88 20.968C51.4727 20.4913 50.8877 20.0927 50.125 19.772L46.979 18.459C45.887 17.991 45.016 17.3973 44.366 16.678C43.7247 15.9587 43.404 15.0443 43.404 13.935C43.404 12.9903 43.651 12.141 44.145 11.387C44.6477 10.6243 45.341 10.022 46.225 9.58C47.109 9.12933 48.1317 8.904 49.293 8.904C50.3763 8.904 51.3947 9.04267 52.348 9.32C53.3013 9.59733 54.116 9.905 54.792 10.243C54.7747 10.6417 54.675 11.0403 54.493 11.439C54.311 11.829 54.077 12.154 53.791 12.414C53.115 12.0673 52.3697 11.777 51.555 11.543C50.749 11.309 50.008 11.192 49.332 11.192C48.37 11.192 47.6117 11.426 47.057 11.894C46.511 12.362 46.238 12.9383 46.238 13.623C46.238 14.195 46.4373 14.663 46.836 15.027C47.2347 15.391 47.7547 15.7073 48.396 15.976L51.503 17.263C52.2397 17.575 52.9027 17.9607 53.492 18.42C54.0813 18.8793 54.545 19.4167 54.883 20.032C55.221 20.6473 55.39 21.345 55.39 22.125C55.39 23.113 55.156 24.0057 54.688 24.803C54.22 25.5917 53.5137 26.2113 52.569 26.662C51.633 27.1127 50.45 27.338 49.02 27.338C47.9453 27.338 46.8533 27.1647 45.744 26.818C44.6433 26.4713 43.6553 25.9947 42.78 25.388ZM59.2813 21.436V19.486H65.5863V19.148C65.5863 18.5413 65.4996 17.9867 65.3263 17.484C65.1616 16.9727 64.8886 16.5653 64.5073 16.262C64.1346 15.9587 63.6363 15.807 63.0123 15.807C62.1283 15.807 61.4653 16.1797 61.0233 16.925C60.5813 17.6703 60.3603 18.6973 60.3603 20.006V20.825C60.3603 21.6397 60.4426 22.3763 60.6073 23.035C60.7806 23.685 61.0839 24.2007 61.5173 24.582C61.9506 24.9547 62.5659 25.141 63.3633 25.141C64.0133 25.141 64.6416 25.05 65.2483 24.868C65.8549 24.6773 66.4313 24.439 66.9773 24.153C67.2026 24.3697 67.3889 24.6427 67.5363 24.972C67.6923 25.2927 67.7876 25.5917 67.8223 25.869C67.2069 26.3197 66.4659 26.6793 65.5993 26.948C64.7413 27.208 63.8573 27.338 62.9473 27.338C61.9159 27.338 61.0536 27.156 60.3603 26.792C59.6756 26.428 59.1296 25.9297 58.7223 25.297C58.3236 24.6557 58.0333 23.932 57.8513 23.126C57.6779 22.32 57.5913 21.4793 57.5913 20.604C57.5913 19.3127 57.7906 18.1557 58.1893 17.133C58.5966 16.1103 59.2033 15.3043 60.0093 14.715C60.8153 14.1257 61.8163 13.831 63.0123 13.831C64.1389 13.831 65.0836 14.078 65.8463 14.572C66.6176 15.066 67.1983 15.7333 67.5883 16.574C67.9783 17.406 68.1733 18.3377 68.1733 19.369C68.1733 19.785 68.1559 20.1447 68.1213 20.448C68.0953 20.7427 68.0476 21.072 67.9783 21.436H59.2813ZM69.7276 14.338C70.0309 14.1993 70.3082 14.104 70.5596 14.052C70.8196 14 71.0666 13.974 71.3006 13.974C71.6559 13.974 71.9332 14.0563 72.1326 14.221C72.3319 14.3857 72.4706 14.6673 72.5486 15.066L73.7316 20.461C73.9049 21.267 74.0652 22.0643 74.2126 22.853C74.3686 23.6417 74.4899 24.283 74.5766 24.777C74.6026 24.9243 74.6719 24.998 74.7846 24.998L76.9686 14.234C77.1852 14.182 77.4626 14.1473 77.8006 14.13C78.1386 14.104 78.3942 14.091 78.5676 14.091C78.7669 14.091 79.0356 14.104 79.3736 14.13C79.7202 14.1473 79.9889 14.182 80.1796 14.234L82.2856 24.777C82.3202 24.9243 82.3896 24.998 82.4936 24.998C82.6496 24.244 82.8012 23.4943 82.9486 22.749C83.1046 21.995 83.2692 21.2323 83.4426 20.461L84.8596 14.156C85.0069 14.1213 85.1846 14.0953 85.3926 14.078C85.6006 14.0607 85.8042 14.052 86.0036 14.052C86.2116 14.052 86.4412 14.0693 86.6926 14.104C86.9526 14.13 87.1692 14.182 87.3426 14.26L87.4336 14.39L84.2746 27.013C84.0059 27.0563 83.6809 27.0823 83.2996 27.091C82.9182 27.1083 82.5672 27.117 82.2466 27.117C81.7266 27.117 81.3149 27.0347 81.0116 26.87C80.7082 26.7053 80.4959 26.3067 80.3746 25.674L79.6206 22.06C79.5426 21.6007 79.4472 21.072 79.3346 20.474C79.2219 19.8673 79.1049 19.2347 78.9836 18.576C78.8709 17.9173 78.7539 17.2803 78.6326 16.665H78.5026C78.3986 17.2803 78.2816 17.9173 78.1516 18.576C78.0216 19.226 77.8959 19.8543 77.7746 20.461C77.6532 21.059 77.5449 21.5877 77.4496 22.047L76.3836 27C76.0889 27.0433 75.7379 27.0737 75.3306 27.091C74.9319 27.1083 74.5679 27.117 74.2386 27.117C73.7792 27.117 73.3979 27.0303 73.0946 26.857C72.7912 26.6837 72.5702 26.2807 72.4316 25.648L69.7276 14.338ZM93.3571 27C93.1751 27.0347 92.9671 27.0607 92.7331 27.078C92.4991 27.0953 92.2608 27.104 92.0181 27.104C91.7754 27.104 91.5371 27.0953 91.3031 27.078C91.0691 27.0607 90.8568 27.0347 90.6661 27V17.471C90.6661 17.0117 90.5838 16.6737 90.4191 16.457C90.2631 16.2317 89.9684 16.119 89.5351 16.119H89.2491C89.1711 15.807 89.1321 15.4907 89.1321 15.17C89.1321 15.014 89.1408 14.858 89.1581 14.702C89.1754 14.5373 89.2058 14.3683 89.2491 14.195C89.5784 14.1517 89.8861 14.1213 90.1721 14.104C90.4668 14.0867 90.7094 14.078 90.9001 14.078H91.2511C91.9011 14.078 92.4124 14.286 92.7851 14.702C93.1664 15.1093 93.3571 15.6683 93.3571 16.379V27ZM89.8731 10.698C89.8731 10.5073 89.8904 10.3037 89.9251 10.087C89.9684 9.87033 90.0291 9.684 90.1071 9.528C90.2631 9.44133 90.4754 9.36767 90.7441 9.307C91.0214 9.24633 91.2858 9.216 91.5371 9.216C91.7798 9.216 92.0441 9.24633 92.3301 9.307C92.6161 9.36767 92.8284 9.44133 92.9671 9.528C93.0451 9.684 93.1014 9.87467 93.1361 10.1C93.1794 10.3167 93.2011 10.516 93.2011 10.698C93.2011 10.88 93.1794 11.0793 93.1361 11.296C93.1014 11.5127 93.0451 11.699 92.9671 11.855C92.8458 11.9417 92.6378 12.0197 92.3431 12.089C92.0484 12.1497 91.7798 12.18 91.5371 12.18C91.2858 12.18 91.0214 12.1497 90.7441 12.089C90.4668 12.0283 90.2544 11.9503 90.1071 11.855C90.0291 11.699 89.9684 11.5127 89.9251 11.296C89.8904 11.0793 89.8731 10.88 89.8731 10.698ZM98.5437 14.052C99.107 14.052 99.497 14.221 99.7137 14.559C99.939 14.897 100.052 15.365 100.052 15.963V27C99.8784 27.0347 99.6747 27.0607 99.4407 27.078C99.2067 27.0953 98.9684 27.104 98.7257 27.104C98.483 27.104 98.2447 27.0953 98.0107 27.078C97.7767 27.0607 97.5644 27.0347 97.3737 27V14.221L97.5427 14.052H98.5437ZM107.618 24.257C107.618 24.7077 107.648 25.1367 107.709 25.544C107.778 25.9427 107.895 26.2937 108.06 26.597C107.86 26.7617 107.609 26.896 107.306 27C107.002 27.1127 106.69 27.169 106.37 27.169C105.841 27.169 105.468 27.026 105.252 26.74C105.044 26.454 104.94 26.0293 104.94 25.466V18.849C104.94 17.9737 104.827 17.341 104.602 16.951C104.376 16.5523 103.947 16.353 103.315 16.353C102.881 16.353 102.409 16.457 101.898 16.665C101.395 16.873 100.918 17.172 100.468 17.562C100.017 17.9433 99.653 18.3897 99.3757 18.901V16.327C99.9564 15.6597 100.667 15.0963 101.508 14.637C102.348 14.169 103.237 13.935 104.173 13.935C104.987 13.935 105.646 14.1257 106.149 14.507C106.651 14.8797 107.02 15.3867 107.254 16.028C107.496 16.6693 107.618 17.393 107.618 18.199V24.257ZM122.006 15.365C121.72 15.6077 121.525 15.9543 121.421 16.405C121.326 16.847 121.278 17.3193 121.278 17.822V25.518C121.278 26.5147 121.23 27.3553 121.135 28.04C121.04 28.7333 120.901 29.314 120.719 29.782C120.537 30.2587 120.307 30.666 120.03 31.004C119.623 31.524 119.051 31.94 118.314 32.252C117.577 32.5727 116.719 32.733 115.74 32.733C114.943 32.733 114.141 32.6463 113.335 32.473C112.529 32.2997 111.827 32.0917 111.229 31.849C111.238 31.5197 111.307 31.16 111.437 30.77C111.567 30.38 111.736 30.068 111.944 29.834C112.49 30.094 113.088 30.2933 113.738 30.432C114.388 30.5793 114.969 30.653 115.48 30.653C116.364 30.653 117.031 30.4883 117.482 30.159C117.941 29.8383 118.253 29.4007 118.418 28.846C118.583 28.3 118.665 27.6933 118.665 27.026V17.406C118.665 16.574 118.838 15.8373 119.185 15.196C119.54 14.546 120.143 14.1387 120.992 13.974C121.209 14.104 121.417 14.3077 121.616 14.585C121.815 14.8623 121.945 15.1223 122.006 15.365ZM110.683 20.604C110.683 19.0613 110.926 17.7917 111.411 16.795C111.905 15.7983 112.533 15.0573 113.296 14.572C114.059 14.078 114.847 13.831 115.662 13.831C116.416 13.831 117.07 13.9437 117.625 14.169C118.18 14.3943 118.656 14.6803 119.055 15.027C119.462 15.3737 119.809 15.729 120.095 16.093L119.731 18.394C119.272 17.6833 118.708 17.1027 118.041 16.652C117.382 16.2013 116.728 15.976 116.078 15.976C115.315 15.976 114.683 16.3573 114.18 17.12C113.677 17.874 113.426 19.044 113.426 20.63C113.426 22.1727 113.651 23.2863 114.102 23.971C114.561 24.647 115.112 24.985 115.753 24.985C116.446 24.985 117.109 24.7597 117.742 24.309C118.383 23.8497 118.882 23.269 119.237 22.567L119.64 24.634C119.406 25.0327 119.072 25.4313 118.639 25.83C118.206 26.22 117.694 26.5493 117.105 26.818C116.524 27.0867 115.892 27.221 115.207 27.221C114.21 27.221 113.374 26.9437 112.698 26.389C112.031 25.8343 111.528 25.063 111.19 24.075C110.852 23.0783 110.683 21.9213 110.683 20.604ZM124.055 9.385C124.307 9.27233 124.562 9.19 124.822 9.138C125.082 9.086 125.338 9.06 125.589 9.06C126.049 9.06 126.387 9.16833 126.603 9.385C126.82 9.60167 126.976 9.99167 127.071 10.555L128.709 19.369C128.787 19.8197 128.878 20.3613 128.982 20.994C129.086 21.618 129.19 22.242 129.294 22.866C129.398 23.4813 129.481 23.997 129.541 24.413C129.559 24.5603 129.58 24.647 129.606 24.673C129.641 24.699 129.693 24.712 129.762 24.712L132.596 9.619C132.865 9.567 133.168 9.53233 133.506 9.515C133.844 9.49767 134.139 9.489 134.39 9.489C134.668 9.489 134.975 9.49767 135.313 9.515C135.66 9.53233 135.946 9.567 136.171 9.619L138.771 24.413C138.797 24.5517 138.828 24.6383 138.862 24.673C138.897 24.699 138.949 24.712 139.018 24.712C139.096 24.1747 139.187 23.5767 139.291 22.918C139.404 22.2593 139.517 21.6137 139.629 20.981C139.751 20.3483 139.855 19.8023 139.941 19.343L141.943 9.242C142.134 9.19867 142.338 9.17267 142.554 9.164C142.78 9.14667 142.992 9.138 143.191 9.138C143.408 9.138 143.633 9.151 143.867 9.177C144.101 9.203 144.318 9.242 144.517 9.294L144.66 9.489L140.929 26.974C140.6 27.026 140.193 27.0607 139.707 27.078C139.231 27.104 138.815 27.117 138.459 27.117C138.043 27.117 137.679 27.0433 137.367 26.896C137.055 26.74 136.852 26.3673 136.756 25.778L135.495 18.81C135.357 17.952 135.188 16.9467 134.988 15.794C134.798 14.6327 134.616 13.4973 134.442 12.388H134.273C134.091 13.4973 133.896 14.6283 133.688 15.781C133.489 16.9337 133.303 17.9433 133.129 18.81L131.53 26.987C131.201 27.0303 130.811 27.0607 130.36 27.078C129.918 27.104 129.52 27.117 129.164 27.117C128.731 27.117 128.345 27.039 128.007 26.883C127.669 26.727 127.44 26.35 127.318 25.752L124.055 9.385ZM147.209 21.436V19.486H153.514V19.148C153.514 18.5413 153.427 17.9867 153.254 17.484C153.089 16.9727 152.816 16.5653 152.435 16.262C152.062 15.9587 151.564 15.807 150.94 15.807C150.056 15.807 149.393 16.1797 148.951 16.925C148.509 17.6703 148.288 18.6973 148.288 20.006V20.825C148.288 21.6397 148.37 22.3763 148.535 23.035C148.708 23.685 149.012 24.2007 149.445 24.582C149.878 24.9547 150.494 25.141 151.291 25.141C151.941 25.141 152.569 25.05 153.176 24.868C153.783 24.6773 154.359 24.439 154.905 24.153C155.13 24.3697 155.317 24.6427 155.464 24.972C155.62 25.2927 155.715 25.5917 155.75 25.869C155.135 26.3197 154.394 26.6793 153.527 26.948C152.669 27.208 151.785 27.338 150.875 27.338C149.844 27.338 148.981 27.156 148.288 26.792C147.603 26.428 147.057 25.9297 146.65 25.297C146.251 24.6557 145.961 23.932 145.779 23.126C145.606 22.32 145.519 21.4793 145.519 20.604C145.519 19.3127 145.718 18.1557 146.117 17.133C146.524 16.1103 147.131 15.3043 147.937 14.715C148.743 14.1257 149.744 13.831 150.94 13.831C152.067 13.831 153.011 14.078 153.774 14.572C154.545 15.066 155.126 15.7333 155.516 16.574C155.906 17.406 156.101 18.3377 156.101 19.369C156.101 19.785 156.084 20.1447 156.049 20.448C156.023 20.7427 155.975 21.072 155.906 21.436H147.209ZM162.067 26.35H159.428V8.046L159.597 7.877H160.598C161.162 7.877 161.547 8.01567 161.755 8.293C161.963 8.56167 162.067 8.995 162.067 9.593V26.35ZM169.997 20.409C169.997 21.9257 169.733 23.1867 169.204 24.192C168.676 25.1973 167.969 25.9513 167.085 26.454C166.201 26.948 165.226 27.195 164.16 27.195C163.328 27.195 162.514 27.1213 161.716 26.974C160.919 26.8267 160.156 26.6187 159.428 26.35L160.754 24.283C161.292 24.595 161.829 24.829 162.366 24.985C162.912 25.1323 163.519 25.206 164.186 25.206C164.776 25.206 165.3 25.0327 165.759 24.686C166.227 24.3307 166.591 23.7977 166.851 23.087C167.12 22.3763 167.254 21.4967 167.254 20.448C167.254 18.94 167.025 17.8523 166.565 17.185C166.115 16.5177 165.556 16.184 164.888 16.184C164.247 16.1753 163.619 16.379 163.003 16.795C162.388 17.211 161.898 17.7483 161.534 18.407L161.144 16.21C161.413 15.872 161.755 15.5297 162.171 15.183C162.587 14.8363 163.073 14.546 163.627 14.312C164.191 14.0693 164.815 13.948 165.499 13.948C166.496 13.948 167.324 14.2253 167.982 14.78C168.65 15.326 169.152 16.0887 169.49 17.068C169.828 18.0387 169.997 19.1523 169.997 20.409Z" fill="#FEFEFE"/>
<path d="M19.5 4.86719C11.9686 4.86719 5.8667 10.9691 5.8667 18.5005C5.8667 26.0297 11.9686 32.1316 19.5 32.1316C27.0292 32.1316 33.1311 26.0297 33.1311 18.5005C33.1311 10.9691 27.0292 4.86719 19.5 4.86719ZM14.9175 26.7257C12.904 26.7257 11.2704 25.0943 11.2704 23.0786C11.2704 21.0651 12.904 19.4315 14.9175 19.4315C16.9332 19.4315 18.5646 21.0651 18.5646 23.0786C18.5646 25.0943 16.9332 26.7257 14.9175 26.7257ZM14.9175 17.5695C12.904 17.5695 11.2704 15.9381 11.2704 13.9224C11.2704 11.9067 12.904 10.2753 14.9175 10.2753C16.9332 10.2753 18.5646 11.9067 18.5646 13.9224C18.5646 15.9381 16.9332 17.5695 14.9175 17.5695ZM24.0825 26.7257C22.069 26.7257 20.4354 25.0943 20.4354 23.0786C20.4354 21.0651 22.069 19.4315 24.0825 19.4315C26.096 19.4315 27.7296 21.0651 27.7296 23.0786C27.7296 25.0943 26.096 26.7257 24.0825 26.7257ZM24.0825 17.5695C22.069 17.5695 20.4354 15.9381 20.4354 13.9224C20.4354 11.9067 22.069 10.2753 24.0825 10.2753C26.096 10.2753 27.7296 11.9067 27.7296 13.9224C27.7296 15.9381 26.096 17.5695 24.0825 17.5695Z" fill="#3490DF"/>
<path d="M19.5 1C9.85194 1 2 8.85194 2 18.5C2 28.1481 9.85194 36 19.5 36C29.1481 36 37 28.1481 37 18.5C37 8.85194 29.1481 1 19.5 1ZM19.5 34.0151C10.9432 34.0151 3.98275 27.0546 3.98275 18.5C3.98275 9.94322 10.9432 2.98275 19.5 2.98275C28.0546 2.98275 35.0151 9.94322 35.0151 18.5C35.0151 27.0546 28.0546 34.0151 19.5 34.0151Z" fill="#3490DF"/>
</g>
<defs>
<clipPath id="clip0_426_29">
<rect width="174" height="38" fill="white"/>
</clipPath>
</defs>
</svg>
