<svg width="55" height="46" viewBox="0 0 55 46" fill="none" xmlns="http://www.w3.org/2000/svg">
<path d="M7.35156 42.9759L6.73659 43.7644L6.73969 43.7668L7.35156 42.9759ZM2.17401 35.3267L1.2319 35.662L1.23235 35.6633L2.17401 35.3267ZM2.17401 11.1009L1.23317 10.762L1.23235 10.7643L2.17401 11.1009ZM7.37287 3.4304L7.98784 4.21895L7.98851 4.21842L7.37287 3.4304ZM23.7152 3.4304L23.0971 4.21656L23.1026 4.22081L23.7152 3.4304ZM28.9141 11.1009L27.9719 11.4362L27.9737 11.441L28.9141 11.1009ZM28.9354 35.3267L29.877 35.6633L29.8775 35.662L28.9354 35.3267ZM23.7578 42.9759L24.3697 43.7668L24.3728 43.7644L23.7578 42.9759ZM22.9695 36.3068L22.1022 35.8089L22.1022 35.809L22.9695 36.3068ZM24.397 13.5298L23.439 13.8167L23.4405 13.8214L24.397 13.5298ZM20.9453 7.45739L20.263 8.18845L20.2665 8.19166L20.9453 7.45739ZM8.16122 10.0355L9.02873 10.5329L9.02971 10.5312L8.16122 10.0355ZM6.69105 32.8125L5.73351 33.1008L5.73351 33.1008L6.69105 32.8125ZM10.1214 38.8423L9.44287 39.5769L9.44636 39.5801L10.1214 38.8423ZM15.5547 44.5966C12.537 44.5966 10.0252 43.7798 7.96343 42.1849L6.73969 43.7668C9.19501 45.6662 12.152 46.5966 15.5547 46.5966V44.5966ZM7.96653 42.1873C5.88951 40.5675 4.26018 38.192 3.11566 34.9901L1.23235 35.6633C2.4742 39.1375 4.29657 41.8615 6.73659 43.7644L7.96653 42.1873ZM3.11611 34.9914C1.97163 31.7759 1.38423 27.8476 1.38423 23.1818H-0.615767C-0.615767 28.0047 -0.00998174 32.1729 1.2319 35.662L3.11611 34.9914ZM1.38423 23.1818C1.38423 18.545 1.97148 14.6384 3.11566 11.4374L1.23235 10.7643C-0.00983477 14.2394 -0.615767 18.3868 -0.615767 23.1818H1.38423ZM3.11484 11.4397C4.27382 8.22184 5.91073 5.83883 7.98784 4.21895L6.7579 2.64184C4.31796 4.54469 2.48896 7.27531 1.23317 10.762L3.11484 11.4397ZM7.98851 4.21842C10.0671 2.59452 12.5716 1.76704 15.5547 1.76704V-0.232956C12.1742 -0.232956 9.22409 0.715133 6.75723 2.64237L7.98851 4.21842ZM15.5547 1.76704C18.5379 1.76704 21.0339 2.59451 23.0972 4.21654L24.3332 2.64425C21.8794 0.715142 18.9351 -0.232956 15.5547 -0.232956V1.76704ZM23.1026 4.22081C25.192 5.84006 26.8276 8.22117 27.972 11.4362L29.8562 10.7655C28.6141 7.27599 26.7839 4.54346 24.3278 2.63998L23.1026 4.22081ZM27.9737 11.441C29.131 14.6407 29.7251 18.5461 29.7251 23.1818H31.7251C31.7251 18.3858 31.1119 14.2371 29.8544 10.7607L27.9737 11.441ZM29.7251 23.1818C29.7251 27.8476 29.1377 31.7759 27.9933 34.9914L29.8775 35.662C31.1194 32.1729 31.7251 28.0047 31.7251 23.1818H29.7251ZM27.9937 34.9901C26.8492 38.192 25.2199 40.5675 23.1428 42.1873L24.3728 43.7644C26.8128 41.8615 28.6352 39.1375 29.877 35.6633L27.9937 34.9901ZM23.1459 42.1849C21.0842 43.7798 18.5724 44.5966 15.5547 44.5966V46.5966C18.9574 46.5966 21.9144 45.6662 24.3697 43.7668L23.1459 42.1849ZM15.5547 41.9091C19.1406 41.9091 21.9212 40.1414 23.8367 36.8047L22.1022 35.809C20.495 38.6086 18.3324 39.9091 15.5547 39.9091V41.9091ZM23.8367 36.8047C25.7226 33.5195 26.6115 28.943 26.6115 23.1818H24.6115C24.6115 28.7842 23.739 32.9577 22.1022 35.8089L23.8367 36.8047ZM26.6115 23.1818C26.6115 19.3376 26.2003 16.0161 25.3536 13.2383L23.4405 13.8214C24.2131 16.356 24.6115 19.4692 24.6115 23.1818H26.6115ZM25.355 13.2429C24.5256 10.4735 23.2996 8.27213 21.6242 6.72311L20.2665 8.19166C21.6024 9.42673 22.6775 11.2737 23.4391 13.8167L25.355 13.2429ZM21.6276 6.72633C19.9448 5.15572 17.9017 4.36932 15.5547 4.36932V6.36932C17.4122 6.36932 18.9628 6.97496 20.263 8.18844L21.6276 6.72633ZM15.5547 4.36932C11.9871 4.36932 9.21717 6.16819 7.29274 9.5398L9.02971 10.5312C10.6564 7.68124 12.8154 6.36932 15.5547 6.36932V4.36932ZM7.29371 9.53809C5.39459 12.8502 4.49787 17.4325 4.49787 23.1818H6.49787C6.49787 17.596 7.37672 13.414 9.02873 10.5329L7.29371 9.53809ZM4.49787 23.1818C4.49787 27.0245 4.90168 30.3379 5.73351 33.1008L7.64859 32.5242C6.88952 30.003 6.49787 26.8959 6.49787 23.1818H4.49787ZM5.73351 33.1008C6.56267 35.8548 7.78135 38.0419 9.44288 39.5769L10.8 38.1078C9.47859 36.887 8.41034 35.0543 7.64859 32.5242L5.73351 33.1008ZM9.44636 39.5801C11.1438 41.1334 13.1985 41.9091 15.5547 41.9091V39.9091C13.6779 39.9091 12.1105 39.307 10.7965 38.1046L9.44636 39.5801ZM54.1626 1.36364H55.1626V0.363635H54.1626V1.36364ZM54.1626 45V46H55.1626V45H54.1626ZM48.8786 45H47.8786V46H48.8786V45ZM48.8786 6.90341H49.8786V5.90341H48.8786V6.90341ZM48.6229 6.90341V5.90341H48.3211L48.0697 6.07033L48.6229 6.90341ZM37.9695 13.9773H36.9695V15.8416L38.5226 14.8103L37.9695 13.9773ZM37.9695 8.60795L37.4163 7.7749L36.9695 8.07161V8.60795H37.9695ZM48.8786 1.36364V0.363635H48.5768L48.3254 0.530585L48.8786 1.36364ZM53.1626 1.36364V45H55.1626V1.36364H53.1626ZM54.1626 44H48.8786V46H54.1626V44ZM49.8786 45V6.90341H47.8786V45H49.8786ZM48.8786 5.90341H48.6229V7.90341H48.8786V5.90341ZM48.0697 6.07033L37.4163 13.1442L38.5226 14.8103L49.176 7.73648L48.0697 6.07033ZM38.9695 13.9773V8.60795H36.9695V13.9773H38.9695ZM38.5227 9.441L49.4317 2.19669L48.3254 0.530585L37.4163 7.7749L38.5227 9.441ZM48.8786 2.36364H54.1626V0.363635H48.8786V2.36364Z" fill="#0085FF"/>
</svg>
