<svg width="67" height="46" viewBox="0 0 67 46" fill="none" xmlns="http://www.w3.org/2000/svg">
<path d="M7.13281 42.9759L6.51784 43.7644L6.52094 43.7668L7.13281 42.9759ZM1.95526 35.3267L1.01315 35.662L1.0136 35.6633L1.95526 35.3267ZM1.95526 11.1009L1.01442 10.762L1.0136 10.7643L1.95526 11.1009ZM7.15412 3.4304L7.76909 4.21895L7.76976 4.21842L7.15412 3.4304ZM23.4964 3.4304L22.8784 4.21656L22.8839 4.22081L23.4964 3.4304ZM28.6953 11.1009L27.7532 11.4362L27.7549 11.441L28.6953 11.1009ZM28.7166 35.3267L29.6583 35.6633L29.6587 35.662L28.7166 35.3267ZM23.5391 42.9759L24.1509 43.7668L24.154 43.7644L23.5391 42.9759ZM22.7507 36.3068L21.8835 35.8089L21.8835 35.809L22.7507 36.3068ZM24.1783 13.5298L23.2203 13.8167L23.2217 13.8214L24.1783 13.5298ZM20.7266 7.45739L20.0442 8.18845L20.0477 8.19166L20.7266 7.45739ZM7.94247 10.0355L8.80998 10.5329L8.81096 10.5312L7.94247 10.0355ZM6.4723 32.8125L5.51476 33.1008L5.51476 33.1008L6.4723 32.8125ZM9.9027 38.8423L9.22412 39.5769L9.22761 39.5801L9.9027 38.8423ZM15.3359 44.5966C12.3182 44.5966 9.80641 43.7798 7.74468 42.1849L6.52094 43.7668C8.97626 45.6662 11.9332 46.5966 15.3359 46.5966V44.5966ZM7.74778 42.1873C5.67076 40.5675 4.04143 38.192 2.89691 34.9901L1.0136 35.6633C2.25545 39.1375 4.07782 41.8615 6.51784 43.7644L7.74778 42.1873ZM2.89736 34.9914C1.75288 31.7759 1.16548 27.8476 1.16548 23.1818H-0.834517C-0.834517 28.0047 -0.228732 32.1729 1.01315 35.662L2.89736 34.9914ZM1.16548 23.1818C1.16548 18.545 1.75273 14.6384 2.89691 11.4374L1.0136 10.7643C-0.228585 14.2394 -0.834517 18.3868 -0.834517 23.1818H1.16548ZM2.89609 11.4397C4.05507 8.22184 5.69198 5.83883 7.76909 4.21895L6.53915 2.64184C4.09921 4.54469 2.27021 7.27531 1.01442 10.762L2.89609 11.4397ZM7.76976 4.21842C9.84835 2.59452 12.3528 1.76704 15.3359 1.76704V-0.232956C11.9554 -0.232956 9.00534 0.715133 6.53848 2.64237L7.76976 4.21842ZM15.3359 1.76704C18.3191 1.76704 20.8152 2.59451 22.8784 4.21654L24.1145 2.64425C21.6607 0.715142 18.7164 -0.232956 15.3359 -0.232956V1.76704ZM22.8839 4.22081C24.9732 5.84006 26.6089 8.22117 27.7532 11.4362L29.6374 10.7655C28.3954 7.27599 26.5651 4.54346 24.109 2.63998L22.8839 4.22081ZM27.7549 11.441C28.9123 14.6407 29.5064 18.5461 29.5064 23.1818H31.5064C31.5064 18.3858 30.8931 14.2371 29.6357 10.7607L27.7549 11.441ZM29.5064 23.1818C29.5064 27.8476 28.919 31.7759 27.7745 34.9914L29.6587 35.662C30.9006 32.1729 31.5064 28.0047 31.5064 23.1818H29.5064ZM27.775 34.9901C26.6304 38.192 25.0011 40.5675 22.9241 42.1873L24.154 43.7644C26.5941 41.8615 28.4164 39.1375 29.6583 35.6633L27.775 34.9901ZM22.9272 42.1849C20.8655 43.7798 18.3537 44.5966 15.3359 44.5966V46.5966C18.7387 46.5966 21.6956 45.6662 24.1509 43.7668L22.9272 42.1849ZM15.3359 41.9091C18.9219 41.9091 21.7024 40.1414 23.618 36.8047L21.8835 35.809C20.2763 38.6086 18.1136 39.9091 15.3359 39.9091V41.9091ZM23.618 36.8047C25.5039 33.5195 26.3928 28.943 26.3928 23.1818H24.3928C24.3928 28.7842 23.5203 32.9577 21.8835 35.8089L23.618 36.8047ZM26.3928 23.1818C26.3928 19.3376 25.9815 16.0161 25.1348 13.2383L23.2217 13.8214C23.9943 16.356 24.3928 19.4692 24.3928 23.1818H26.3928ZM25.1362 13.2429C24.3069 10.4735 23.0809 8.27213 21.4054 6.72311L20.0477 8.19166C21.3836 9.42673 22.4588 11.2737 23.2203 13.8167L25.1362 13.2429ZM21.4089 6.72633C19.7261 5.15572 17.683 4.36932 15.3359 4.36932V6.36932C17.1935 6.36932 18.7441 6.97496 20.0442 8.18844L21.4089 6.72633ZM15.3359 4.36932C11.7684 4.36932 8.99842 6.16819 7.07399 9.5398L8.81096 10.5312C10.4377 7.68124 12.5967 6.36932 15.3359 6.36932V4.36932ZM7.07496 9.53809C5.17584 12.8502 4.27912 17.4325 4.27912 23.1818H6.27912C6.27912 17.596 7.15797 13.414 8.80998 10.5329L7.07496 9.53809ZM4.27912 23.1818C4.27912 27.0245 4.68293 30.3379 5.51476 33.1008L7.42984 32.5242C6.67077 30.003 6.27912 26.8959 6.27912 23.1818H4.27912ZM5.51476 33.1008C6.34392 35.8548 7.5626 38.0419 9.22413 39.5769L10.5813 38.1078C9.25984 36.887 8.19159 35.0543 7.42984 32.5242L5.51476 33.1008ZM9.22761 39.5801C10.925 41.1334 12.9797 41.9091 15.3359 41.9091V39.9091C13.4592 39.9091 11.8917 39.307 10.5778 38.1046L9.22761 39.5801ZM38.603 45H37.603V46H38.603V45ZM38.603 41.1648L37.8647 40.4903L37.603 40.7768V41.1648H38.603ZM53.0064 25.3977L52.2688 24.7225L52.2681 24.7233L53.0064 25.3977ZM57.1825 20.5824L57.9626 21.2081L57.9658 21.2041L57.1825 20.5824ZM59.6115 16.7045L58.6968 16.3004L58.6946 16.3054L59.6115 16.7045ZM59.3132 8.88494L58.473 9.42733L58.4779 9.43475L59.3132 8.88494ZM56.3303 6.28551L56.7653 5.3851L56.7653 5.38509L56.3303 6.28551ZM47.6797 6.41335L48.1628 7.28894L48.1662 7.28704L47.6797 6.41335ZM44.8033 9.28977L43.9277 8.80667L43.9234 8.81447L44.8033 9.28977ZM43.8018 13.6364V14.6364H44.8018V13.6364H43.8018ZM38.7734 13.6364H37.7734V14.6364H38.7734V13.6364ZM40.5419 6.90341L41.3955 7.42435L41.3955 7.42435L40.5419 6.90341ZM45.3572 2.38636L44.8905 1.50197L44.8879 1.50333L45.3572 2.38636ZM59.0362 2.38636L59.516 1.50895L59.516 1.50895L59.0362 2.38636ZM63.6811 6.75426L62.8283 7.27651L63.6811 6.75426ZM64.4908 17.5781L63.5559 17.2232L63.5541 17.228L64.4908 17.5781ZM61.5078 22.6705L60.7107 22.0666L60.71 22.0675L61.5078 22.6705ZM55.6484 29.4886L56.3789 30.1716L56.3803 30.1701L55.6484 29.4886ZM45.8473 39.9716L45.1168 39.2886L44.8473 39.5769V39.9716H45.8473ZM45.8473 40.3125H44.8473V41.3125H45.8473V40.3125ZM66.1314 40.3125H67.1314V39.3125H66.1314V40.3125ZM66.1314 45V46H67.1314V45H66.1314ZM39.603 45V41.1648H37.603V45H39.603ZM39.3413 41.8392L53.7447 26.0722L52.2681 24.7233L37.8647 40.4903L39.3413 41.8392ZM53.744 26.0729C55.4434 24.2165 56.8508 22.5942 57.9626 21.2081L56.4025 19.9567C55.3267 21.2979 53.9501 22.8858 52.2688 24.7225L53.744 26.0729ZM57.9658 21.2041C59.0967 19.7795 59.9588 18.4123 60.5284 17.1037L58.6946 16.3054C58.2131 17.4116 57.4559 18.6296 56.3993 19.9606L57.9658 21.2041ZM60.5262 17.1087C61.1222 15.7598 61.4212 14.3438 61.4212 12.8693H59.4212C59.4212 14.0653 59.1804 15.2061 58.6968 16.3004L60.5262 17.1087ZM61.4212 12.8693C61.4212 11.1683 61.0093 9.64284 60.1485 8.33513L58.4779 9.43475C59.0944 10.3714 59.4212 11.5021 59.4212 12.8693H61.4212ZM60.1534 8.34257C59.3241 7.05808 58.186 6.07151 56.7653 5.3851L55.8952 7.18593C57.0029 7.7211 57.8534 8.46748 58.4731 9.42731L60.1534 8.34257ZM56.7653 5.38509C55.3496 4.7011 53.7776 4.36932 52.0689 4.36932V6.36932C53.5136 6.36932 54.7825 6.64833 55.8952 7.18593L56.7653 5.38509ZM52.0689 4.36932C50.2518 4.36932 48.6157 4.74761 47.1932 5.53966L48.1662 7.28704C49.2437 6.68705 50.5337 6.36932 52.0689 6.36932V4.36932ZM47.1966 5.53777C45.7956 6.31076 44.7007 7.40565 43.9277 8.80669L45.6788 9.77285C46.2695 8.7023 47.0922 7.87957 48.1628 7.28893L47.1966 5.53777ZM43.9234 8.81447C43.1637 10.2209 42.8018 11.8389 42.8018 13.6364H44.8018C44.8018 12.11 45.1076 10.8303 45.6831 9.76508L43.9234 8.81447ZM43.8018 12.6364H38.7734V14.6364H43.8018V12.6364ZM39.7734 13.6364C39.7734 11.2389 40.3242 9.17965 41.3955 7.42435L39.6883 6.38247C38.4016 8.4908 37.7734 10.9202 37.7734 13.6364H39.7734ZM41.3955 7.42435C42.4795 5.64809 43.9508 4.2663 45.8266 3.2694L44.8879 1.50333C42.7012 2.66551 40.9622 4.29508 39.6883 6.38247L41.3955 7.42435ZM45.824 3.27075C47.7117 2.27447 49.8429 1.76704 52.2393 1.76704V-0.232956C49.5505 -0.232956 47.0937 0.339165 44.8905 1.50198L45.824 3.27075ZM52.2393 1.76704C54.6516 1.76704 56.7482 2.27507 58.5565 3.26377L59.516 1.50895C57.3754 0.338558 54.9407 -0.232956 52.2393 -0.232956V1.76704ZM58.5565 3.26377C60.3852 4.26366 61.8017 5.60022 62.8283 7.27651L64.5339 6.23201C63.3162 4.24353 61.6361 2.66815 59.516 1.50895L58.5565 3.26377ZM62.8283 7.27651C63.8498 8.94454 64.3643 10.8007 64.3643 12.8693H66.3643C66.3643 10.4493 65.7567 8.22876 64.5339 6.23201L62.8283 7.27651ZM64.3643 12.8693C64.3643 14.3504 64.0962 15.7999 63.5559 17.2232L65.4257 17.933C66.0501 16.2881 66.3643 14.5984 66.3643 12.8693H64.3643ZM63.5541 17.228C63.0314 18.6262 62.0964 20.2375 60.7107 22.0666L62.3049 23.2743C63.7601 21.3535 64.8138 19.5698 65.4275 17.9283L63.5541 17.228ZM60.71 22.0675C59.3326 23.8902 57.4049 26.1351 54.9166 28.8071L56.3803 30.1701C58.892 27.4728 60.8706 25.1723 62.3056 23.2734L60.71 22.0675ZM54.918 28.8057L45.1168 39.2886L46.5778 40.6545L56.3789 30.1716L54.918 28.8057ZM44.8473 39.9716V40.3125H46.8473V39.9716H44.8473ZM45.8473 41.3125H66.1314V39.3125H45.8473V41.3125ZM65.1314 40.3125V45H67.1314V40.3125H65.1314ZM66.1314 44H38.603V46H66.1314V44Z" fill="#0085FF"/>
</svg>
