<svg width="69" height="46" viewBox="0 0 69 46" fill="none" xmlns="http://www.w3.org/2000/svg">
<path d="M7.19531 42.9759L6.58034 43.7644L6.58344 43.7668L7.19531 42.9759ZM2.01776 35.3267L1.07565 35.662L1.0761 35.6633L2.01776 35.3267ZM2.01776 11.1009L1.07692 10.762L1.0761 10.7643L2.01776 11.1009ZM7.21662 3.4304L7.83159 4.21895L7.83226 4.21842L7.21662 3.4304ZM23.5589 3.4304L22.9409 4.21656L22.9464 4.22081L23.5589 3.4304ZM28.7578 11.1009L27.8157 11.4362L27.8174 11.441L28.7578 11.1009ZM28.7791 35.3267L29.7208 35.6633L29.7212 35.662L28.7791 35.3267ZM23.6016 42.9759L24.2134 43.7668L24.2165 43.7644L23.6016 42.9759ZM22.8132 36.3068L21.946 35.8089L21.946 35.809L22.8132 36.3068ZM24.2408 13.5298L23.2828 13.8167L23.2842 13.8214L24.2408 13.5298ZM20.7891 7.45739L20.1067 8.18845L20.1102 8.19166L20.7891 7.45739ZM8.00497 10.0355L8.87248 10.5329L8.87346 10.5312L8.00497 10.0355ZM6.5348 32.8125L5.57726 33.1008L5.57726 33.1008L6.5348 32.8125ZM9.9652 38.8423L9.28662 39.5769L9.29011 39.5801L9.9652 38.8423ZM15.3984 44.5966C12.3807 44.5966 9.86891 43.7798 7.80718 42.1849L6.58344 43.7668C9.03876 45.6662 11.9957 46.5966 15.3984 46.5966V44.5966ZM7.81028 42.1873C5.73326 40.5675 4.10393 38.192 2.95941 34.9901L1.0761 35.6633C2.31795 39.1375 4.14032 41.8615 6.58034 43.7644L7.81028 42.1873ZM2.95986 34.9914C1.81538 31.7759 1.22798 27.8476 1.22798 23.1818H-0.772017C-0.772017 28.0047 -0.166232 32.1729 1.07565 35.662L2.95986 34.9914ZM1.22798 23.1818C1.22798 18.545 1.81523 14.6384 2.95941 11.4374L1.0761 10.7643C-0.166085 14.2394 -0.772017 18.3868 -0.772017 23.1818H1.22798ZM2.95859 11.4397C4.11757 8.22184 5.75448 5.83883 7.83159 4.21895L6.60165 2.64184C4.16171 4.54469 2.33271 7.27531 1.07692 10.762L2.95859 11.4397ZM7.83226 4.21842C9.91085 2.59452 12.4153 1.76704 15.3984 1.76704V-0.232956C12.0179 -0.232956 9.06784 0.715133 6.60098 2.64237L7.83226 4.21842ZM15.3984 1.76704C18.3816 1.76704 20.8777 2.59451 22.9409 4.21654L24.177 2.64425C21.7232 0.715142 18.7789 -0.232956 15.3984 -0.232956V1.76704ZM22.9464 4.22081C25.0357 5.84006 26.6714 8.22117 27.8157 11.4362L29.6999 10.7655C28.4579 7.27599 26.6276 4.54346 24.1715 2.63998L22.9464 4.22081ZM27.8174 11.441C28.9748 14.6407 29.5689 18.5461 29.5689 23.1818H31.5689C31.5689 18.3858 30.9556 14.2371 29.6982 10.7607L27.8174 11.441ZM29.5689 23.1818C29.5689 27.8476 28.9815 31.7759 27.837 34.9914L29.7212 35.662C30.9631 32.1729 31.5689 28.0047 31.5689 23.1818H29.5689ZM27.8375 34.9901C26.6929 38.192 25.0636 40.5675 22.9866 42.1873L24.2165 43.7644C26.6566 41.8615 28.4789 39.1375 29.7208 35.6633L27.8375 34.9901ZM22.9897 42.1849C20.928 43.7798 18.4162 44.5966 15.3984 44.5966V46.5966C18.8012 46.5966 21.7581 45.6662 24.2134 43.7668L22.9897 42.1849ZM15.3984 41.9091C18.9844 41.9091 21.7649 40.1414 23.6805 36.8047L21.946 35.809C20.3388 38.6086 18.1761 39.9091 15.3984 39.9091V41.9091ZM23.6805 36.8047C25.5664 33.5195 26.4553 28.943 26.4553 23.1818H24.4553C24.4553 28.7842 23.5828 32.9577 21.946 35.8089L23.6805 36.8047ZM26.4553 23.1818C26.4553 19.3376 26.044 16.0161 25.1973 13.2383L23.2842 13.8214C24.0568 16.356 24.4553 19.4692 24.4553 23.1818H26.4553ZM25.1987 13.2429C24.3694 10.4735 23.1434 8.27213 21.4679 6.72311L20.1102 8.19166C21.4461 9.42673 22.5213 11.2737 23.2828 13.8167L25.1987 13.2429ZM21.4714 6.72633C19.7886 5.15572 17.7455 4.36932 15.3984 4.36932V6.36932C17.256 6.36932 18.8066 6.97496 20.1067 8.18844L21.4714 6.72633ZM15.3984 4.36932C11.8309 4.36932 9.06092 6.16819 7.13649 9.5398L8.87346 10.5312C10.5002 7.68124 12.6592 6.36932 15.3984 6.36932V4.36932ZM7.13746 9.53809C5.23834 12.8502 4.34162 17.4325 4.34162 23.1818H6.34162C6.34162 17.596 7.22047 13.414 8.87248 10.5329L7.13746 9.53809ZM4.34162 23.1818C4.34162 27.0245 4.74543 30.3379 5.57726 33.1008L7.49234 32.5242C6.73327 30.003 6.34162 26.8959 6.34162 23.1818H4.34162ZM5.57726 33.1008C6.40642 35.8548 7.6251 38.0419 9.28663 39.5769L10.6438 38.1078C9.32234 36.887 8.25409 35.0543 7.49234 32.5242L5.57726 33.1008ZM9.29011 39.5801C10.9875 41.1334 13.0422 41.9091 15.3984 41.9091V39.9091C13.5217 39.9091 11.9542 39.307 10.6403 38.1046L9.29011 39.5801ZM45.8885 44.1477L45.4846 45.0625L45.4867 45.0635L45.8885 44.1477ZM40.6683 40.1207L39.8636 40.7144L39.8691 40.7218L40.6683 40.1207ZM38.5803 34.0909V33.0909H37.5293L37.5815 34.1405L38.5803 34.0909ZM43.9496 34.0909L44.9463 34.0104L44.872 33.0909H43.9496V34.0909ZM45.3984 37.7344L44.6302 38.3746L44.6346 38.3798L45.3984 37.7344ZM48.7436 40.0781L48.3706 41.0059L48.3706 41.0059L48.7436 40.0781ZM61.7195 37.2017L60.903 36.6242L60.903 36.6242L61.7195 37.2017ZM61.7621 28.9134L60.9212 29.4546L60.9241 29.459L61.7621 28.9134ZM58.2678 26.0156L57.8546 26.9263L57.8546 26.9263L58.2678 26.0156ZM49.1484 24.9716H48.1484V25.9716H49.1484V24.9716ZM49.1484 20.2841V19.2841H48.1484V20.2841H49.1484ZM57.2024 19.3466L56.7747 18.4426L56.771 18.4445L57.2024 19.3466ZM60.2919 16.7045L59.4582 16.1522L59.4535 16.1596L60.2919 16.7045ZM60.4411 8.84233L61.2995 8.32947L61.2995 8.32947L60.4411 8.84233ZM57.6712 6.28551L57.2112 7.17344L57.2155 7.17566L57.6712 6.28551ZM49.2337 6.20028L49.6119 7.126L49.6169 7.12394L49.2337 6.20028ZM45.995 8.56534L46.7685 9.19918L46.7728 9.19393L45.995 8.56534ZM44.6314 12.2727V13.2727H45.5836L45.6302 12.3217L44.6314 12.2727ZM39.5178 12.2727L38.5184 12.2355L38.4798 13.2727H39.5178V12.2727ZM41.5845 6.2642L42.3837 6.86526L42.3861 6.8621L41.5845 6.2642ZM46.6555 2.21591L46.238 1.30723L46.2357 1.30831L46.6555 2.21591ZM60.5263 2.40767L60.0336 3.27789L60.0385 3.28061L60.5263 2.40767ZM64.9794 6.69034L64.1159 7.19464L64.1159 7.19464L64.9794 6.69034ZM64.5959 18.7287L63.7943 18.1308L63.7912 18.135L64.5959 18.7287ZM59.3757 22.3295L59.0855 21.3726L58.3757 21.5878V22.3295H59.3757ZM59.3757 22.6705H58.3757V23.519L59.213 23.6571L59.3757 22.6705ZM65.8317 26.1861L65.0582 26.82L65.0606 26.8228L65.8317 26.1861ZM66.2152 39.5455L65.3899 38.9808L65.389 38.9821L66.2152 39.5455ZM60.9737 43.9773L61.4117 44.8763L61.4117 44.8763L60.9737 43.9773ZM53.4098 44.5966C50.7124 44.5966 48.3456 44.1337 46.2902 43.232L45.4867 45.0635C47.8348 46.0936 50.4822 46.5966 53.4098 46.5966V44.5966ZM46.2924 43.2329C44.2435 42.3282 42.6462 41.087 41.4675 39.5197L39.8691 40.7218C41.2756 42.592 43.1585 44.0354 45.4846 45.0625L46.2924 43.2329ZM41.473 39.5271C40.319 37.9627 39.6835 36.1448 39.579 34.0413L37.5815 34.1405C37.7042 36.6109 38.4609 38.8129 39.8636 40.7144L41.473 39.5271ZM38.5803 35.0909H43.9496V33.0909H38.5803V35.0909ZM42.9528 34.1715C43.082 35.7704 43.6377 37.1836 44.6302 38.3746L46.1667 37.0942C45.4546 36.2397 45.0444 35.224 44.9463 34.0104L42.9528 34.1715ZM44.6346 38.3798C45.6047 39.5278 46.8605 40.3988 48.3706 41.0059L49.1166 39.1503C47.871 38.6495 46.8967 37.958 46.1622 37.0889L44.6346 38.3798ZM48.3706 41.0059C49.8813 41.6133 51.537 41.9091 53.3246 41.9091V39.9091C51.7599 39.9091 50.3616 39.6509 49.1166 39.1503L48.3706 41.0059ZM53.3246 41.9091C55.3162 41.9091 57.1223 41.5618 58.7215 40.8406L57.8993 39.0174C56.6008 39.603 55.083 39.9091 53.3246 39.9091V41.9091ZM58.7215 40.8406C60.3138 40.1225 61.5977 39.1056 62.5359 37.7792L60.903 36.6242C60.1935 37.6274 59.2047 38.4287 57.8993 39.0174L58.7215 40.8406ZM62.5359 37.7792C63.4883 36.4326 63.9553 34.8779 63.9553 33.1534H61.9553C61.9553 34.4971 61.5983 35.6413 60.903 36.6242L62.5359 37.7792ZM63.9553 33.1534C63.9553 31.3749 63.5118 29.7679 62.6001 28.3677L60.9241 29.459C61.6032 30.502 61.9553 31.7217 61.9553 33.1534H63.9553ZM62.6029 28.3721C61.6888 26.952 60.3639 25.8685 58.6809 25.105L57.8546 26.9263C59.2398 27.5548 60.2444 28.4032 60.9212 29.4546L62.6029 28.3721ZM58.6809 25.105C56.983 24.3346 54.9583 23.9716 52.6428 23.9716V25.9716C54.759 25.9716 56.4844 26.3046 57.8546 26.9263L58.6809 25.105ZM52.6428 23.9716H49.1484V25.9716H52.6428V23.9716ZM50.1484 24.9716V20.2841H48.1484V24.9716H50.1484ZM49.1484 21.2841H52.6428V19.2841H49.1484V21.2841ZM52.6428 21.2841C54.4961 21.2841 56.1685 20.9496 57.6339 20.2487L56.771 18.4445C55.6227 18.9936 54.2553 19.2841 52.6428 19.2841V21.2841ZM57.6301 20.2505C59.105 19.5527 60.2828 18.5535 61.1303 17.2495L59.4535 16.1596C58.8237 17.1283 57.9419 17.8905 56.7747 18.4427L57.6301 20.2505ZM61.1256 17.2568C62.0002 15.9367 62.4212 14.4039 62.4212 12.6989H60.4212C60.4212 14.062 60.0893 15.1997 59.4583 16.1523L61.1256 17.2568ZM62.4212 12.6989C62.4212 11.0702 62.0595 9.60156 61.2995 8.32947L59.5826 9.35518C60.1294 10.2706 60.4212 11.373 60.4212 12.6989H62.4212ZM61.2995 8.32947C60.5448 7.06609 59.4779 6.08698 58.1268 5.39536L57.2155 7.17566C58.2508 7.70563 59.0305 8.43106 59.5826 9.35518L61.2995 8.32947ZM58.1312 5.39759C56.7833 4.6993 55.2271 4.36932 53.495 4.36932V6.36932C54.9731 6.36932 56.2011 6.65013 57.2112 7.17343L58.1312 5.39759ZM53.495 4.36932C51.8634 4.36932 50.3122 4.67016 48.8504 5.27663L49.6169 7.12394C50.8256 6.62246 52.1153 6.36932 53.495 6.36932V4.36932ZM48.8554 5.27458C47.3896 5.8735 46.1688 6.7595 45.2173 7.93676L46.7728 9.19393C47.4974 8.29732 48.4357 7.60661 49.6119 7.12599L48.8554 5.27458ZM45.2216 7.93152C44.2344 9.13622 43.713 10.5828 43.6326 12.2238L45.6302 12.3217C45.6918 11.065 46.0796 10.0399 46.7685 9.19916L45.2216 7.93152ZM44.6314 11.2727H39.5178V13.2727H44.6314V11.2727ZM40.5171 12.31C40.5952 10.2132 41.2218 8.41018 42.3837 6.86526L40.7853 5.66315C39.362 7.55572 38.6108 9.75841 38.5184 12.2355L40.5171 12.31ZM42.3861 6.8621C43.5728 5.27109 45.1284 4.02417 47.0754 3.12351L46.2357 1.30831C44.0066 2.33946 42.1814 3.79141 40.7829 5.66631L42.3861 6.8621ZM47.073 3.12459C49.0333 2.22392 51.1975 1.76704 53.5803 1.76704V-0.232956C50.9346 -0.232956 48.4823 0.276079 46.238 1.30723L47.073 3.12459ZM53.5803 1.76704C56.1435 1.76704 58.2813 2.28577 60.0336 3.27787L61.019 1.53746C58.9076 0.342064 56.4147 -0.232956 53.5803 -0.232956V1.76704ZM60.0385 3.28061C61.8267 4.27991 63.1759 5.58504 64.1159 7.19464L65.8429 6.18604C64.7091 4.24451 63.0895 2.69452 61.0141 1.53473L60.0385 3.28061ZM64.1159 7.19464C65.0633 8.8169 65.5348 10.5604 65.5348 12.4432H67.5348C67.5348 10.2066 66.9694 8.11492 65.8429 6.18604L64.1159 7.19464ZM65.5348 12.4432C65.5348 14.7159 64.9408 16.5937 63.7943 18.1308L65.3975 19.3266C66.8362 17.3978 67.5348 15.0853 67.5348 12.4432H65.5348ZM63.7912 18.135C62.6496 19.6824 61.096 20.7629 59.0855 21.3726L59.6659 23.2865C62.0588 22.5609 63.9853 21.2409 65.4006 19.3223L63.7912 18.135ZM58.3757 22.3295V22.6705H60.3757V22.3295H58.3757ZM59.213 23.6571C61.7656 24.0782 63.6859 25.1455 65.0582 26.82L66.6051 25.5522C64.8809 23.4483 62.4972 22.1718 59.5385 21.6838L59.213 23.6571ZM65.0606 26.8228C66.4405 28.4939 67.1541 30.5817 67.1541 33.1534H69.1541C69.1541 30.1853 68.3194 27.6283 66.6028 25.5493L65.0606 26.8228ZM67.1541 33.1534C67.1541 35.3318 66.5644 37.2642 65.3899 38.9808L67.0405 40.1101C68.4512 38.0483 69.1541 35.7193 69.1541 33.1534H67.1541ZM65.389 38.9821C64.2169 40.7011 62.6091 42.0682 60.5358 43.0783L61.4117 44.8763C63.7701 43.7273 65.6567 42.1398 67.0414 40.1088L65.389 38.9821ZM60.5358 43.0783C58.475 44.0822 56.1071 44.5966 53.4098 44.5966V46.5966C56.366 46.5966 59.0406 46.0314 61.4117 44.8763L60.5358 43.0783Z" fill="#0085FF"/>
</svg>
