<svg width="250" height="76" viewBox="0 0 250 76" fill="none" xmlns="http://www.w3.org/2000/svg">
<path d="M2 74.2372C8.30662 64.2389 17.1399 54.7214 26.9676 48.158C41.6467 38.3547 60.116 36.4901 76.9599 33.0235C95.0631 29.2977 113.698 22.9598 128.292 11.1911C135.533 5.35165 125.828 3.07522 120.653 2.41254C114.797 1.6626 102.758 1.27174 99.0773 7.37186C95.2642 13.6907 106.473 23.1431 110.507 26.0976C120.278 33.256 132.363 32.3261 143.654 30.0593C157.905 27.1984 171.527 21.8953 186.065 20.3117C195.992 19.2304 206.409 19.8052 215.108 25.1855C223.551 30.4074 231.105 38.7502 235.943 47.3885C238.57 52.0773 240.456 57.4931 242.185 62.58C242.557 63.6744 242.613 64.6143 242.613 65.7437C242.613 68.1671 238.074 64.8415 237.14 64.2901C236.333 63.8128 238.735 65.2845 239.477 65.8577C240.173 66.3944 242.873 69.3135 244.066 68.5083C246.379 66.9475 247.081 59.9472 247.743 57.8201" stroke="#DA435F" stroke-width="3" stroke-linecap="round" stroke-dasharray="6 6"/>
</svg>
