<svg width="131" height="75" viewBox="0 0 131 75" fill="none" xmlns="http://www.w3.org/2000/svg">
<rect width="131" height="75" fill="url(#paint0_radial_690_111)"/>
<path d="M43.3516 57.9759L42.7366 58.7644L42.7397 58.7668L43.3516 57.9759ZM38.174 50.3267L37.2319 50.662L37.2324 50.6633L38.174 50.3267ZM38.174 26.1009L37.2332 25.762L37.2324 25.7643L38.174 26.1009ZM43.3729 18.4304L43.9878 19.2189L43.9885 19.2184L43.3729 18.4304ZM59.7152 18.4304L59.0971 19.2166L59.1026 19.2208L59.7152 18.4304ZM64.9141 26.1009L63.9719 26.4362L63.9737 26.441L64.9141 26.1009ZM64.9354 50.3267L65.877 50.6633L65.8775 50.662L64.9354 50.3267ZM59.7578 57.9759L60.3697 58.7668L60.3728 58.7644L59.7578 57.9759ZM58.9695 51.3068L58.1022 50.8089L58.1022 50.809L58.9695 51.3068ZM60.397 28.5298L59.439 28.8167L59.4405 28.8214L60.397 28.5298ZM56.9453 22.4574L56.263 23.1884L56.2665 23.1917L56.9453 22.4574ZM44.1612 25.0355L45.0287 25.5329L45.0297 25.5312L44.1612 25.0355ZM42.6911 47.8125L41.7335 48.1008L41.7335 48.1008L42.6911 47.8125ZM46.1214 53.8423L45.4429 54.5769L45.4464 54.5801L46.1214 53.8423ZM51.5547 59.5966C48.537 59.5966 46.0252 58.7798 43.9634 57.1849L42.7397 58.7668C45.195 60.6662 48.152 61.5966 51.5547 61.5966V59.5966ZM43.9665 57.1873C41.8895 55.5675 40.2602 53.192 39.1157 49.9901L37.2324 50.6633C38.4742 54.1375 40.2966 56.8615 42.7366 58.7644L43.9665 57.1873ZM39.1161 49.9914C37.9716 46.7759 37.3842 42.8476 37.3842 38.1818H35.3842C35.3842 43.0047 35.99 47.1729 37.2319 50.662L39.1161 49.9914ZM37.3842 38.1818C37.3842 33.545 37.9715 29.6384 39.1157 26.4374L37.2324 25.7643C35.9902 29.2394 35.3842 33.3868 35.3842 38.1818H37.3842ZM39.1148 26.4397C40.2738 23.2218 41.9107 20.8388 43.9878 19.2189L42.7579 17.6418C40.318 19.5447 38.489 22.2753 37.2332 25.762L39.1148 26.4397ZM43.9885 19.2184C46.0671 17.5945 48.5716 16.767 51.5547 16.767V14.767C48.1742 14.767 45.2241 15.7151 42.7572 17.6424L43.9885 19.2184ZM51.5547 16.767C54.5379 16.767 57.0339 17.5945 59.0972 19.2165L60.3332 17.6442C57.8794 15.7151 54.9351 14.767 51.5547 14.767V16.767ZM59.1026 19.2208C61.192 20.8401 62.8276 23.2212 63.972 26.4362L65.8562 25.7655C64.6141 22.276 62.7839 19.5435 60.3278 17.64L59.1026 19.2208ZM63.9737 26.441C65.131 29.6407 65.7251 33.5461 65.7251 38.1818H67.7251C67.7251 33.3858 67.1119 29.2371 65.8544 25.7607L63.9737 26.441ZM65.7251 38.1818C65.7251 42.8476 65.1377 46.7759 63.9933 49.9914L65.8775 50.662C67.1194 47.1729 67.7251 43.0047 67.7251 38.1818H65.7251ZM63.9937 49.9901C62.8492 53.192 61.2199 55.5675 59.1428 57.1873L60.3728 58.7644C62.8128 56.8615 64.6352 54.1375 65.877 50.6633L63.9937 49.9901ZM59.1459 57.1849C57.0842 58.7798 54.5724 59.5966 51.5547 59.5966V61.5966C54.9574 61.5966 57.9144 60.6662 60.3697 58.7668L59.1459 57.1849ZM51.5547 56.9091C55.1406 56.9091 57.9212 55.1414 59.8367 51.8047L58.1022 50.809C56.495 53.6086 54.3324 54.9091 51.5547 54.9091V56.9091ZM59.8367 51.8047C61.7226 48.5195 62.6115 43.943 62.6115 38.1818H60.6115C60.6115 43.7842 59.739 47.9577 58.1022 50.8089L59.8367 51.8047ZM62.6115 38.1818C62.6115 34.3376 62.2003 31.0161 61.3536 28.2383L59.4405 28.8214C60.2131 31.356 60.6115 34.4692 60.6115 38.1818H62.6115ZM61.355 28.2429C60.5256 25.4735 59.2996 23.2721 57.6242 21.7231L56.2665 23.1917C57.6024 24.4267 58.6775 26.2737 59.4391 28.8167L61.355 28.2429ZM57.6276 21.7263C55.9448 20.1557 53.9017 19.3693 51.5547 19.3693V21.3693C53.4122 21.3693 54.9628 21.975 56.263 23.1884L57.6276 21.7263ZM51.5547 19.3693C47.9871 19.3693 45.2172 21.1682 43.2927 24.5398L45.0297 25.5312C46.6564 22.6812 48.8154 21.3693 51.5547 21.3693V19.3693ZM43.2937 24.5381C41.3946 27.8502 40.4979 32.4325 40.4979 38.1818H42.4979C42.4979 32.596 43.3767 28.414 45.0287 25.5329L43.2937 24.5381ZM40.4979 38.1818C40.4979 42.0245 40.9017 45.3379 41.7335 48.1008L43.6486 47.5242C42.8895 45.003 42.4979 41.8959 42.4979 38.1818H40.4979ZM41.7335 48.1008C42.5627 50.8548 43.7813 53.0419 45.4429 54.5769L46.8 53.1078C45.4786 51.887 44.4103 50.0543 43.6486 47.5242L41.7335 48.1008ZM45.4464 54.5801C47.1438 56.1334 49.1985 56.9091 51.5547 56.9091V54.9091C49.6779 54.9091 48.1105 54.307 46.7965 53.1046L45.4464 54.5801ZM90.1626 16.3636H91.1626V15.3636H90.1626V16.3636ZM90.1626 60V61H91.1626V60H90.1626ZM84.8786 60H83.8786V61H84.8786V60ZM84.8786 21.9034H85.8786V20.9034H84.8786V21.9034ZM84.6229 21.9034V20.9034H84.3211L84.0697 21.0703L84.6229 21.9034ZM73.9695 28.9773H72.9695V30.8416L74.5226 29.8103L73.9695 28.9773ZM73.9695 23.608L73.4163 22.7749L72.9695 23.0716V23.608H73.9695ZM84.8786 16.3636V15.3636H84.5768L84.3254 15.5306L84.8786 16.3636ZM89.1626 16.3636V60H91.1626V16.3636H89.1626ZM90.1626 59H84.8786V61H90.1626V59ZM85.8786 60V21.9034H83.8786V60H85.8786ZM84.8786 20.9034H84.6229V22.9034H84.8786V20.9034ZM84.0697 21.0703L73.4163 28.1442L74.5226 29.8103L85.176 22.7365L84.0697 21.0703ZM74.9695 28.9773V23.608H72.9695V28.9773H74.9695ZM74.5227 24.441L85.4317 17.1967L84.3254 15.5306L73.4163 22.7749L74.5227 24.441ZM84.8786 17.3636H90.1626V15.3636H84.8786V17.3636Z" fill="#0085FF"/>
<defs>
<radialGradient id="paint0_radial_690_111" cx="0" cy="0" r="1" gradientUnits="userSpaceOnUse" gradientTransform="translate(65 38) rotate(90) scale(48.5 84.7133)">
<stop stop-color="#C4E3FF" stop-opacity="0.74"/>
<stop offset="1" stop-color="#FBFDFF" stop-opacity="0"/>
</radialGradient>
</defs>
</svg>
