<svg width="257" height="43" viewBox="0 0 257 43" fill="none" xmlns="http://www.w3.org/2000/svg">
<path d="M17.5 7.05212C9.96864 7.05212 3.8667 13.1541 3.8667 20.6854C3.8667 28.2146 9.96864 34.3166 17.5 34.3166C25.0292 34.3166 31.1311 28.2146 31.1311 20.6854C31.1311 13.1541 25.0292 7.05212 17.5 7.05212ZM12.9175 28.9107C10.904 28.9107 9.2704 27.2792 9.2704 25.2635C9.2704 23.2501 10.904 21.6164 12.9175 21.6164C14.9332 21.6164 16.5646 23.2501 16.5646 25.2635C16.5646 27.2792 14.9332 28.9107 12.9175 28.9107ZM12.9175 19.7544C10.904 19.7544 9.2704 18.123 9.2704 16.1073C9.2704 14.0916 10.904 12.4602 12.9175 12.4602C14.9332 12.4602 16.5646 14.0916 16.5646 16.1073C16.5646 18.123 14.9332 19.7544 12.9175 19.7544ZM22.0825 28.9107C20.069 28.9107 18.4354 27.2792 18.4354 25.2635C18.4354 23.2501 20.069 21.6164 22.0825 21.6164C24.096 21.6164 25.7296 23.2501 25.7296 25.2635C25.7296 27.2792 24.096 28.9107 22.0825 28.9107ZM22.0825 19.7544C20.069 19.7544 18.4354 18.123 18.4354 16.1073C18.4354 14.0916 20.069 12.4602 22.0825 12.4602C24.096 12.4602 25.7296 14.0916 25.7296 16.1073C25.7296 18.123 24.096 19.7544 22.0825 19.7544Z" fill="#3490DF"/>
<path d="M17.5 3.18518C7.85194 3.18518 0 11.0371 0 20.6852C0 30.3332 7.85194 38.1852 17.5 38.1852C27.1481 38.1852 35 30.3332 35 20.6852C35 11.0371 27.1481 3.18518 17.5 3.18518ZM17.5 36.2002C8.94322 36.2002 1.98275 29.2398 1.98275 20.6852C1.98275 12.1284 8.94322 5.16793 17.5 5.16793C26.0546 5.16793 33.0151 12.1284 33.0151 20.6852C33.0151 29.2398 26.0546 36.2002 17.5 36.2002Z" fill="#3490DF"/>
<path d="M44.0498 30.8299C44.1081 30.2933 44.289 29.7624 44.5923 29.2374C44.9073 28.7008 45.2515 28.2808 45.6248 27.9774C46.6398 28.6424 47.7656 29.2024 49.0023 29.6574C50.239 30.1124 51.464 30.3399 52.6773 30.3399C54.089 30.3399 55.1798 30.0308 55.9498 29.4124C56.7315 28.7941 57.1223 28.0066 57.1223 27.0499C57.1223 26.2333 56.8481 25.5099 56.2998 24.8799C55.7515 24.2383 54.964 23.7016 53.9373 23.2699L49.7023 21.5024C48.2323 20.8724 47.0598 20.0733 46.1848 19.1049C45.3215 18.1366 44.8898 16.9058 44.8898 15.4124C44.8898 14.1408 45.2223 12.9974 45.8873 11.9824C46.564 10.9558 47.4973 10.1449 48.6873 9.54995C49.8773 8.94328 51.254 8.63995 52.8173 8.63995C54.2756 8.63995 55.6465 8.82661 56.9298 9.19995C58.2131 9.57328 59.3098 9.98745 60.2198 10.4424C60.1965 10.9791 60.0623 11.5158 59.8173 12.0524C59.5723 12.5774 59.2573 13.0149 58.8723 13.3649C57.9623 12.8983 56.959 12.5074 55.8623 12.1924C54.7773 11.8774 53.7798 11.7199 52.8698 11.7199C51.5748 11.7199 50.554 12.0349 49.8073 12.6649C49.0723 13.2949 48.7048 14.0708 48.7048 14.9924C48.7048 15.7624 48.9731 16.3924 49.5098 16.8824C50.0465 17.3724 50.7465 17.7983 51.6098 18.1599L55.7923 19.8924C56.784 20.3124 57.6765 20.8316 58.4698 21.4499C59.2631 22.0683 59.8873 22.7916 60.3423 23.6199C60.7973 24.4483 61.0248 25.3874 61.0248 26.4374C61.0248 27.7674 60.7098 28.9691 60.0798 30.0424C59.4498 31.1041 58.499 31.9383 57.2273 32.5449C55.9673 33.1516 54.3748 33.4549 52.4498 33.4549C51.0031 33.4549 49.5331 33.2216 48.0398 32.7549C46.5581 32.2883 45.2281 31.6466 44.0498 30.8299Z" fill="black"/>
<path d="M66.263 25.5099V22.8849H74.7505V22.4299C74.7505 21.6133 74.6339 20.8666 74.4005 20.1899C74.1789 19.5016 73.8114 18.9533 73.298 18.5449C72.7964 18.1366 72.1255 17.9324 71.2855 17.9324C70.0955 17.9324 69.203 18.4341 68.608 19.4374C68.013 20.4408 67.7155 21.8233 67.7155 23.5849V24.6874C67.7155 25.7841 67.8264 26.7758 68.048 27.6624C68.2814 28.5374 68.6897 29.2316 69.273 29.7449C69.8564 30.2466 70.6847 30.4974 71.758 30.4974C72.633 30.4974 73.4789 30.3749 74.2955 30.1299C75.1122 29.8733 75.888 29.5524 76.623 29.1674C76.9264 29.4591 77.1772 29.8266 77.3755 30.2699C77.5855 30.7016 77.7139 31.1041 77.7605 31.4774C76.9322 32.0841 75.9347 32.5683 74.768 32.9299C73.613 33.2799 72.423 33.4549 71.198 33.4549C69.8097 33.4549 68.6489 33.2099 67.7155 32.7199C66.7939 32.2299 66.0589 31.5591 65.5105 30.7074C64.9739 29.8441 64.583 28.8699 64.338 27.7849C64.1047 26.6999 63.988 25.5683 63.988 24.3899C63.988 22.6516 64.2564 21.0941 64.793 19.7174C65.3414 18.3408 66.158 17.2558 67.243 16.4624C68.328 15.6691 69.6755 15.2724 71.2855 15.2724C72.8022 15.2724 74.0739 15.6049 75.1005 16.2699C76.1389 16.9349 76.9205 17.8333 77.4455 18.9649C77.9705 20.0849 78.233 21.3391 78.233 22.7274C78.233 23.2874 78.2097 23.7716 78.163 24.1799C78.128 24.5766 78.0639 25.0199 77.9705 25.5099H66.263Z" fill="black"/>
<path d="M80.3254 15.9549C80.7337 15.7683 81.1071 15.6399 81.4454 15.5699C81.7954 15.4999 82.1279 15.4649 82.4429 15.4649C82.9212 15.4649 83.2946 15.5758 83.5629 15.7974C83.8312 16.0191 84.0179 16.3983 84.1229 16.9349L85.7154 24.1974C85.9487 25.2824 86.1646 26.3558 86.3629 27.4174C86.5729 28.4791 86.7362 29.3424 86.8529 30.0074C86.8879 30.2058 86.9812 30.3049 87.1329 30.3049L90.0729 15.8149C90.3646 15.7449 90.7379 15.6983 91.1929 15.6749C91.6479 15.6399 91.9921 15.6224 92.2254 15.6224C92.4937 15.6224 92.8554 15.6399 93.3104 15.6749C93.7771 15.6983 94.1387 15.7449 94.3954 15.8149L97.2304 30.0074C97.2771 30.2058 97.3704 30.3049 97.5104 30.3049C97.7204 29.2899 97.9246 28.2808 98.1229 27.2774C98.3329 26.2624 98.5546 25.2358 98.7879 24.1974L100.695 15.7099C100.894 15.6633 101.133 15.6283 101.413 15.6049C101.693 15.5816 101.967 15.5699 102.235 15.5699C102.515 15.5699 102.825 15.5933 103.163 15.6399C103.513 15.6749 103.805 15.7449 104.038 15.8499L104.16 16.0249L99.9079 33.0174C99.5462 33.0758 99.1087 33.1108 98.5954 33.1224C98.0821 33.1458 97.6096 33.1574 97.1779 33.1574C96.4779 33.1574 95.9237 33.0466 95.5154 32.8249C95.1071 32.6033 94.8212 32.0666 94.6579 31.2149L93.6429 26.3499C93.5379 25.7316 93.4096 25.0199 93.2579 24.2149C93.1062 23.3983 92.9487 22.5466 92.7854 21.6599C92.6337 20.7733 92.4762 19.9158 92.3129 19.0874H92.1379C91.9979 19.9158 91.8404 20.7733 91.6654 21.6599C91.4904 22.5349 91.3212 23.3808 91.1579 24.1974C90.9946 25.0024 90.8487 25.7141 90.7204 26.3324L89.2854 32.9999C88.8887 33.0583 88.4162 33.0991 87.8679 33.1224C87.3312 33.1458 86.8412 33.1574 86.3979 33.1574C85.7796 33.1574 85.2662 33.0408 84.8579 32.8074C84.4496 32.5741 84.1521 32.0316 83.9654 31.1799L80.3254 15.9549Z" fill="black"/>
<path d="M112.134 32.9999C111.889 33.0466 111.609 33.0816 111.294 33.1049C110.979 33.1283 110.659 33.1399 110.332 33.1399C110.005 33.1399 109.684 33.1283 109.369 33.1049C109.054 33.0816 108.769 33.0466 108.512 32.9999V20.1724C108.512 19.5541 108.401 19.0991 108.179 18.8074C107.969 18.5041 107.573 18.3524 106.989 18.3524H106.604C106.499 17.9324 106.447 17.5066 106.447 17.0749C106.447 16.8649 106.459 16.6549 106.482 16.4449C106.505 16.2233 106.546 15.9958 106.604 15.7624C107.048 15.7041 107.462 15.6633 107.847 15.6399C108.244 15.6166 108.57 15.6049 108.827 15.6049H109.299C110.174 15.6049 110.863 15.8849 111.364 16.4449C111.878 16.9933 112.134 17.7458 112.134 18.7024V32.9999ZM107.444 11.0549C107.444 10.7983 107.468 10.5241 107.514 10.2324C107.573 9.94078 107.654 9.68995 107.759 9.47995C107.969 9.36328 108.255 9.26411 108.617 9.18245C108.99 9.10078 109.346 9.05995 109.684 9.05995C110.011 9.05995 110.367 9.10078 110.752 9.18245C111.137 9.26411 111.423 9.36328 111.609 9.47995C111.714 9.68995 111.79 9.94661 111.837 10.2499C111.895 10.5416 111.924 10.8099 111.924 11.0549C111.924 11.2999 111.895 11.5683 111.837 11.8599C111.79 12.1516 111.714 12.4024 111.609 12.6124C111.446 12.7291 111.166 12.8341 110.769 12.9274C110.373 13.0091 110.011 13.0499 109.684 13.0499C109.346 13.0499 108.99 13.0091 108.617 12.9274C108.244 12.8458 107.958 12.7408 107.759 12.6124C107.654 12.4024 107.573 12.1516 107.514 11.8599C107.468 11.5683 107.444 11.2999 107.444 11.0549Z" fill="black"/>
<path d="M119.116 15.5699C119.875 15.5699 120.4 15.7974 120.691 16.2524C120.995 16.7074 121.146 17.3374 121.146 18.1424V32.9999C120.913 33.0466 120.639 33.0816 120.324 33.1049C120.009 33.1283 119.688 33.1399 119.361 33.1399C119.035 33.1399 118.714 33.1283 118.399 33.1049C118.084 33.0816 117.798 33.0466 117.541 32.9999V15.7974L117.769 15.5699H119.116ZM131.331 29.3074C131.331 29.9141 131.372 30.4916 131.454 31.0399C131.547 31.5766 131.705 32.0491 131.926 32.4574C131.658 32.6791 131.32 32.8599 130.911 32.9999C130.503 33.1516 130.083 33.2274 129.651 33.2274C128.94 33.2274 128.438 33.0349 128.146 32.6499C127.866 32.2649 127.726 31.6933 127.726 30.9349V22.0274C127.726 20.8491 127.575 19.9974 127.271 19.4724C126.968 18.9358 126.39 18.6674 125.539 18.6674C124.955 18.6674 124.32 18.8074 123.631 19.0874C122.955 19.3674 122.313 19.7699 121.706 20.2949C121.1 20.8083 120.61 21.4091 120.236 22.0974V18.6324C121.018 17.7341 121.975 16.9758 123.106 16.3574C124.238 15.7274 125.434 15.4124 126.694 15.4124C127.79 15.4124 128.677 15.6691 129.354 16.1824C130.03 16.6841 130.526 17.3666 130.841 18.2299C131.168 19.0933 131.331 20.0674 131.331 21.1524V29.3074Z" fill="black"/>
<path d="M150.7 17.3374C150.315 17.6641 150.053 18.1308 149.913 18.7374C149.784 19.3324 149.72 19.9683 149.72 20.6449V31.0049C149.72 32.3466 149.656 33.4783 149.528 34.3999C149.399 35.3333 149.213 36.1149 148.968 36.7449C148.723 37.3866 148.414 37.9349 148.04 38.3899C147.492 39.0899 146.722 39.6499 145.73 40.0699C144.739 40.5016 143.584 40.7174 142.265 40.7174C141.192 40.7174 140.113 40.6008 139.028 40.3674C137.943 40.1341 136.998 39.8541 136.193 39.5274C136.204 39.0841 136.298 38.5999 136.473 38.0749C136.648 37.5499 136.875 37.1299 137.155 36.8149C137.89 37.1649 138.695 37.4333 139.57 37.6199C140.445 37.8183 141.227 37.9174 141.915 37.9174C143.105 37.9174 144.004 37.6958 144.61 37.2524C145.229 36.8208 145.649 36.2316 145.87 35.4849C146.092 34.7499 146.203 33.9333 146.203 33.0349V20.0849C146.203 18.9649 146.436 17.9733 146.903 17.1099C147.381 16.2349 148.192 15.6866 149.335 15.4649C149.627 15.6399 149.907 15.9141 150.175 16.2874C150.444 16.6608 150.619 17.0108 150.7 17.3374ZM135.458 24.3899C135.458 22.3133 135.784 20.6041 136.438 19.2624C137.103 17.9208 137.949 16.9233 138.975 16.2699C140.002 15.6049 141.064 15.2724 142.16 15.2724C143.175 15.2724 144.056 15.4241 144.803 15.7274C145.549 16.0308 146.191 16.4158 146.728 16.8824C147.276 17.3491 147.743 17.8274 148.128 18.3174L147.638 21.4149C147.019 20.4583 146.261 19.6766 145.363 19.0699C144.476 18.4633 143.595 18.1599 142.72 18.1599C141.694 18.1599 140.842 18.6733 140.165 19.6999C139.489 20.7149 139.15 22.2899 139.15 24.4249C139.15 26.5016 139.454 28.0008 140.06 28.9224C140.679 29.8324 141.419 30.2874 142.283 30.2874C143.216 30.2874 144.109 29.9841 144.96 29.3774C145.824 28.7591 146.494 27.9774 146.973 27.0324L147.515 29.8149C147.2 30.3516 146.751 30.8883 146.168 31.4249C145.584 31.9499 144.896 32.3933 144.103 32.7549C143.321 33.1166 142.469 33.2974 141.548 33.2974C140.206 33.2974 139.08 32.9241 138.17 32.1774C137.272 31.4308 136.595 30.3924 136.14 29.0624C135.685 27.7208 135.458 26.1633 135.458 24.3899Z" fill="black"/>
<path d="M153.459 9.28745C153.797 9.13578 154.141 9.02495 154.491 8.95495C154.841 8.88495 155.186 8.84995 155.524 8.84995C156.142 8.84995 156.597 8.99578 156.889 9.28745C157.181 9.57911 157.391 10.1041 157.519 10.8624L159.724 22.7274C159.829 23.3341 159.951 24.0633 160.091 24.9149C160.231 25.7549 160.371 26.5949 160.511 27.4349C160.651 28.2633 160.762 28.9574 160.844 29.5174C160.867 29.7158 160.896 29.8324 160.931 29.8674C160.978 29.9024 161.048 29.9199 161.141 29.9199L164.956 9.60245C165.318 9.53245 165.726 9.48578 166.181 9.46245C166.636 9.43911 167.033 9.42745 167.371 9.42745C167.745 9.42745 168.159 9.43911 168.614 9.46245C169.081 9.48578 169.466 9.53245 169.769 9.60245L173.269 29.5174C173.304 29.7041 173.345 29.8208 173.391 29.8674C173.438 29.9024 173.508 29.9199 173.601 29.9199C173.706 29.1966 173.829 28.3916 173.969 27.5049C174.121 26.6183 174.272 25.7491 174.424 24.8974C174.587 24.0458 174.727 23.3108 174.844 22.6924L177.539 9.09495C177.796 9.03661 178.07 9.00161 178.361 8.98995C178.665 8.96661 178.951 8.95495 179.219 8.95495C179.511 8.95495 179.814 8.97245 180.129 9.00745C180.444 9.04245 180.736 9.09495 181.004 9.16495L181.196 9.42745L176.174 32.9649C175.731 33.0349 175.182 33.0816 174.529 33.1049C173.887 33.1399 173.327 33.1574 172.849 33.1574C172.289 33.1574 171.799 33.0583 171.379 32.8599C170.959 32.6499 170.685 32.1483 170.556 31.3549L168.859 21.9749C168.672 20.8199 168.445 19.4666 168.176 17.9149C167.92 16.3516 167.675 14.8233 167.441 13.3299H167.214C166.969 14.8233 166.706 16.3458 166.426 17.8974C166.158 19.4491 165.907 20.8083 165.674 21.9749L163.521 32.9824C163.078 33.0408 162.553 33.0816 161.946 33.1049C161.351 33.1399 160.815 33.1574 160.336 33.1574C159.753 33.1574 159.234 33.0524 158.779 32.8424C158.324 32.6324 158.015 32.1249 157.851 31.3199L153.459 9.28745Z" fill="black"/>
<path d="M184.627 25.5099V22.8849H193.115V22.4299C193.115 21.6133 192.998 20.8666 192.765 20.1899C192.543 19.5016 192.176 18.9533 191.662 18.5449C191.161 18.1366 190.49 17.9324 189.65 17.9324C188.46 17.9324 187.567 18.4341 186.972 19.4374C186.377 20.4408 186.08 21.8233 186.08 23.5849V24.6874C186.08 25.7841 186.191 26.7758 186.412 27.6624C186.646 28.5374 187.054 29.2316 187.637 29.7449C188.221 30.2466 189.049 30.4974 190.122 30.4974C190.997 30.4974 191.843 30.3749 192.66 30.1299C193.476 29.8733 194.252 29.5524 194.987 29.1674C195.291 29.4591 195.541 29.8266 195.74 30.2699C195.95 30.7016 196.078 31.1041 196.125 31.4774C195.296 32.0841 194.299 32.5683 193.132 32.9299C191.977 33.2799 190.787 33.4549 189.562 33.4549C188.174 33.4549 187.013 33.2099 186.08 32.7199C185.158 32.2299 184.423 31.5591 183.875 30.7074C183.338 29.8441 182.947 28.8699 182.702 27.7849C182.469 26.6999 182.352 25.5683 182.352 24.3899C182.352 22.6516 182.621 21.0941 183.157 19.7174C183.706 18.3408 184.522 17.2558 185.607 16.4624C186.692 15.6691 188.04 15.2724 189.65 15.2724C191.166 15.2724 192.438 15.6049 193.465 16.2699C194.503 16.9349 195.285 17.8333 195.81 18.9649C196.335 20.0849 196.597 21.3391 196.597 22.7274C196.597 23.2874 196.574 23.7716 196.527 24.1799C196.492 24.5766 196.428 25.0199 196.335 25.5099H184.627Z" fill="black"/>
<path d="M204.629 32.1249H201.076V7.48495L201.304 7.25745H202.651C203.41 7.25745 203.929 7.44411 204.209 7.81745C204.489 8.17911 204.629 8.76245 204.629 9.56745V32.1249ZM215.304 24.1274C215.304 26.1691 214.948 27.8666 214.236 29.2199C213.525 30.5733 212.574 31.5883 211.384 32.2649C210.194 32.9299 208.881 33.2624 207.446 33.2624C206.326 33.2624 205.23 33.1633 204.156 32.9649C203.083 32.7666 202.056 32.4866 201.076 32.1249L202.861 29.3424C203.585 29.7624 204.308 30.0774 205.031 30.2874C205.766 30.4858 206.583 30.5849 207.481 30.5849C208.275 30.5849 208.981 30.3516 209.599 29.8849C210.229 29.4066 210.719 28.6891 211.069 27.7324C211.431 26.7758 211.611 25.5916 211.611 24.1799C211.611 22.1499 211.302 20.6858 210.684 19.7874C210.077 18.8891 209.325 18.4399 208.426 18.4399C207.563 18.4283 206.717 18.7024 205.889 19.2624C205.061 19.8224 204.401 20.5458 203.911 21.4324L203.386 18.4749C203.748 18.0199 204.209 17.5591 204.769 17.0924C205.329 16.6258 205.982 16.2349 206.729 15.9199C207.487 15.5933 208.327 15.4299 209.249 15.4299C210.591 15.4299 211.705 15.8033 212.591 16.5499C213.49 17.2849 214.166 18.3116 214.621 19.6299C215.076 20.9366 215.304 22.4358 215.304 24.1274Z" fill="black"/>
<path d="M227.766 9.09495C228.035 9.03661 228.338 9.00161 228.676 8.98995C229.026 8.96661 229.336 8.95495 229.604 8.95495C229.907 8.95495 230.228 8.96661 230.566 8.98995C230.905 9.00161 231.214 9.03661 231.494 9.09495V32.9999C231.214 33.0466 230.905 33.0816 230.566 33.1049C230.228 33.1283 229.907 33.1399 229.604 33.1399C229.336 33.1399 229.026 33.1283 228.676 33.1049C228.338 33.0816 228.035 33.0466 227.766 32.9999V9.09495Z" fill="#3692DC"/>
<path d="M255.695 21.0474C255.695 22.4124 255.601 23.7249 255.415 24.9849C255.24 26.2333 254.884 27.3999 254.347 28.4849C253.822 29.5583 253.035 30.5266 251.985 31.3899C251.471 31.8099 250.853 32.1541 250.13 32.4224C249.418 32.6791 248.689 32.8658 247.942 32.9824C247.195 33.0991 246.507 33.1574 245.877 33.1574C244.932 33.1574 244.069 33.1516 243.287 33.1399C242.505 33.1283 241.712 33.1108 240.907 33.0874C240.102 33.0641 239.192 33.0408 238.177 33.0174L237.95 32.8074C237.95 23.6223 237.95 18.4726 237.95 9.28745L238.177 9.07745C239.192 9.04245 240.096 9.01328 240.89 8.98995C241.695 8.96661 242.488 8.95495 243.27 8.95495C244.063 8.95495 244.932 8.95495 245.877 8.95495C246.507 8.95495 247.195 9.01911 247.942 9.14745C248.7 9.26411 249.435 9.45661 250.147 9.72495C250.87 9.98161 251.483 10.3199 251.985 10.7399C253.023 11.6033 253.805 12.5774 254.33 13.6624C254.866 14.7474 255.228 15.9141 255.415 17.1624C255.601 18.3991 255.695 19.6941 255.695 21.0474ZM251.81 21.0474C251.81 20.0091 251.74 18.9533 251.6 17.8799C251.46 16.8066 251.185 15.8266 250.777 14.9399C250.369 14.0416 249.768 13.3241 248.975 12.7874C248.193 12.2391 247.155 11.9649 245.86 11.9649C245.125 11.9649 244.442 11.9591 243.812 11.9474C243.182 11.9358 242.47 11.9299 241.677 11.9299V30.1474C242.47 30.1358 243.182 30.1358 243.812 30.1474C244.442 30.1591 245.125 30.1649 245.86 30.1649C247.155 30.1649 248.193 29.8908 248.975 29.3424C249.768 28.7941 250.369 28.0708 250.777 27.1724C251.185 26.2741 251.46 25.2883 251.6 24.2149C251.74 23.1416 251.81 22.0858 251.81 21.0474Z" fill="#3692DC"/>
</svg>
