<svg width="299" height="62" viewBox="0 0 299 62" fill="none" xmlns="http://www.w3.org/2000/svg">
<rect width="299" height="62" fill="white"/>
<path d="M59.05 39.83C59.1083 39.2933 59.2892 38.7625 59.5925 38.2375C59.9075 37.7008 60.2517 37.2808 60.625 36.9775C61.64 37.6425 62.7658 38.2025 64.0025 38.6575C65.2392 39.1125 66.4642 39.34 67.6775 39.34C69.0892 39.34 70.18 39.0308 70.95 38.4125C71.7317 37.7942 72.1225 37.0067 72.1225 36.05C72.1225 35.2333 71.8483 34.51 71.3 33.88C70.7517 33.2383 69.9642 32.7017 68.9375 32.27L64.7025 30.5025C63.2325 29.8725 62.06 29.0733 61.185 28.105C60.3217 27.1367 59.89 25.9058 59.89 24.4125C59.89 23.1408 60.2225 21.9975 60.8875 20.9825C61.5642 19.9558 62.4975 19.145 63.6875 18.55C64.8775 17.9433 66.2542 17.64 67.8175 17.64C69.2758 17.64 70.6467 17.8267 71.93 18.2C73.2133 18.5733 74.31 18.9875 75.22 19.4425C75.1967 19.9792 75.0625 20.5158 74.8175 21.0525C74.5725 21.5775 74.2575 22.015 73.8725 22.365C72.9625 21.8983 71.9592 21.5075 70.8625 21.1925C69.7775 20.8775 68.78 20.72 67.87 20.72C66.575 20.72 65.5542 21.035 64.8075 21.665C64.0725 22.295 63.705 23.0708 63.705 23.9925C63.705 24.7625 63.9733 25.3925 64.51 25.8825C65.0467 26.3725 65.7467 26.7983 66.61 27.16L70.7925 28.8925C71.7842 29.3125 72.6767 29.8317 73.47 30.45C74.2633 31.0683 74.8875 31.7917 75.3425 32.62C75.7975 33.4483 76.025 34.3875 76.025 35.4375C76.025 36.7675 75.71 37.9692 75.08 39.0425C74.45 40.1042 73.4992 40.9383 72.2275 41.545C70.9675 42.1517 69.375 42.455 67.45 42.455C66.0033 42.455 64.5333 42.2217 63.04 41.755C61.5583 41.2883 60.2283 40.6467 59.05 39.83ZM81.2632 34.51V31.885H89.7507V31.43C89.7507 30.6133 89.6341 29.8667 89.4007 29.19C89.1791 28.5017 88.8116 27.9533 88.2982 27.545C87.7966 27.1367 87.1257 26.9325 86.2857 26.9325C85.0957 26.9325 84.2032 27.4342 83.6082 28.4375C83.0132 29.4408 82.7157 30.8233 82.7157 32.585V33.6875C82.7157 34.7842 82.8266 35.7758 83.0482 36.6625C83.2816 37.5375 83.6899 38.2317 84.2732 38.745C84.8566 39.2467 85.6849 39.4975 86.7582 39.4975C87.6332 39.4975 88.4791 39.375 89.2957 39.13C90.1124 38.8733 90.8882 38.5525 91.6232 38.1675C91.9266 38.4592 92.1774 38.8267 92.3757 39.27C92.5857 39.7017 92.7141 40.1042 92.7607 40.4775C91.9324 41.0842 90.9349 41.5683 89.7682 41.93C88.6132 42.28 87.4232 42.455 86.1982 42.455C84.8099 42.455 83.6491 42.21 82.7157 41.72C81.7941 41.23 81.0591 40.5592 80.5107 39.7075C79.9741 38.8442 79.5832 37.87 79.3382 36.785C79.1049 35.7 78.9882 34.5683 78.9882 33.39C78.9882 31.6517 79.2566 30.0942 79.7932 28.7175C80.3416 27.3408 81.1582 26.2558 82.2432 25.4625C83.3282 24.6692 84.6757 24.2725 86.2857 24.2725C87.8024 24.2725 89.0741 24.605 90.1007 25.27C91.1391 25.935 91.9207 26.8333 92.4457 27.965C92.9707 29.085 93.2332 30.3392 93.2332 31.7275C93.2332 32.2875 93.2099 32.7717 93.1632 33.18C93.1282 33.5767 93.0641 34.02 92.9707 34.51H81.2632ZM95.3256 24.955C95.7339 24.7683 96.1073 24.64 96.4456 24.57C96.7956 24.5 97.1281 24.465 97.4431 24.465C97.9214 24.465 98.2948 24.5758 98.5631 24.7975C98.8314 25.0192 99.0181 25.3983 99.1231 25.935L100.716 33.1975C100.949 34.2825 101.165 35.3558 101.363 36.4175C101.573 37.4792 101.736 38.3425 101.853 39.0075C101.888 39.2058 101.981 39.305 102.133 39.305L105.073 24.815C105.365 24.745 105.738 24.6983 106.193 24.675C106.648 24.64 106.992 24.6225 107.226 24.6225C107.494 24.6225 107.856 24.64 108.311 24.675C108.777 24.6983 109.139 24.745 109.396 24.815L112.231 39.0075C112.277 39.2058 112.371 39.305 112.511 39.305C112.721 38.29 112.925 37.2808 113.123 36.2775C113.333 35.2625 113.555 34.2358 113.788 33.1975L115.696 24.71C115.894 24.6633 116.133 24.6283 116.413 24.605C116.693 24.5817 116.967 24.57 117.236 24.57C117.516 24.57 117.825 24.5933 118.163 24.64C118.513 24.675 118.805 24.745 119.038 24.85L119.161 25.025L114.908 42.0175C114.546 42.0758 114.109 42.1108 113.596 42.1225C113.082 42.1458 112.61 42.1575 112.178 42.1575C111.478 42.1575 110.924 42.0467 110.516 41.825C110.107 41.6033 109.821 41.0667 109.658 40.215L108.643 35.35C108.538 34.7317 108.41 34.02 108.258 33.215C108.106 32.3983 107.949 31.5467 107.786 30.66C107.634 29.7733 107.476 28.9158 107.313 28.0875H107.138C106.998 28.9158 106.841 29.7733 106.666 30.66C106.491 31.535 106.321 32.3808 106.158 33.1975C105.995 34.0025 105.849 34.7142 105.721 35.3325L104.286 42C103.889 42.0583 103.416 42.0992 102.868 42.1225C102.331 42.1458 101.841 42.1575 101.398 42.1575C100.78 42.1575 100.266 42.0408 99.8581 41.8075C99.4498 41.5742 99.1523 41.0317 98.9656 40.18L95.3256 24.955ZM127.135 42C126.89 42.0467 126.61 42.0817 126.295 42.105C125.98 42.1283 125.659 42.14 125.332 42.14C125.005 42.14 124.685 42.1283 124.37 42.105C124.055 42.0817 123.769 42.0467 123.512 42V29.1725C123.512 28.5542 123.401 28.0992 123.18 27.8075C122.97 27.5042 122.573 27.3525 121.99 27.3525H121.605C121.5 26.9325 121.447 26.5067 121.447 26.075C121.447 25.865 121.459 25.655 121.482 25.445C121.505 25.2233 121.546 24.9958 121.605 24.7625C122.048 24.7042 122.462 24.6633 122.847 24.64C123.244 24.6167 123.57 24.605 123.827 24.605H124.3C125.175 24.605 125.863 24.885 126.365 25.445C126.878 25.9933 127.135 26.7458 127.135 27.7025V42ZM122.445 20.055C122.445 19.7983 122.468 19.5242 122.515 19.2325C122.573 18.9408 122.655 18.69 122.76 18.48C122.97 18.3633 123.255 18.2642 123.617 18.1825C123.99 18.1008 124.346 18.06 124.685 18.06C125.011 18.06 125.367 18.1008 125.752 18.1825C126.137 18.2642 126.423 18.3633 126.61 18.48C126.715 18.69 126.79 18.9467 126.837 19.25C126.895 19.5417 126.925 19.81 126.925 20.055C126.925 20.3 126.895 20.5683 126.837 20.86C126.79 21.1517 126.715 21.4025 126.61 21.6125C126.446 21.7292 126.166 21.8342 125.77 21.9275C125.373 22.0092 125.011 22.05 124.685 22.05C124.346 22.05 123.99 22.0092 123.617 21.9275C123.244 21.8458 122.958 21.7408 122.76 21.6125C122.655 21.4025 122.573 21.1517 122.515 20.86C122.468 20.5683 122.445 20.3 122.445 20.055ZM134.117 24.57C134.875 24.57 135.4 24.7975 135.692 25.2525C135.995 25.7075 136.147 26.3375 136.147 27.1425V42C135.913 42.0467 135.639 42.0817 135.324 42.105C135.009 42.1283 134.688 42.14 134.362 42.14C134.035 42.14 133.714 42.1283 133.399 42.105C133.084 42.0817 132.798 42.0467 132.542 42V24.7975L132.769 24.57H134.117ZM146.332 38.3075C146.332 38.9142 146.372 39.4917 146.454 40.04C146.547 40.5767 146.705 41.0492 146.927 41.4575C146.658 41.6792 146.32 41.86 145.912 42C145.503 42.1517 145.083 42.2275 144.652 42.2275C143.94 42.2275 143.438 42.035 143.147 41.65C142.867 41.265 142.727 40.6933 142.727 39.935V31.0275C142.727 29.8492 142.575 28.9975 142.272 28.4725C141.968 27.9358 141.391 27.6675 140.539 27.6675C139.956 27.6675 139.32 27.8075 138.632 28.0875C137.955 28.3675 137.313 28.77 136.707 29.295C136.1 29.8083 135.61 30.4092 135.237 31.0975V27.6325C136.018 26.7342 136.975 25.9758 138.107 25.3575C139.238 24.7275 140.434 24.4125 141.694 24.4125C142.791 24.4125 143.677 24.6692 144.354 25.1825C145.031 25.6842 145.527 26.3667 145.842 27.23C146.168 28.0933 146.332 29.0675 146.332 30.1525V38.3075ZM165.7 26.3375C165.315 26.6642 165.053 27.1308 164.913 27.7375C164.785 28.3325 164.72 28.9683 164.72 29.645V40.005C164.72 41.3467 164.656 42.4783 164.528 43.4C164.4 44.3333 164.213 45.115 163.968 45.745C163.723 46.3867 163.414 46.935 163.04 47.39C162.492 48.09 161.722 48.65 160.73 49.07C159.739 49.5017 158.584 49.7175 157.265 49.7175C156.192 49.7175 155.113 49.6008 154.028 49.3675C152.943 49.1342 151.998 48.8542 151.193 48.5275C151.205 48.0842 151.298 47.6 151.473 47.075C151.648 46.55 151.875 46.13 152.155 45.815C152.89 46.165 153.695 46.4333 154.57 46.62C155.445 46.8183 156.227 46.9175 156.915 46.9175C158.105 46.9175 159.004 46.6958 159.61 46.2525C160.229 45.8208 160.649 45.2317 160.87 44.485C161.092 43.75 161.203 42.9333 161.203 42.035V29.085C161.203 27.965 161.436 26.9733 161.903 26.11C162.381 25.235 163.192 24.6867 164.335 24.465C164.627 24.64 164.907 24.9142 165.175 25.2875C165.444 25.6608 165.619 26.0108 165.7 26.3375ZM150.458 33.39C150.458 31.3133 150.785 29.6042 151.438 28.2625C152.103 26.9208 152.949 25.9233 153.975 25.27C155.002 24.605 156.064 24.2725 157.16 24.2725C158.175 24.2725 159.056 24.4242 159.803 24.7275C160.55 25.0308 161.191 25.4158 161.728 25.8825C162.276 26.3492 162.743 26.8275 163.128 27.3175L162.638 30.415C162.02 29.4583 161.261 28.6767 160.363 28.07C159.476 27.4633 158.595 27.16 157.72 27.16C156.694 27.16 155.842 27.6733 155.165 28.7C154.489 29.715 154.15 31.29 154.15 33.425C154.15 35.5017 154.454 37.0008 155.06 37.9225C155.679 38.8325 156.42 39.2875 157.283 39.2875C158.216 39.2875 159.109 38.9842 159.96 38.3775C160.824 37.7592 161.495 36.9775 161.973 36.0325L162.515 38.815C162.2 39.3517 161.751 39.8883 161.168 40.425C160.585 40.95 159.896 41.3933 159.103 41.755C158.321 42.1167 157.47 42.2975 156.548 42.2975C155.206 42.2975 154.08 41.9242 153.17 41.1775C152.272 40.4308 151.595 39.3925 151.14 38.0625C150.685 36.7208 150.458 35.1633 150.458 33.39ZM168.459 18.2875C168.798 18.1358 169.142 18.025 169.492 17.955C169.842 17.885 170.186 17.85 170.524 17.85C171.143 17.85 171.598 17.9958 171.889 18.2875C172.181 18.5792 172.391 19.1042 172.519 19.8625L174.724 31.7275C174.829 32.3342 174.952 33.0633 175.092 33.915C175.232 34.755 175.372 35.595 175.512 36.435C175.652 37.2633 175.763 37.9575 175.844 38.5175C175.868 38.7158 175.897 38.8325 175.932 38.8675C175.978 38.9025 176.048 38.92 176.142 38.92L179.957 18.6025C180.318 18.5325 180.727 18.4858 181.182 18.4625C181.637 18.4392 182.033 18.4275 182.372 18.4275C182.745 18.4275 183.159 18.4392 183.614 18.4625C184.081 18.4858 184.466 18.5325 184.769 18.6025L188.269 38.5175C188.304 38.7042 188.345 38.8208 188.392 38.8675C188.438 38.9025 188.508 38.92 188.602 38.92C188.707 38.1967 188.829 37.3917 188.969 36.505C189.121 35.6183 189.273 34.7492 189.424 33.8975C189.588 33.0458 189.728 32.3108 189.844 31.6925L192.539 18.095C192.796 18.0367 193.07 18.0017 193.362 17.99C193.665 17.9667 193.951 17.955 194.219 17.955C194.511 17.955 194.814 17.9725 195.129 18.0075C195.444 18.0425 195.736 18.095 196.004 18.165L196.197 18.4275L191.174 41.965C190.731 42.035 190.183 42.0817 189.529 42.105C188.888 42.14 188.328 42.1575 187.849 42.1575C187.289 42.1575 186.799 42.0583 186.379 41.86C185.959 41.65 185.685 41.1483 185.557 40.355L183.859 30.975C183.673 29.82 183.445 28.4667 183.177 26.915C182.92 25.3517 182.675 23.8233 182.442 22.33H182.214C181.969 23.8233 181.707 25.3458 181.427 26.8975C181.158 28.4492 180.908 29.8083 180.674 30.975L178.522 41.9825C178.078 42.0408 177.553 42.0817 176.947 42.105C176.352 42.14 175.815 42.1575 175.337 42.1575C174.753 42.1575 174.234 42.0525 173.779 41.8425C173.324 41.6325 173.015 41.125 172.852 40.32L168.459 18.2875ZM199.628 34.51V31.885H208.115V31.43C208.115 30.6133 207.998 29.8667 207.765 29.19C207.543 28.5017 207.176 27.9533 206.663 27.545C206.161 27.1367 205.49 26.9325 204.65 26.9325C203.46 26.9325 202.568 27.4342 201.973 28.4375C201.378 29.4408 201.08 30.8233 201.08 32.585V33.6875C201.08 34.7842 201.191 35.7758 201.413 36.6625C201.646 37.5375 202.054 38.2317 202.638 38.745C203.221 39.2467 204.049 39.4975 205.123 39.4975C205.998 39.4975 206.843 39.375 207.66 39.13C208.477 38.8733 209.253 38.5525 209.988 38.1675C210.291 38.4592 210.542 38.8267 210.74 39.27C210.95 39.7017 211.078 40.1042 211.125 40.4775C210.297 41.0842 209.299 41.5683 208.133 41.93C206.978 42.28 205.788 42.455 204.562 42.455C203.174 42.455 202.013 42.21 201.08 41.72C200.158 41.23 199.423 40.5592 198.875 39.7075C198.338 38.8442 197.948 37.87 197.703 36.785C197.469 35.7 197.353 34.5683 197.353 33.39C197.353 31.6517 197.621 30.0942 198.158 28.7175C198.706 27.3408 199.523 26.2558 200.608 25.4625C201.693 24.6692 203.04 24.2725 204.65 24.2725C206.167 24.2725 207.438 24.605 208.465 25.27C209.503 25.935 210.285 26.8333 210.81 27.965C211.335 29.085 211.598 30.3392 211.598 31.7275C211.598 32.2875 211.574 32.7717 211.528 33.18C211.493 33.5767 211.428 34.02 211.335 34.51H199.628ZM219.629 41.125H216.077V16.485L216.304 16.2575H217.652C218.41 16.2575 218.929 16.4442 219.209 16.8175C219.489 17.1792 219.629 17.7625 219.629 18.5675V41.125ZM230.304 33.1275C230.304 35.1692 229.948 36.8667 229.237 38.22C228.525 39.5733 227.574 40.5883 226.384 41.265C225.194 41.93 223.882 42.2625 222.447 42.2625C221.327 42.2625 220.23 42.1633 219.157 41.965C218.083 41.7667 217.057 41.4867 216.077 41.125L217.862 38.3425C218.585 38.7625 219.308 39.0775 220.032 39.2875C220.767 39.4858 221.583 39.585 222.482 39.585C223.275 39.585 223.981 39.3517 224.599 38.885C225.229 38.4067 225.719 37.6892 226.069 36.7325C226.431 35.7758 226.612 34.5917 226.612 33.18C226.612 31.15 226.303 29.6858 225.684 28.7875C225.078 27.8892 224.325 27.44 223.427 27.44C222.563 27.4283 221.718 27.7025 220.889 28.2625C220.061 28.8225 219.402 29.5458 218.912 30.4325L218.387 27.475C218.748 27.02 219.209 26.5592 219.769 26.0925C220.329 25.6258 220.983 25.235 221.729 24.92C222.488 24.5933 223.328 24.43 224.249 24.43C225.591 24.43 226.705 24.8033 227.592 25.55C228.49 26.285 229.167 27.3117 229.622 28.63C230.077 29.9367 230.304 31.4358 230.304 33.1275Z" fill="black"/>
<g clip-path="url(#clip0_1_19)">
<path d="M28.5 12.9715C18.8168 12.9715 10.9715 20.8168 10.9715 30.5C10.9715 40.1804 18.8168 48.0257 28.5 48.0257C38.1804 48.0257 46.0257 40.1804 46.0257 30.5C46.0257 20.8168 38.1804 12.9715 28.5 12.9715ZM22.6082 41.0753C20.0195 41.0753 17.9191 38.9777 17.9191 36.3861C17.9191 33.7974 20.0195 31.697 22.6082 31.697C25.1998 31.697 27.2974 33.7974 27.2974 36.3861C27.2974 38.9777 25.1998 41.0753 22.6082 41.0753ZM22.6082 29.303C20.0195 29.303 17.9191 27.2055 17.9191 24.6139C17.9191 22.0223 20.0195 19.9247 22.6082 19.9247C25.1998 19.9247 27.2974 22.0223 27.2974 24.6139C27.2974 27.2055 25.1998 29.303 22.6082 29.303ZM34.3918 41.0753C31.803 41.0753 29.7026 38.9777 29.7026 36.3861C29.7026 33.7974 31.803 31.697 34.3918 31.697C36.9806 31.697 39.0809 33.7974 39.0809 36.3861C39.0809 38.9777 36.9806 41.0753 34.3918 41.0753ZM34.3918 29.303C31.803 29.303 29.7026 27.2055 29.7026 24.6139C29.7026 22.0223 31.803 19.9247 34.3918 19.9247C36.9806 19.9247 39.0809 22.0223 39.0809 24.6139C39.0809 27.2055 36.9806 29.303 34.3918 29.303Z" fill="#4C5CEF"/>
<path d="M28.5 8C16.0954 8 6 18.0954 6 30.5C6 42.9046 16.0954 53 28.5 53C40.9046 53 51 42.9046 51 30.5C51 18.0954 40.9046 8 28.5 8ZM28.5 50.4479C17.4984 50.4479 8.54925 41.4987 8.54925 30.5C8.54925 19.4984 17.4984 10.5492 28.5 10.5492C39.4987 10.5492 48.4479 19.4984 48.4479 30.5C48.4479 41.4987 39.4987 50.4479 28.5 50.4479Z" fill="#4C5CEF"/>
</g>
<path d="M242.273 18.095C242.541 18.0367 242.844 18.0017 243.183 17.99C243.533 17.9667 243.842 17.955 244.11 17.955C244.413 17.955 244.734 17.9667 245.073 17.99C245.411 18.0017 245.72 18.0367 246 18.095V42C245.72 42.0467 245.411 42.0817 245.073 42.105C244.734 42.1283 244.413 42.14 244.11 42.14C243.842 42.14 243.533 42.1283 243.183 42.105C242.844 42.0817 242.541 42.0467 242.273 42V18.095ZM270.201 30.0475C270.201 31.4125 270.107 32.725 269.921 33.985C269.746 35.2333 269.39 36.4 268.853 37.485C268.328 38.5583 267.541 39.5267 266.491 40.39C265.977 40.81 265.359 41.1542 264.636 41.4225C263.924 41.6792 263.195 41.8658 262.448 41.9825C261.701 42.0992 261.013 42.1575 260.383 42.1575C259.438 42.1575 258.575 42.1517 257.793 42.14C257.011 42.1283 256.218 42.1108 255.413 42.0875C254.608 42.0642 253.698 42.0408 252.683 42.0175L252.456 41.8075V18.2875L252.683 18.0775C253.698 18.0425 254.602 18.0133 255.396 17.99C256.201 17.9667 256.994 17.955 257.776 17.955C258.569 17.955 259.438 17.955 260.383 17.955C261.013 17.955 261.701 18.0192 262.448 18.1475C263.206 18.2642 263.941 18.4567 264.653 18.725C265.376 18.9817 265.989 19.32 266.491 19.74C267.529 20.6033 268.311 21.5775 268.836 22.6625C269.372 23.7475 269.734 24.9142 269.921 26.1625C270.107 27.3992 270.201 28.6942 270.201 30.0475ZM266.316 30.0475C266.316 29.0092 266.246 27.9533 266.106 26.88C265.966 25.8067 265.691 24.8267 265.283 23.94C264.875 23.0417 264.274 22.3242 263.481 21.7875C262.699 21.2392 261.661 20.965 260.366 20.965C259.631 20.965 258.948 20.9592 258.318 20.9475C257.688 20.9358 256.976 20.93 256.183 20.93V39.1475C256.976 39.1358 257.688 39.1358 258.318 39.1475C258.948 39.1592 259.631 39.165 260.366 39.165C261.661 39.165 262.699 38.8908 263.481 38.3425C264.274 37.7942 264.875 37.0708 265.283 36.1725C265.691 35.2742 265.966 34.2883 266.106 33.215C266.246 32.1417 266.316 31.0858 266.316 30.0475Z" fill="#4C5CEF"/>
<defs>
<clipPath id="clip0_1_19">
<rect width="45" height="45" fill="white" transform="translate(6 8)"/>
</clipPath>
</defs>
</svg>
