<svg width="24" height="30" viewBox="0 0 24 30" fill="none" xmlns="http://www.w3.org/2000/svg">
<path d="M12 0C5.78672 0 0.75 5.03672 0.75 11.25C0.75 13.9116 1.92281 16.252 3.22078 18.2812L11.235 29.6044C11.4108 29.8528 11.6962 30 12 30C12.3038 30 12.5892 29.8528 12.765 29.6044L20.7792 18.2812C22.0195 16.6116 23.25 13.9116 23.25 11.25C23.25 5.03672 18.2133 0 12 0ZM12 17.8125C8.37563 17.8125 5.4375 14.8744 5.4375 11.25C5.4375 7.62563 8.37563 4.6875 12 4.6875C15.6244 4.6875 18.5625 7.62563 18.5625 11.25C18.5625 14.8744 15.6244 17.8125 12 17.8125Z" fill="white"/>
<path d="M12 5.625C8.89359 5.625 6.375 8.14359 6.375 11.25C6.375 14.3564 8.89359 16.875 12 16.875C15.1064 16.875 17.625 14.3564 17.625 11.25C17.625 8.14359 15.1064 5.625 12 5.625ZM12 15.9375C9.41109 15.9375 7.3125 13.8384 7.3125 11.25C7.3125 8.66156 9.41109 6.5625 12 6.5625C14.5889 6.5625 16.6875 8.66156 16.6875 11.25C16.6875 13.8384 14.5889 15.9375 12 15.9375Z" fill="white"/>
</svg>
