<svg width="16" height="30" viewBox="0 0 16 30" fill="none" xmlns="http://www.w3.org/2000/svg">
<path d="M7.33242 0.0999641C6.00211 0.222464 4.74914 0.649963 3.65859 1.35496C3.20742 1.64496 2.93414 1.85496 2.57836 2.18746C2.08078 2.64996 1.67601 3.12496 1.34601 3.63496C0.123982 5.51996 -0.175081 7.82997 0.53906 9.92496C0.606091 10.125 1.16039 11.615 1.7714 13.2375C6.64922 26.2025 8.04656 29.9125 8.05172 29.9175C8.05687 29.9225 8.57765 28.55 9.20929 26.87C9.84093 25.1875 11.5038 20.77 12.9037 17.05C14.3011 13.33 15.4922 10.1575 15.5489 9.99997C16.3945 7.59247 15.8918 4.90996 14.2186 2.89996C13.9608 2.58746 13.4116 2.05996 13.0687 1.79246C11.9318 0.904964 10.6556 0.362463 9.18867 0.147463C8.7839 0.0899639 7.74492 0.0624638 7.33242 0.0999641ZM8.61633 3.63746C9.59859 3.80496 10.4752 4.42246 10.9392 5.27246C11.3466 6.02496 11.4291 6.93746 11.1584 7.73746C10.7639 8.89997 9.70429 9.74747 8.44875 9.89997C7.6882 9.99247 6.88383 9.80496 6.22898 9.38246C5.98406 9.22496 5.58703 8.84996 5.40398 8.60746C4.79039 7.77996 4.62797 6.72496 4.96054 5.75746C5.12812 5.26996 5.37047 4.88996 5.74687 4.52496C6.22125 4.06246 6.82453 3.75496 7.48195 3.63746C7.74492 3.59246 8.34047 3.59246 8.61633 3.63746Z" fill="black"/>
</svg>
