<svg width="60" height="60" viewBox="0 0 60 60" fill="none" xmlns="http://www.w3.org/2000/svg">
<circle cx="30" cy="30" r="30" fill="#FFC9E3"/>
<g clip-path="url(#clip0_1169_88)">
<path d="M30.9671 16.4404H29.033C27.9995 16.4404 27.1616 17.2783 27.1616 18.3118V18.4906H32.8384V18.3117C32.8384 17.2783 32.0006 16.4404 30.9671 16.4404Z" fill="#FFBB33"/>
<path d="M31.252 41.8799H28.749V45.5596H31.252V41.8799Z" fill="#CCCCCC"/>
<path d="M31.252 41.8799H28.749V43.3472H31.252V41.8799Z" fill="#AFAFAF"/>
<path d="M30 18.4902H32.8331V20.3102C32.8331 20.7497 33.1039 21.1437 33.5143 21.3012L36.5545 22.4681C37.8986 23.0131 38.3736 24.6336 37.5189 25.7787C36.2437 27.4869 35.2387 28.9693 34.8917 30.7755C34.3389 33.6533 35.8087 33.8545 37.2599 37.0079C37.8854 38.367 37.9292 39.7719 37.8531 40.7216C37.8008 41.3755 37.2396 41.88 36.5642 41.88H29.628H30.3719H23.4357C22.7603 41.88 22.1991 41.3754 22.1468 40.7216C22.0707 39.7718 22.1145 38.367 22.74 37.0079C24.1912 33.8545 25.661 33.6532 25.1082 30.7755C24.7612 28.9693 23.7562 27.4869 22.481 25.7787C21.6263 24.6336 22.1014 23.013 23.4454 22.4681L26.4856 21.3012C26.896 21.1437 27.1668 20.7497 27.1668 20.3102V18.4902H30Z" fill="#F94A46"/>
<path d="M30.9673 16.4404H29.5C30.5335 16.4404 31.3714 17.2783 31.3714 18.3118V18.4906H32.8387V18.3117C32.8387 17.2783 32.0008 16.4404 30.9673 16.4404Z" fill="#F2A620"/>
<path d="M34.8921 30.7755C35.2391 28.9693 36.2441 27.4869 37.5193 25.7787C38.374 24.6336 37.899 23.013 36.5549 22.4681L33.5147 21.3012C33.1043 21.1437 32.8335 20.7497 32.8335 20.3102V18.4902H31.3662V20.3102C31.3662 20.7497 31.4778 21.6286 32.0578 21.9142L35.0981 23.0811C36.4421 23.626 36.9067 24.6336 36.0519 25.7787C34.7768 27.4869 33.7717 28.9693 33.4247 30.7755C32.8719 33.6533 34.3418 33.8545 35.7929 37.0079C36.4184 38.3671 36.4622 39.7719 36.3862 40.7216C36.3339 41.3755 35.7726 41.88 35.0972 41.88H36.5645C37.24 41.88 37.8012 41.3754 37.8535 40.7216C37.9295 39.7718 37.8857 38.367 37.2602 37.0079C35.8091 33.8545 34.3393 33.6532 34.8921 30.7755Z" fill="#C43B3B"/>
<path d="M25.4579 22.1363C25.5104 22.1363 25.5637 22.1269 25.6156 22.1069L26.6436 21.7124C27.22 21.4912 27.6073 20.9277 27.6073 20.3104V18.9306H30.0002H32.3932V20.3104C32.3932 20.9279 32.7804 21.4912 33.3568 21.7124L36.393 22.8777C36.9142 23.0902 37.2974 23.5143 37.4445 24.0415C37.5867 24.551 37.4853 25.0881 37.1663 25.5155C36.64 26.2206 36.0905 26.9782 35.6382 27.74C35.5141 27.949 35.5829 28.2191 35.792 28.3432C35.8625 28.385 35.9399 28.405 36.0163 28.405C36.1665 28.405 36.313 28.328 36.3952 28.1895C36.8267 27.4628 37.3599 26.728 37.8718 26.0421C38.3553 25.3944 38.5086 24.5789 38.2925 23.8047C38.071 23.0114 37.4979 22.3756 36.7202 22.0602C36.7176 22.0592 36.7151 22.0582 36.7125 22.0572L33.6723 20.8904C33.4338 20.7988 33.2737 20.5658 33.2737 20.3103V18.5547C33.2768 18.5337 33.2789 18.5123 33.2789 18.4904V18.3116C33.2788 17.037 32.2418 16 30.9672 16H29.0332C27.7586 16 26.7216 17.037 26.7216 18.3116V18.4904C26.7216 18.5124 26.7238 18.5339 26.7269 18.5551V20.3103C26.7269 20.5658 26.5667 20.7988 26.3282 20.8904L25.3002 21.285C25.0732 21.3721 24.9598 21.6267 25.047 21.8536C25.1141 22.0288 25.281 22.1363 25.4579 22.1363ZM29.0332 16.8804H30.9672C31.6671 16.8804 32.2513 17.3855 32.3745 18.0503H30.0002H27.6259C27.7491 17.3855 28.3333 16.8804 29.0332 16.8804Z" fill="black"/>
<path d="M24.676 30.8585C25.003 32.5609 24.5773 33.1836 23.8046 34.3141C23.4872 34.7784 23.1274 35.3048 22.7513 36.0006C22.6357 36.2144 22.7153 36.4815 22.9292 36.5971C22.9958 36.6331 23.0674 36.6501 23.1381 36.6501C23.2946 36.6501 23.4461 36.5665 23.5257 36.4192C23.8801 35.7637 24.2261 35.2575 24.5315 34.8109C25.3473 33.6173 25.9368 32.7549 25.5406 30.6924C25.1696 28.7611 24.0953 27.2052 22.8339 25.5153C22.5149 25.0879 22.4136 24.5507 22.5557 24.0413C22.7029 23.514 23.0861 23.09 23.6072 22.8775L23.9707 22.738C24.1977 22.6509 24.3111 22.3963 24.224 22.1693C24.1369 21.9423 23.8823 21.8289 23.6553 21.9161L23.2877 22.0571C23.2851 22.0581 23.2826 22.0591 23.28 22.0602C22.5022 22.3755 21.9291 23.0113 21.7076 23.8046C21.4915 24.5788 21.6448 25.3944 22.1283 26.042C23.3236 27.6432 24.3403 29.1108 24.676 30.8585Z" fill="black"/>
<path d="M36.1956 34.3142C35.4229 33.1837 34.9973 32.561 35.3242 30.8586C35.397 30.4798 35.5004 30.1128 35.6403 29.7364C35.725 29.5084 35.609 29.2551 35.3812 29.1703C35.1532 29.0856 34.8999 29.2016 34.8152 29.4295C34.6579 29.8521 34.5417 30.2653 34.4597 30.6925C34.0635 32.7551 34.653 33.6174 35.4688 34.811C35.893 35.4316 36.3739 36.1351 36.8603 37.1919C37.4475 38.468 37.4858 39.7966 37.4146 40.6865C37.3808 41.1089 37.0073 41.4398 36.5645 41.4398H31.2516H28.7486H23.4357C22.9928 41.4398 22.6194 41.1089 22.5856 40.6865C22.5321 40.0192 22.5347 39.0042 22.8503 37.9588C22.9205 37.7261 22.7888 37.4804 22.5561 37.4102C22.3232 37.3397 22.0777 37.4716 22.0074 37.7044C21.6522 38.8812 21.6485 40.0138 21.7079 40.7568C21.7781 41.6334 22.537 42.3202 23.4357 42.3202H28.3084V45.5596C28.3084 45.8028 28.5055 45.9999 28.7486 45.9999H31.2515C31.4946 45.9999 31.6918 45.8028 31.6918 45.5596V42.3202H36.5644C37.4631 42.3202 38.222 41.6334 38.2922 40.7568C38.3717 39.7623 38.3267 38.2727 37.66 36.8238C37.1426 35.6996 36.6176 34.9315 36.1956 34.3142ZM30.8114 45.1195H29.1889V42.3202H30.8114V45.1195Z" fill="black"/>
</g>
<defs>
<clipPath id="clip0_1169_88">
<rect width="30" height="30" fill="white" transform="translate(15 16)"/>
</clipPath>
</defs>
</svg>
