<svg width="60" height="60" viewBox="0 0 60 60" fill="none" xmlns="http://www.w3.org/2000/svg">
<circle cx="30" cy="30" r="30" fill="#FFEFC7"/>
<g clip-path="url(#clip0_1169_87)">
<path d="M44.5605 30C44.5605 38.0416 38.0416 44.5605 30 44.5605C21.9584 44.5605 15.4395 38.0416 15.4395 30C15.4395 21.9584 21.9584 15.4395 30 15.4395C38.0416 15.4395 44.5605 21.9584 44.5605 30Z" fill="#E5A854"/>
<path d="M44.5607 30C44.5607 38.0416 38.0418 44.5605 30.0002 44.5605C29.7905 44.5605 29.5821 44.5551 29.3745 44.5463C37.1258 44.2185 43.3095 37.8319 43.3095 30C43.3095 22.1681 37.1258 15.7815 29.3745 15.4537C29.5821 15.4449 29.7905 15.4395 30.0002 15.4395C38.0418 15.4395 44.5607 21.9584 44.5607 30Z" fill="#D99850"/>
<path d="M42.2853 30.0003C42.2853 36.7854 36.7849 42.2858 29.9998 42.2858C23.2147 42.2858 17.7144 36.7854 17.7144 30.0003C17.7144 23.2152 23.2147 17.7148 29.9998 17.7148C36.7849 17.7148 42.2853 23.2152 42.2853 30.0003Z" fill="#FBCA5C"/>
<path d="M31.9908 26.587C31.9908 25.8017 32.6274 25.165 33.4128 25.165C34.1981 25.165 34.8347 25.8017 34.8347 26.587C34.8347 27.3723 34.1981 28.0089 33.4128 28.0089C32.6274 28.0089 31.9908 27.3723 31.9908 26.587ZM26.5875 31.9903C25.8021 31.9903 25.1655 32.627 25.1655 33.4123C25.1655 34.1976 25.8021 34.8342 26.5875 34.8342C27.3728 34.8342 28.0094 34.1976 28.0094 33.4123C28.0094 32.627 27.3728 31.9903 26.5875 31.9903ZM26.5875 25.165C25.8021 25.165 25.1655 25.8017 25.1655 26.587C25.1655 27.3723 25.8021 28.0089 26.5875 28.0089C27.3728 28.0089 28.0094 27.3723 28.0094 26.587C28.0094 25.8017 27.3728 25.165 26.5875 25.165ZM33.4127 31.9903C32.6274 31.9903 31.9908 32.627 31.9908 33.4123C31.9908 34.1976 32.6274 34.8342 33.4127 34.8342C34.198 34.8342 34.8347 34.1976 34.8347 33.4123C34.8347 32.627 34.198 31.9903 33.4127 31.9903Z" fill="white"/>
<path d="M26.5874 24.726C25.561 24.726 24.726 25.561 24.726 26.5874C24.726 27.6138 25.561 28.4488 26.5874 28.4488C27.4624 28.4488 28.1984 27.8419 28.3964 27.0268H31.6037C31.8017 27.8418 32.5376 28.4488 33.4127 28.4488C34.4391 28.4488 35.2741 27.6138 35.2741 26.5874C35.2741 25.561 34.4391 24.726 33.4127 24.726C32.5376 24.726 31.8017 25.3329 31.6037 26.1479H28.3964C28.1983 25.3329 27.4624 24.726 26.5874 24.726ZM26.5874 27.0268H27.466C27.3044 27.3486 26.9713 27.5699 26.5874 27.5699C26.0456 27.5699 25.6049 27.1292 25.6049 26.5874C25.6049 26.0456 26.0456 25.6049 26.5874 25.6049C26.9713 25.6049 27.3044 25.8261 27.466 26.1479H26.5874C26.3447 26.1479 26.1479 26.3446 26.1479 26.5874C26.1479 26.8301 26.3447 27.0268 26.5874 27.0268ZM33.4126 26.1479H32.534C32.6956 25.8262 33.0287 25.6049 33.4126 25.6049C33.9544 25.6049 34.3951 26.0456 34.3951 26.5874C34.3951 27.1292 33.9544 27.5699 33.4126 27.5699C33.0287 27.5699 32.6956 27.3486 32.534 27.0268H33.4126C33.6553 27.0268 33.8521 26.8301 33.8521 26.5874C33.8521 26.3446 33.6553 26.1479 33.4126 26.1479ZM20.8195 38.8116C20.6514 38.6365 20.6571 38.3583 20.8322 38.1902C21.0073 38.0221 21.2855 38.0278 21.4535 38.2029C23.709 40.5523 26.7442 41.8461 29.9999 41.8461C36.5319 41.8461 41.846 36.532 41.846 30.0001C41.846 23.4681 36.5319 18.154 30 18.154C23.4681 18.154 18.154 23.4681 18.154 30C18.154 32.467 18.9047 34.8312 20.3251 36.8372C20.4654 37.0353 20.4185 37.3096 20.2204 37.4498C20.0223 37.5899 19.748 37.5431 19.6078 37.3451C18.0817 35.1898 17.2751 32.6499 17.2751 30C17.2751 26.601 18.5987 23.4055 21.0021 21.0022C23.4056 18.5987 26.601 17.2751 30 17.2751C33.399 17.2751 36.5944 18.5987 38.9979 21.0021C41.4013 23.4055 42.7249 26.601 42.7249 29.9999C42.7249 33.3988 41.4013 36.5944 38.9979 38.9978C36.5944 41.4012 33.399 42.7248 30 42.7248C28.2365 42.7248 26.5291 42.3707 24.9251 41.6724C23.3759 40.9981 21.9946 40.0355 20.8195 38.8116ZM45 30C45 34.0066 43.4397 37.7735 40.6066 40.6066C37.7735 43.4397 34.0066 45 30 45C25.9934 45 22.2265 43.4397 19.3934 40.6066C16.5603 37.7735 15 34.0066 15 30C15 25.9934 16.5603 22.2265 19.3934 19.3934C22.2265 16.5603 25.9934 15 30 15C33.103 15 36.0807 15.9393 38.6111 17.7164C38.8097 17.8559 38.8576 18.13 38.7181 18.3286C38.5786 18.5272 38.3046 18.5751 38.1059 18.4356C35.7243 16.763 32.9212 15.8789 30 15.8789C22.2136 15.8789 15.8789 22.2136 15.8789 30C15.8789 37.7864 22.2136 44.1211 30 44.1211C37.7864 44.1211 44.1211 37.7864 44.1211 30C44.1211 26.0157 42.425 22.197 39.4678 19.5229C39.2878 19.3601 39.2738 19.0822 39.4366 18.9022C39.5994 18.7221 39.8772 18.7081 40.0573 18.871C41.5977 20.2639 42.8121 21.9253 43.6667 23.809C44.5514 25.759 45 27.842 45 30ZM26.5874 35.274C27.4624 35.274 28.1984 34.6671 28.3964 33.8521H31.6037C31.8017 34.6671 32.5376 35.274 33.4127 35.274C34.4391 35.274 35.2741 34.439 35.2741 33.4126C35.2741 32.3862 34.4391 31.5512 33.4127 31.5512C32.5376 31.5512 31.8017 32.1581 31.6037 32.9732H28.3964C28.1984 32.1582 27.4624 31.5512 26.5874 31.5512C25.561 31.5512 24.726 32.3862 24.726 33.4126C24.726 34.439 25.561 35.274 26.5874 35.274ZM33.4126 32.9732H32.534C32.6956 32.6514 33.0287 32.4301 33.4126 32.4301C33.9544 32.4301 34.3951 32.8708 34.3951 33.4126C34.3951 33.9544 33.9544 34.3951 33.4126 34.3951C33.0287 34.3951 32.6956 34.1739 32.534 33.8521H33.4126C33.6553 33.8521 33.8521 33.6554 33.8521 33.4126C33.8521 33.1699 33.6553 32.9732 33.4126 32.9732ZM26.5874 32.4302C26.9713 32.4302 27.3044 32.6514 27.466 32.9732H26.5874C26.3447 32.9732 26.1479 33.1699 26.1479 33.4127C26.1479 33.6554 26.3447 33.8521 26.5874 33.8521H27.466C27.3044 34.1739 26.9713 34.3952 26.5874 34.3952C26.0456 34.3952 25.6049 33.9545 25.6049 33.4127C25.6049 32.8709 26.0456 32.4302 26.5874 32.4302Z" fill="black"/>
</g>
<defs>
<clipPath id="clip0_1169_87">
<rect width="30" height="30" fill="white" transform="translate(15 15)"/>
</clipPath>
</defs>
</svg>
