<svg width="273" height="70" viewBox="0 0 273 70" fill="none" xmlns="http://www.w3.org/2000/svg">
<path d="M2 2C7.40401 9.80579 13.2454 17.3372 20.3942 23.6577C28.3198 30.6649 34.7141 32.3585 44.9296 31.49C58.768 30.3135 74.1186 28.3929 87.2659 34.1601C97.2888 38.5568 101.906 49.2006 107.855 57.5979C110.444 61.2514 115.118 68.0908 120.553 67.5663C123.669 67.2657 126.55 64.3169 128.386 62.2854C135.204 54.7422 140.668 45.9878 147.284 38.2543C151.063 33.837 160.82 19.9098 168.616 23.717C177.296 27.9563 182.621 38.4061 188.819 45.3153C194.18 51.2908 200.704 57.1478 208.697 59.1703C220.299 62.1057 230.651 54.4608 238.395 46.68C246.032 39.0071 252.121 29.8871 258.866 21.4622C261.164 18.5909 263.541 15.7295 265.986 12.9772C266.961 11.88 270.246 9.8696 268.804 9.59501C266.129 9.08532 262.711 9.91359 259.993 9.9807C258.771 10.0109 254.745 10.2158 258.391 9.89169C260.342 9.71829 262.834 9.05533 264.77 9.62468C268.506 10.7235 269.429 17.1936 270.614 20.1568" stroke="#DA435F" stroke-width="3" stroke-linecap="round" stroke-dasharray="6 6"/>
</svg>
