<svg width="272" height="70" viewBox="0 0 272 70" fill="none" xmlns="http://www.w3.org/2000/svg">
<path d="M1.81592 1.92383C7.21993 9.72962 13.0613 17.261 20.2101 23.5815C28.1357 30.5887 34.53 32.2824 44.7455 31.4138C58.584 30.2373 73.9345 28.3167 87.0818 34.084C97.1047 38.4806 101.722 49.1245 107.671 57.5217C110.26 61.1752 114.934 68.0146 120.369 67.4901C123.485 67.1895 126.366 64.2407 128.202 62.2092C135.02 54.666 140.484 45.9117 147.1 38.1781C150.879 33.7608 160.636 19.8337 168.431 23.6408C177.112 27.8801 182.437 38.33 188.635 45.2391C193.996 51.2146 200.52 57.0717 208.513 59.0941C220.115 62.0295 230.467 54.3846 238.211 46.6039C245.847 38.9309 251.937 29.811 258.682 21.386C260.98 18.5147 263.357 15.6533 265.802 12.901C266.777 11.8038 270.062 9.79343 268.62 9.51884C265.945 9.00915 262.527 9.83741 259.809 9.90452C258.587 9.93469 254.561 10.1396 258.207 9.81552C260.158 9.64212 262.65 8.97916 264.586 9.54851C268.322 10.6474 269.245 17.1174 270.43 20.0807" stroke="#88BFA2" stroke-width="3" stroke-linecap="round" stroke-dasharray="6 6"/>
</svg>
