<svg width="249" height="76" viewBox="0 0 249 76" fill="none" xmlns="http://www.w3.org/2000/svg">
<path d="M1.57593 74.2563C7.88254 64.258 16.7158 54.7404 26.5436 48.1771C41.2227 38.3737 59.6919 36.5092 76.5358 33.0426C94.6391 29.3168 113.274 22.9789 127.868 11.2102C135.109 5.37069 125.404 3.09426 120.229 2.43158C114.372 1.68164 102.334 1.29078 98.6533 7.3909C94.8402 13.7097 106.049 23.1622 110.082 26.1166C119.854 33.275 131.939 32.3451 143.23 30.0784C157.481 27.2175 171.103 21.9144 185.641 20.3307C195.567 19.2494 205.985 19.8242 214.684 25.2046C223.127 30.4264 230.681 38.7692 235.519 47.4075C238.146 52.0963 240.032 57.5122 241.761 62.599C242.133 63.6935 242.189 64.6334 242.189 65.7627C242.189 68.1862 237.65 64.8606 236.716 64.3091C235.909 63.8319 238.311 65.3035 239.053 65.8767C239.749 66.4134 242.449 69.3325 243.642 68.5274C245.955 66.9665 246.657 59.9662 247.319 57.8392" stroke="#88BFA2" stroke-width="3" stroke-linecap="round" stroke-dasharray="6 6"/>
</svg>
