<svg width="288" height="302" viewBox="0 0 288 302" fill="none" xmlns="http://www.w3.org/2000/svg">
<g clip-path="url(#clip0_0_1)">
<path d="M172.421 74.5054L131.609 68.9015C128.72 68.681 125.592 69.9117 123.651 72.1375L26.5647 183.426C24.0682 186.287 24.2211 190.821 26.8896 193.06L81.7424 239.077C84.7074 241.565 89.002 240.762 91.4985 237.9L188.584 126.612C190.526 124.386 191.282 121.166 190.612 118.401L178.648 79.729C177.979 76.9647 175.607 74.9748 172.421 74.5054ZM164.692 101.612C161.641 105.11 156.476 105.733 153.215 102.997C149.953 100.261 149.781 95.1603 152.832 91.6627C155.884 88.1651 161.049 87.5421 164.31 90.2782C167.572 93.0144 167.744 98.1148 164.692 101.612Z" fill="#E16969"/>
<path d="M65.238 188.537L70.8715 193.264L79.7479 183.089L83.0095 185.825L74.133 196L82.7316 203.213L79.4029 207.029L58.3513 189.368L71.3886 174.424L74.6501 177.16L64.9415 188.289L65.238 188.537Z" fill="white"/>
<path d="M98.1992 157.818C101.757 160.803 102.446 164.134 100.561 168.06L113.541 168.486L109.38 173.256L97.5484 172.691L93.1102 177.779L100.226 183.748L96.8975 187.564L75.8459 169.903L83.058 161.636C86.1093 158.139 88.9214 156.092 90.9205 155.567C93.4934 154.972 95.8272 155.828 98.1992 157.818ZM96.726 165.393C96.6878 164.26 96.3531 162.878 94.8706 161.634C93.3881 160.39 92.2212 159.962 90.796 160.418C89.3708 160.875 87.9648 161.898 86.3004 163.806L82.1396 168.575L89.5522 174.794L93.713 170.024C95.6738 168.365 96.7642 166.527 96.726 165.393Z" fill="white"/>
<path d="M109.965 130.793L113.226 133.529L102.685 145.612L108.319 150.338L117.75 139.527L121.012 142.263L111.58 153.074L117.214 157.8L128.032 145.4L131.294 148.136L117.147 164.352L96.0952 146.691L109.965 130.793Z" fill="white"/>
<path d="M128.55 109.489L131.811 112.226L121.27 124.308L126.904 129.034L136.335 118.224L139.597 120.96L130.165 131.771L135.799 136.497L146.617 124.096L149.879 126.832L135.732 143.048L114.68 125.388L128.55 109.489Z" fill="white"/>
</g>
<path d="M262.477 11.9086C262.02 10.9029 261.409 9.56211 260.508 8.74798C257.638 4.77325 253.147 1.89973 247.492 1.13306C238.415 -0.16066 226.277 3.47752 217.148 10.2285C209.792 16.2135 204.39 24.162 203.299 32.2545C202.332 38.2879 203.152 44.7525 206.356 51.7919C207.577 54.4736 208.797 57.1553 210.018 59.8369C211.391 62.8538 213.055 65.344 213.833 68.2172C216.593 75.4481 217.871 82.9183 217.819 90.963C217.419 94.7459 217.324 99.1992 213.806 103.126C209.706 108.105 201.435 112.079 193.273 112.796C186.15 113.466 179.595 111.885 174.202 108.198C169.406 104.654 166.078 99.6735 163.346 94.8368C162.583 93.1608 159.603 92.4422 157.539 93.7349C155.322 94.6924 153.868 97.326 155.074 98.8105C158.112 104.318 161.745 109.968 167.442 114.326C174.332 118.972 183.271 121.128 192.472 120.362C203.599 119.166 214.975 113.852 221.124 106.382C225.958 100.684 226.773 94.3158 226.868 89.8625C227.058 80.9559 225.919 72.6237 222.409 64.9139C221.036 61.897 219.663 58.8801 218.29 55.8632C217.069 53.1815 215.557 51.0266 214.78 48.1534C212.034 42.1196 212.057 31.6806 212.057 31.6806C212.057 31.6806 217.11 19.4704 222.554 15.1133C228.885 10.3732 237.614 7.40513 243.865 8.31551C248.327 8.79477 250.587 11.4287 251.946 13.2484C256.175 19.0429 254.793 27.6621 248.796 35.4669C247.48 37.2385 247.509 39.6328 249.602 40.7343C251.695 41.8359 254.508 41.0221 256.267 39.0589C263.732 29.8178 265.987 19.6184 262.477 11.9086Z" fill="#656766"/>
<defs>
<clipPath id="clip0_0_1">
<rect width="210.978" height="193.511" fill="white" transform="matrix(0.657387 -0.753553 0.766109 0.64271 0.3125 177.021)"/>
</clipPath>
</defs>
</svg>
