<svg width="1283" height="418" viewBox="0 0 1283 418" fill="none" xmlns="http://www.w3.org/2000/svg">
<path d="M2 263.216C50.1939 263.216 97.6958 259.272 145.769 256.784C147.898 256.674 161.077 253.985 159.847 260.14C157.268 273.041 147.962 287.553 138.413 296.027C128.987 304.393 55.4457 340.043 69.4799 353.914C84.9856 369.239 119.041 368.42 138.05 368.362C194.207 368.191 261.415 358.232 308.793 324.738C340.209 302.527 352.317 266.297 363.83 230.964C380.211 180.69 395.369 131.93 433.399 93.8455C447.531 79.6933 470.108 59.839 491.07 57.5851C504.15 56.1787 520.821 65.5367 523.675 79.3973C534.097 130.013 491.386 172.486 472.724 214.745C457.952 248.198 455.762 282.97 466.639 318.213C478.814 357.66 509.518 431.512 560.73 413.105C602.569 398.066 644.081 367.78 674.801 335.364C712.726 295.345 729.267 239.364 741.645 186.407C750.839 147.072 753.384 102.318 778.337 68.9573C805.865 32.1524 854.962 6.33766 899.764 2.40223C920.626 0.569651 944.037 4.96483 962.067 16.2912C970.125 21.3532 973.755 25.8968 980.685 32.5105C999.899 50.847 1021.15 66.179 1042.63 81.6344C1096.13 120.152 1150.97 156.64 1204.83 194.61C1230.1 212.424 1263.4 232.094 1276.13 262.564C1278.86 269.112 1285.22 289.306 1276.76 295.095C1273.57 297.278 1256.26 297.171 1264.05 305.163" stroke="#5B5B5B" stroke-opacity="0.08" stroke-width="3" stroke-linecap="round"/>
</svg>
