<svg width="131" height="75" viewBox="0 0 131 75" fill="none" xmlns="http://www.w3.org/2000/svg">
<rect width="131" height="75" fill="url(#paint0_radial_690_112)"/>
<path d="M39.1328 57.9759L38.5178 58.7644L38.5209 58.7668L39.1328 57.9759ZM33.9553 50.3267L33.0132 50.662L33.0136 50.6633L33.9553 50.3267ZM33.9553 26.1009L33.0144 25.762L33.0136 25.7643L33.9553 26.1009ZM39.1541 18.4304L39.7691 19.2189L39.7698 19.2184L39.1541 18.4304ZM55.4964 18.4304L54.8784 19.2166L54.8839 19.2208L55.4964 18.4304ZM60.6953 26.1009L59.7532 26.4362L59.7549 26.441L60.6953 26.1009ZM60.7166 50.3267L61.6583 50.6633L61.6587 50.662L60.7166 50.3267ZM55.5391 57.9759L56.1509 58.7668L56.154 58.7644L55.5391 57.9759ZM54.7507 51.3068L53.8835 50.8089L53.8835 50.809L54.7507 51.3068ZM56.1783 28.5298L55.2203 28.8167L55.2217 28.8214L56.1783 28.5298ZM52.7266 22.4574L52.0442 23.1884L52.0477 23.1917L52.7266 22.4574ZM39.9425 25.0355L40.81 25.5329L40.811 25.5312L39.9425 25.0355ZM38.4723 47.8125L37.5148 48.1008L37.5148 48.1008L38.4723 47.8125ZM41.9027 53.8423L41.2241 54.5769L41.2276 54.5801L41.9027 53.8423ZM47.3359 59.5966C44.3182 59.5966 41.8064 58.7798 39.7447 57.1849L38.5209 58.7668C40.9763 60.6662 43.9332 61.5966 47.3359 61.5966V59.5966ZM39.7478 57.1873C37.6708 55.5675 36.0414 53.192 34.8969 49.9901L33.0136 50.6633C34.2555 54.1375 36.0778 56.8615 38.5178 58.7644L39.7478 57.1873ZM34.8974 49.9914C33.7529 46.7759 33.1655 42.8476 33.1655 38.1818H31.1655C31.1655 43.0047 31.7713 47.1729 33.0132 50.662L34.8974 49.9914ZM33.1655 38.1818C33.1655 33.545 33.7527 29.6384 34.8969 26.4374L33.0136 25.7643C31.7714 29.2394 31.1655 33.3868 31.1655 38.1818H33.1655ZM34.8961 26.4397C36.0551 23.2218 37.692 20.8388 39.7691 19.2189L38.5391 17.6418C36.0992 19.5447 34.2702 22.2753 33.0144 25.762L34.8961 26.4397ZM39.7698 19.2184C41.8484 17.5945 44.3528 16.767 47.3359 16.767V14.767C43.9554 14.767 41.0053 15.7151 38.5385 17.6424L39.7698 19.2184ZM47.3359 16.767C50.3191 16.767 52.8152 17.5945 54.8784 19.2165L56.1145 17.6442C53.6607 15.7151 50.7164 14.767 47.3359 14.767V16.767ZM54.8839 19.2208C56.9732 20.8401 58.6089 23.2212 59.7532 26.4362L61.6374 25.7655C60.3954 22.276 58.5651 19.5435 56.109 17.64L54.8839 19.2208ZM59.7549 26.441C60.9123 29.6407 61.5064 33.5461 61.5064 38.1818H63.5064C63.5064 33.3858 62.8931 29.2371 61.6357 25.7607L59.7549 26.441ZM61.5064 38.1818C61.5064 42.8476 60.919 46.7759 59.7745 49.9914L61.6587 50.662C62.9006 47.1729 63.5064 43.0047 63.5064 38.1818H61.5064ZM59.775 49.9901C58.6304 53.192 57.0011 55.5675 54.9241 57.1873L56.154 58.7644C58.5941 56.8615 60.4164 54.1375 61.6583 50.6633L59.775 49.9901ZM54.9272 57.1849C52.8655 58.7798 50.3537 59.5966 47.3359 59.5966V61.5966C50.7387 61.5966 53.6956 60.6662 56.1509 58.7668L54.9272 57.1849ZM47.3359 56.9091C50.9219 56.9091 53.7024 55.1414 55.618 51.8047L53.8835 50.809C52.2763 53.6086 50.1136 54.9091 47.3359 54.9091V56.9091ZM55.618 51.8047C57.5039 48.5195 58.3928 43.943 58.3928 38.1818H56.3928C56.3928 43.7842 55.5203 47.9577 53.8835 50.8089L55.618 51.8047ZM58.3928 38.1818C58.3928 34.3376 57.9815 31.0161 57.1348 28.2383L55.2217 28.8214C55.9943 31.356 56.3928 34.4692 56.3928 38.1818H58.3928ZM57.1362 28.2429C56.3069 25.4735 55.0809 23.2721 53.4054 21.7231L52.0477 23.1917C53.3836 24.4267 54.4588 26.2737 55.2203 28.8167L57.1362 28.2429ZM53.4089 21.7263C51.7261 20.1557 49.683 19.3693 47.3359 19.3693V21.3693C49.1935 21.3693 50.7441 21.975 52.0442 23.1884L53.4089 21.7263ZM47.3359 19.3693C43.7684 19.3693 40.9984 21.1682 39.074 24.5398L40.811 25.5312C42.4377 22.6812 44.5967 21.3693 47.3359 21.3693V19.3693ZM39.075 24.5381C37.1758 27.8502 36.2791 32.4325 36.2791 38.1818H38.2791C38.2791 32.596 39.158 28.414 40.81 25.5329L39.075 24.5381ZM36.2791 38.1818C36.2791 42.0245 36.6829 45.3379 37.5148 48.1008L39.4298 47.5242C38.6708 45.003 38.2791 41.8959 38.2791 38.1818H36.2791ZM37.5148 48.1008C38.3439 50.8548 39.5626 53.0419 41.2241 54.5769L42.5813 53.1078C41.2598 51.887 40.1916 50.0543 39.4298 47.5242L37.5148 48.1008ZM41.2276 54.5801C42.925 56.1334 44.9797 56.9091 47.3359 56.9091V54.9091C45.4592 54.9091 43.8917 54.307 42.5778 53.1046L41.2276 54.5801ZM70.603 60H69.603V61H70.603V60ZM70.603 56.1648L69.8647 55.4903L69.603 55.7768V56.1648H70.603ZM85.0064 40.3977L84.2688 39.7225L84.2681 39.7233L85.0064 40.3977ZM89.1825 35.5824L89.9626 36.2081L89.9658 36.2041L89.1825 35.5824ZM91.6115 31.7045L90.6968 31.3004L90.6946 31.3054L91.6115 31.7045ZM91.3132 23.8849L90.473 24.4273L90.4779 24.4348L91.3132 23.8849ZM88.3303 21.2855L88.7653 20.3851L88.7653 20.3851L88.3303 21.2855ZM79.6797 21.4134L80.1628 22.2889L80.1662 22.287L79.6797 21.4134ZM76.8033 24.2898L75.9277 23.8067L75.9234 23.8145L76.8033 24.2898ZM75.8018 28.6364V29.6364H76.8018V28.6364H75.8018ZM70.7734 28.6364H69.7734V29.6364H70.7734V28.6364ZM72.5419 21.9034L73.3955 22.4244L73.3955 22.4244L72.5419 21.9034ZM77.3572 17.3864L76.8905 16.502L76.8879 16.5033L77.3572 17.3864ZM91.0362 17.3864L91.516 16.5089L91.516 16.5089L91.0362 17.3864ZM95.6811 21.7543L94.8283 22.2765L95.6811 21.7543ZM96.4908 32.5781L95.5559 32.2232L95.5541 32.228L96.4908 32.5781ZM93.5078 37.6705L92.7107 37.0666L92.71 37.0675L93.5078 37.6705ZM87.6484 44.4886L88.3789 45.1716L88.3803 45.1701L87.6484 44.4886ZM77.8473 54.9716L77.1168 54.2886L76.8473 54.5769V54.9716H77.8473ZM77.8473 55.3125H76.8473V56.3125H77.8473V55.3125ZM98.1314 55.3125H99.1314V54.3125H98.1314V55.3125ZM98.1314 60V61H99.1314V60H98.1314ZM71.603 60V56.1648H69.603V60H71.603ZM71.3413 56.8392L85.7447 41.0722L84.2681 39.7233L69.8647 55.4903L71.3413 56.8392ZM85.744 41.0729C87.4434 39.2165 88.8508 37.5942 89.9626 36.2081L88.4025 34.9567C87.3267 36.2979 85.9501 37.8858 84.2688 39.7225L85.744 41.0729ZM89.9658 36.2041C91.0967 34.7795 91.9588 33.4123 92.5284 32.1037L90.6946 31.3054C90.2131 32.4116 89.4559 33.6296 88.3993 34.9606L89.9658 36.2041ZM92.5262 32.1087C93.1222 30.7598 93.4212 29.3438 93.4212 27.8693H91.4212C91.4212 29.0653 91.1804 30.2061 90.6968 31.3004L92.5262 32.1087ZM93.4212 27.8693C93.4212 26.1683 93.0093 24.6428 92.1485 23.3351L90.4779 24.4348C91.0944 25.3714 91.4212 26.5021 91.4212 27.8693H93.4212ZM92.1534 23.3426C91.3241 22.0581 90.186 21.0715 88.7653 20.3851L87.8952 22.1859C89.0029 22.7211 89.8534 23.4675 90.4731 24.4273L92.1534 23.3426ZM88.7653 20.3851C87.3496 19.7011 85.7776 19.3693 84.0689 19.3693V21.3693C85.5136 21.3693 86.7825 21.6483 87.8952 22.1859L88.7653 20.3851ZM84.0689 19.3693C82.2518 19.3693 80.6157 19.7476 79.1932 20.5397L80.1662 22.287C81.2437 21.6871 82.5337 21.3693 84.0689 21.3693V19.3693ZM79.1966 20.5378C77.7956 21.3108 76.7007 22.4056 75.9277 23.8067L77.6788 24.7728C78.2695 23.7023 79.0922 22.8796 80.1628 22.2889L79.1966 20.5378ZM75.9234 23.8145C75.1637 25.2209 74.8018 26.8389 74.8018 28.6364H76.8018C76.8018 27.11 77.1076 25.8303 77.6831 24.7651L75.9234 23.8145ZM75.8018 27.6364H70.7734V29.6364H75.8018V27.6364ZM71.7734 28.6364C71.7734 26.2389 72.3242 24.1797 73.3955 22.4244L71.6883 21.3825C70.4016 23.4908 69.7734 25.9202 69.7734 28.6364H71.7734ZM73.3955 22.4244C74.4795 20.6481 75.9508 19.2663 77.8266 18.2694L76.8879 16.5033C74.7012 17.6655 72.9622 19.2951 71.6883 21.3825L73.3955 22.4244ZM77.824 18.2707C79.7117 17.2745 81.8429 16.767 84.2393 16.767V14.767C81.5505 14.767 79.0937 15.3392 76.8905 16.502L77.824 18.2707ZM84.2393 16.767C86.6516 16.767 88.7482 17.2751 90.5565 18.2638L91.516 16.5089C89.3754 15.3386 86.9407 14.767 84.2393 14.767V16.767ZM90.5565 18.2638C92.3852 19.2637 93.8017 20.6002 94.8283 22.2765L96.5339 21.232C95.3162 19.2435 93.6361 17.6682 91.516 16.5089L90.5565 18.2638ZM94.8283 22.2765C95.8498 23.9445 96.3643 25.8007 96.3643 27.8693H98.3643C98.3643 25.4493 97.7567 23.2288 96.5339 21.232L94.8283 22.2765ZM96.3643 27.8693C96.3643 29.3504 96.0962 30.7999 95.5559 32.2232L97.4257 32.933C98.0501 31.2881 98.3643 29.5984 98.3643 27.8693H96.3643ZM95.5541 32.228C95.0314 33.6262 94.0964 35.2375 92.7107 37.0666L94.3049 38.2743C95.7601 36.3535 96.8138 34.5698 97.4275 32.9283L95.5541 32.228ZM92.71 37.0675C91.3326 38.8902 89.4049 41.1351 86.9166 43.8071L88.3803 45.1701C90.892 42.4728 92.8706 40.1723 94.3056 38.2734L92.71 37.0675ZM86.918 43.8057L77.1168 54.2886L78.5778 55.6545L88.3789 45.1716L86.918 43.8057ZM76.8473 54.9716V55.3125H78.8473V54.9716H76.8473ZM77.8473 56.3125H98.1314V54.3125H77.8473V56.3125ZM97.1314 55.3125V60H99.1314V55.3125H97.1314ZM98.1314 59H70.603V61H98.1314V59Z" fill="#0085FF"/>
<defs>
<radialGradient id="paint0_radial_690_112" cx="0" cy="0" r="1" gradientUnits="userSpaceOnUse" gradientTransform="translate(65 38) rotate(90) scale(48.5 84.7133)">
<stop stop-color="#C4E3FF" stop-opacity="0.74"/>
<stop offset="1" stop-color="#FBFDFF" stop-opacity="0"/>
</radialGradient>
</defs>
</svg>
