<svg width="131" height="75" viewBox="0 0 131 75" fill="none" xmlns="http://www.w3.org/2000/svg">
<rect width="131" height="75" fill="url(#paint0_radial_690_114)"/>
<path d="M38.1953 57.9759L37.5803 58.7644L37.5834 58.7668L38.1953 57.9759ZM33.0178 50.3267L32.0757 50.662L32.0761 50.6633L33.0178 50.3267ZM33.0178 26.1009L32.0769 25.762L32.0761 25.7643L33.0178 26.1009ZM38.2166 18.4304L38.8316 19.2189L38.8323 19.2184L38.2166 18.4304ZM54.5589 18.4304L53.9409 19.2166L53.9464 19.2208L54.5589 18.4304ZM59.7578 26.1009L58.8157 26.4362L58.8174 26.441L59.7578 26.1009ZM59.7791 50.3267L60.7208 50.6633L60.7212 50.662L59.7791 50.3267ZM54.6016 57.9759L55.2134 58.7668L55.2165 58.7644L54.6016 57.9759ZM53.8132 51.3068L52.946 50.8089L52.946 50.809L53.8132 51.3068ZM55.2408 28.5298L54.2828 28.8167L54.2842 28.8214L55.2408 28.5298ZM51.7891 22.4574L51.1067 23.1884L51.1102 23.1917L51.7891 22.4574ZM39.005 25.0355L39.8725 25.5329L39.8735 25.5312L39.005 25.0355ZM37.5348 47.8125L36.5773 48.1008L36.5773 48.1008L37.5348 47.8125ZM40.9652 53.8423L40.2866 54.5769L40.2901 54.5801L40.9652 53.8423ZM46.3984 59.5966C43.3807 59.5966 40.8689 58.7798 38.8072 57.1849L37.5834 58.7668C40.0388 60.6662 42.9957 61.5966 46.3984 61.5966V59.5966ZM38.8103 57.1873C36.7333 55.5675 35.1039 53.192 33.9594 49.9901L32.0761 50.6633C33.318 54.1375 35.1403 56.8615 37.5803 58.7644L38.8103 57.1873ZM33.9599 49.9914C32.8154 46.7759 32.228 42.8476 32.228 38.1818H30.228C30.228 43.0047 30.8338 47.1729 32.0757 50.662L33.9599 49.9914ZM32.228 38.1818C32.228 33.545 32.8152 29.6384 33.9594 26.4374L32.0761 25.7643C30.8339 29.2394 30.228 33.3868 30.228 38.1818H32.228ZM33.9586 26.4397C35.1176 23.2218 36.7545 20.8388 38.8316 19.2189L37.6016 17.6418C35.1617 19.5447 33.3327 22.2753 32.0769 25.762L33.9586 26.4397ZM38.8323 19.2184C40.9109 17.5945 43.4153 16.767 46.3984 16.767V14.767C43.0179 14.767 40.0678 15.7151 37.601 17.6424L38.8323 19.2184ZM46.3984 16.767C49.3816 16.767 51.8777 17.5945 53.9409 19.2165L55.177 17.6442C52.7232 15.7151 49.7789 14.767 46.3984 14.767V16.767ZM53.9464 19.2208C56.0357 20.8401 57.6714 23.2212 58.8157 26.4362L60.6999 25.7655C59.4579 22.276 57.6276 19.5435 55.1715 17.64L53.9464 19.2208ZM58.8174 26.441C59.9748 29.6407 60.5689 33.5461 60.5689 38.1818H62.5689C62.5689 33.3858 61.9556 29.2371 60.6982 25.7607L58.8174 26.441ZM60.5689 38.1818C60.5689 42.8476 59.9815 46.7759 58.837 49.9914L60.7212 50.662C61.9631 47.1729 62.5689 43.0047 62.5689 38.1818H60.5689ZM58.8375 49.9901C57.6929 53.192 56.0636 55.5675 53.9866 57.1873L55.2165 58.7644C57.6566 56.8615 59.4789 54.1375 60.7208 50.6633L58.8375 49.9901ZM53.9897 57.1849C51.928 58.7798 49.4162 59.5966 46.3984 59.5966V61.5966C49.8012 61.5966 52.7581 60.6662 55.2134 58.7668L53.9897 57.1849ZM46.3984 56.9091C49.9844 56.9091 52.7649 55.1414 54.6805 51.8047L52.946 50.809C51.3388 53.6086 49.1761 54.9091 46.3984 54.9091V56.9091ZM54.6805 51.8047C56.5664 48.5195 57.4553 43.943 57.4553 38.1818H55.4553C55.4553 43.7842 54.5828 47.9577 52.946 50.8089L54.6805 51.8047ZM57.4553 38.1818C57.4553 34.3376 57.044 31.0161 56.1973 28.2383L54.2842 28.8214C55.0568 31.356 55.4553 34.4692 55.4553 38.1818H57.4553ZM56.1987 28.2429C55.3694 25.4735 54.1434 23.2721 52.4679 21.7231L51.1102 23.1917C52.4461 24.4267 53.5213 26.2737 54.2828 28.8167L56.1987 28.2429ZM52.4714 21.7263C50.7886 20.1557 48.7455 19.3693 46.3984 19.3693V21.3693C48.256 21.3693 49.8066 21.975 51.1067 23.1884L52.4714 21.7263ZM46.3984 19.3693C42.8309 19.3693 40.0609 21.1682 38.1365 24.5398L39.8735 25.5312C41.5002 22.6812 43.6592 21.3693 46.3984 21.3693V19.3693ZM38.1375 24.5381C36.2383 27.8502 35.3416 32.4325 35.3416 38.1818H37.3416C37.3416 32.596 38.2205 28.414 39.8725 25.5329L38.1375 24.5381ZM35.3416 38.1818C35.3416 42.0245 35.7454 45.3379 36.5773 48.1008L38.4923 47.5242C37.7333 45.003 37.3416 41.8959 37.3416 38.1818H35.3416ZM36.5773 48.1008C37.4064 50.8548 38.6251 53.0419 40.2866 54.5769L41.6438 53.1078C40.3223 51.887 39.2541 50.0543 38.4923 47.5242L36.5773 48.1008ZM40.2901 54.5801C41.9875 56.1334 44.0422 56.9091 46.3984 56.9091V54.9091C44.5217 54.9091 42.9542 54.307 41.6403 53.1046L40.2901 54.5801ZM76.8885 59.1477L76.4846 60.0625L76.4867 60.0635L76.8885 59.1477ZM71.6683 55.1207L70.8636 55.7144L70.8691 55.7218L71.6683 55.1207ZM69.5803 49.0909V48.0909H68.5293L68.5815 49.1405L69.5803 49.0909ZM74.9496 49.0909L75.9463 49.0104L75.872 48.0909H74.9496V49.0909ZM76.3984 52.7344L75.6302 53.3746L75.6346 53.3798L76.3984 52.7344ZM79.7436 55.0781L79.3706 56.0059L79.3706 56.0059L79.7436 55.0781ZM92.7195 52.2017L91.903 51.6242L91.903 51.6242L92.7195 52.2017ZM92.7621 43.9134L91.9212 44.4546L91.9241 44.459L92.7621 43.9134ZM89.2678 41.0156L88.8546 41.9263L88.8546 41.9263L89.2678 41.0156ZM80.1484 39.9716H79.1484V40.9716H80.1484V39.9716ZM80.1484 35.2841V34.2841H79.1484V35.2841H80.1484ZM88.2024 34.3466L87.7747 33.4426L87.771 33.4445L88.2024 34.3466ZM91.2919 31.7045L90.4582 31.1522L90.4535 31.1596L91.2919 31.7045ZM91.4411 23.8423L92.2995 23.3295L92.2995 23.3295L91.4411 23.8423ZM88.6712 21.2855L88.2112 22.1734L88.2155 22.1757L88.6712 21.2855ZM80.2337 21.2003L80.6119 22.126L80.6169 22.1239L80.2337 21.2003ZM76.995 23.5653L77.7685 24.1992L77.7728 24.1939L76.995 23.5653ZM75.6314 27.2727V28.2727H76.5836L76.6302 27.3217L75.6314 27.2727ZM70.5178 27.2727L69.5184 27.2355L69.4798 28.2727H70.5178V27.2727ZM72.5845 21.2642L73.3837 21.8653L73.3861 21.8621L72.5845 21.2642ZM77.6555 17.2159L77.238 16.3072L77.2357 16.3083L77.6555 17.2159ZM91.5263 17.4077L91.0336 18.2779L91.0385 18.2806L91.5263 17.4077ZM95.9794 21.6903L95.1159 22.1946L95.1159 22.1946L95.9794 21.6903ZM95.5959 33.7287L94.7943 33.1308L94.7912 33.135L95.5959 33.7287ZM90.3757 37.3295L90.0855 36.3726L89.3757 36.5878V37.3295H90.3757ZM90.3757 37.6705H89.3757V38.519L90.213 38.6571L90.3757 37.6705ZM96.8317 41.1861L96.0582 41.82L96.0606 41.8228L96.8317 41.1861ZM97.2152 54.5455L96.3899 53.9808L96.389 53.9821L97.2152 54.5455ZM91.9737 58.9773L92.4117 59.8763L92.4117 59.8763L91.9737 58.9773ZM84.4098 59.5966C81.7124 59.5966 79.3456 59.1337 77.2902 58.232L76.4867 60.0635C78.8348 61.0936 81.4822 61.5966 84.4098 61.5966V59.5966ZM77.2924 58.2329C75.2435 57.3282 73.6462 56.087 72.4675 54.5197L70.8691 55.7218C72.2756 57.592 74.1585 59.0354 76.4846 60.0625L77.2924 58.2329ZM72.473 54.5271C71.319 52.9627 70.6835 51.1448 70.579 49.0413L68.5815 49.1405C68.7042 51.6109 69.4609 53.8129 70.8636 55.7144L72.473 54.5271ZM69.5803 50.0909H74.9496V48.0909H69.5803V50.0909ZM73.9528 49.1715C74.082 50.7704 74.6377 52.1836 75.6302 53.3746L77.1667 52.0942C76.4546 51.2397 76.0444 50.224 75.9463 49.0104L73.9528 49.1715ZM75.6346 53.3798C76.6047 54.5278 77.8605 55.3988 79.3706 56.0059L80.1166 54.1503C78.871 53.6495 77.8967 52.958 77.1622 52.0889L75.6346 53.3798ZM79.3706 56.0059C80.8813 56.6133 82.537 56.9091 84.3246 56.9091V54.9091C82.7599 54.9091 81.3616 54.6509 80.1166 54.1503L79.3706 56.0059ZM84.3246 56.9091C86.3162 56.9091 88.1223 56.5618 89.7215 55.8406L88.8993 54.0174C87.6008 54.603 86.083 54.9091 84.3246 54.9091V56.9091ZM89.7215 55.8406C91.3138 55.1225 92.5977 54.1056 93.5359 52.7792L91.903 51.6242C91.1935 52.6274 90.2047 53.4287 88.8993 54.0174L89.7215 55.8406ZM93.5359 52.7792C94.4883 51.4326 94.9553 49.8779 94.9553 48.1534H92.9553C92.9553 49.4971 92.5983 50.6413 91.903 51.6242L93.5359 52.7792ZM94.9553 48.1534C94.9553 46.3749 94.5118 44.7679 93.6001 43.3677L91.9241 44.459C92.6032 45.502 92.9553 46.7217 92.9553 48.1534H94.9553ZM93.6029 43.3721C92.6888 41.952 91.3639 40.8685 89.6809 40.105L88.8546 41.9263C90.2398 42.5548 91.2444 43.4032 91.9212 44.4546L93.6029 43.3721ZM89.6809 40.105C87.983 39.3346 85.9583 38.9716 83.6428 38.9716V40.9716C85.759 40.9716 87.4844 41.3046 88.8546 41.9263L89.6809 40.105ZM83.6428 38.9716H80.1484V40.9716H83.6428V38.9716ZM81.1484 39.9716V35.2841H79.1484V39.9716H81.1484ZM80.1484 36.2841H83.6428V34.2841H80.1484V36.2841ZM83.6428 36.2841C85.4961 36.2841 87.1685 35.9496 88.6339 35.2487L87.771 33.4445C86.6227 33.9936 85.2553 34.2841 83.6428 34.2841V36.2841ZM88.6301 35.2505C90.105 34.5527 91.2828 33.5535 92.1303 32.2495L90.4535 31.1596C89.8237 32.1283 88.9419 32.8905 87.7747 33.4427L88.6301 35.2505ZM92.1256 32.2568C93.0002 30.9367 93.4212 29.4039 93.4212 27.6989H91.4212C91.4212 29.062 91.0893 30.1997 90.4583 31.1523L92.1256 32.2568ZM93.4212 27.6989C93.4212 26.0702 93.0595 24.6016 92.2995 23.3295L90.5826 24.3552C91.1294 25.2706 91.4212 26.373 91.4212 27.6989H93.4212ZM92.2995 23.3295C91.5448 22.0661 90.4779 21.087 89.1268 20.3954L88.2155 22.1757C89.2508 22.7056 90.0305 23.4311 90.5826 24.3552L92.2995 23.3295ZM89.1312 20.3976C87.7833 19.6993 86.2271 19.3693 84.495 19.3693V21.3693C85.9731 21.3693 87.2011 21.6501 88.2112 22.1734L89.1312 20.3976ZM84.495 19.3693C82.8634 19.3693 81.3122 19.6702 79.8504 20.2766L80.6169 22.1239C81.8256 21.6225 83.1153 21.3693 84.495 21.3693V19.3693ZM79.8554 20.2746C78.3896 20.8735 77.1688 21.7595 76.2173 22.9368L77.7728 24.1939C78.4974 23.2973 79.4357 22.6066 80.6119 22.126L79.8554 20.2746ZM76.2216 22.9315C75.2344 24.1362 74.713 25.5828 74.6326 27.2238L76.6302 27.3217C76.6918 26.065 77.0796 25.0399 77.7685 24.1992L76.2216 22.9315ZM75.6314 26.2727H70.5178V28.2727H75.6314V26.2727ZM71.5171 27.31C71.5952 25.2132 72.2218 23.4102 73.3837 21.8653L71.7853 20.6631C70.362 22.5557 69.6108 24.7584 69.5184 27.2355L71.5171 27.31ZM73.3861 21.8621C74.5728 20.2711 76.1284 19.0242 78.0754 18.1235L77.2357 16.3083C75.0066 17.3395 73.1814 18.7914 71.7829 20.6663L73.3861 21.8621ZM78.073 18.1246C80.0333 17.2239 82.1975 16.767 84.5803 16.767V14.767C81.9346 14.767 79.4823 15.2761 77.238 16.3072L78.073 18.1246ZM84.5803 16.767C87.1435 16.767 89.2813 17.2858 91.0336 18.2779L92.019 16.5375C89.9076 15.3421 87.4147 14.767 84.5803 14.767V16.767ZM91.0385 18.2806C92.8267 19.2799 94.1759 20.585 95.1159 22.1946L96.8429 21.186C95.7091 19.2445 94.0895 17.6945 92.0141 16.5347L91.0385 18.2806ZM95.1159 22.1946C96.0633 23.8169 96.5348 25.5604 96.5348 27.4432H98.5348C98.5348 25.2066 97.9694 23.1149 96.8429 21.186L95.1159 22.1946ZM96.5348 27.4432C96.5348 29.7159 95.9408 31.5937 94.7943 33.1308L96.3975 34.3266C97.8362 32.3978 98.5348 30.0853 98.5348 27.4432H96.5348ZM94.7912 33.135C93.6496 34.6824 92.096 35.7629 90.0855 36.3726L90.6659 38.2865C93.0588 37.5609 94.9853 36.2409 96.4006 34.3223L94.7912 33.135ZM89.3757 37.3295V37.6705H91.3757V37.3295H89.3757ZM90.213 38.6571C92.7656 39.0782 94.6859 40.1455 96.0582 41.82L97.6051 40.5522C95.8809 38.4483 93.4972 37.1718 90.5385 36.6838L90.213 38.6571ZM96.0606 41.8228C97.4405 43.4939 98.1541 45.5817 98.1541 48.1534H100.154C100.154 45.1853 99.3194 42.6283 97.6028 40.5493L96.0606 41.8228ZM98.1541 48.1534C98.1541 50.3318 97.5644 52.2642 96.3899 53.9808L98.0405 55.1101C99.4512 53.0483 100.154 50.7193 100.154 48.1534H98.1541ZM96.389 53.9821C95.2169 55.7011 93.6091 57.0682 91.5358 58.0783L92.4117 59.8763C94.7701 58.7273 96.6567 57.1398 98.0414 55.1088L96.389 53.9821ZM91.5358 58.0783C89.475 59.0822 87.1071 59.5966 84.4098 59.5966V61.5966C87.366 61.5966 90.0406 61.0314 92.4117 59.8763L91.5358 58.0783Z" fill="#0085FF"/>
<defs>
<radialGradient id="paint0_radial_690_114" cx="0" cy="0" r="1" gradientUnits="userSpaceOnUse" gradientTransform="translate(65 38) rotate(90) scale(48.5 84.7133)">
<stop stop-color="#C4E3FF" stop-opacity="0.74"/>
<stop offset="1" stop-color="#FBFDFF" stop-opacity="0"/>
</radialGradient>
</defs>
</svg>
