<svg width="1317" height="418" viewBox="0 0 1317 418" fill="none" xmlns="http://www.w3.org/2000/svg">
<path d="M1.7926 263.64C51.2774 263.64 100.051 259.695 149.413 257.206C151.598 257.096 165.13 254.406 163.867 260.563C161.22 273.469 151.664 287.987 141.859 296.466C132.181 304.835 56.6698 340.499 71.0799 354.376C87.0009 369.707 121.968 368.888 141.486 368.83C199.148 368.659 268.156 358.696 316.803 325.188C349.06 302.968 361.493 266.723 373.314 231.375C390.134 181.079 405.698 132.299 444.746 94.1989C459.257 80.0408 482.439 60.1782 503.962 57.9233C517.392 56.5164 534.51 65.8783 537.44 79.7446C548.142 130.381 504.286 172.872 485.125 215.149C469.956 248.616 467.708 283.402 478.877 318.66C491.378 358.124 522.904 432.007 575.487 413.592C618.447 398.547 661.071 368.248 692.614 335.818C731.555 295.783 748.539 239.779 761.248 186.8C770.688 147.448 773.302 102.675 798.923 69.3003C827.189 32.48 877.601 6.65441 923.602 2.71734C945.024 0.883993 969.061 5.28102 987.574 16.6121C995.848 21.6763 999.575 26.2218 1006.69 32.8382C1026.42 51.1824 1048.24 66.5208 1070.29 81.9827C1125.23 120.517 1181.53 157.02 1236.84 195.006C1262.79 212.827 1296.98 232.506 1310.04 262.988C1312.85 269.539 1319.39 289.741 1310.7 295.533C1307.42 297.717 1289.65 297.609 1297.64 305.604" stroke="#5B5B5B" stroke-opacity="0.22" stroke-width="3" stroke-linecap="round"/>
</svg>
