<svg width="24" height="22" viewBox="0 0 26 24" fill="none" xmlns="http://www.w3.org/2000/svg">
<path d="M12.5761 20.3476L6.14761 23.6101C5.46748 23.9541 4.68512 23.4026 4.81098 22.6752L6.0377 15.7623C6.08734 15.4754 5.98925 15.1783 5.7777 14.9743L0.571806 10.0815C0.0293522 9.56715 0.329533 8.67111 1.07644 8.56711L8.26424 7.55677C8.56915 7.51906 8.82974 7.33619 8.95797 7.07561L12.179 0.779322C12.5076 0.120434 13.492 0.120434 13.82 0.779322L17.041 7.07561C17.1692 7.33619 17.4298 7.51849 17.7347 7.55677L24.9225 8.56711C25.6694 8.67168 25.969 9.56715 25.4272 10.0815L20.2213 14.9743C20.0097 15.1783 19.9116 15.4754 19.9613 15.7623L21.188 22.6752C21.3139 23.4026 20.5321 23.9541 19.8514 23.6101L13.4229 20.3476C13.1534 20.2105 12.8461 20.2105 12.5761 20.3476Z" fill="#FFE57F"/>
<path d="M20.2847 24C20.0908 24 19.8958 23.9548 19.715 23.8639L13.2859 20.6009C13.101 20.5072 12.8983 20.5072 12.7134 20.6009L6.28486 23.8634C5.86946 24.0731 5.37959 24.0394 5.00378 23.7759C4.62796 23.5125 4.443 23.0731 4.51982 22.6279L5.74655 15.7139C5.78023 15.5207 5.71227 15.3144 5.56927 15.1767L0.36633 10.2868C0.0330582 9.97074 -0.0839415 9.50786 0.0614219 9.0787C0.205013 8.6524 0.577875 8.34838 1.03406 8.28438L8.22127 7.27405C8.43045 7.24776 8.60418 7.12833 8.69104 6.95289L11.9139 0.653173C12.1148 0.25144 12.5314 0 12.9999 0C13.4685 0 13.8851 0.25144 14.0866 0.655458L17.2037 6.74831C17.2758 6.89003 17.2161 7.06089 17.0695 7.13118C16.9242 7.20033 16.7457 7.14376 16.6736 7.00146L13.5554 0.906327C13.3456 0.485165 12.6531 0.487451 12.4451 0.904041L9.22286 7.20262C9.05209 7.55006 8.707 7.79007 8.30163 7.84036L1.11974 8.85012C0.883966 8.88326 0.698421 9.03527 0.623375 9.25642C0.547148 9.481 0.605648 9.71359 0.779375 9.87817L5.98468 14.7698C6.26773 15.0424 6.39595 15.4304 6.33036 15.8099L5.10364 22.7239C5.06346 22.9553 5.15623 23.1765 5.35182 23.3136C5.54741 23.4519 5.79441 23.4674 6.01186 23.3571L12.4398 20.0946C12.7967 19.9141 13.205 19.9141 13.5613 20.0946L19.9898 23.3571C20.2067 23.4674 20.4542 23.4508 20.6492 23.3131C20.8448 23.1759 20.9376 22.9548 20.8974 22.7222L19.6707 15.8104C19.6051 15.4298 19.7333 15.0418 20.014 14.7715L25.2217 9.87702C25.3948 9.71302 25.4533 9.481 25.3771 9.25642C25.3021 9.03527 25.1171 8.88326 24.8813 8.85012L18.0197 7.8855C17.859 7.86265 17.7467 7.71807 17.7697 7.56206C17.7934 7.40548 17.9441 7.29348 18.1048 7.32033L24.9658 8.28495C25.4214 8.34838 25.7943 8.65297 25.9385 9.07927C26.0838 9.50844 25.9674 9.97131 25.6341 10.2862L20.4277 15.1796C20.287 15.315 20.2191 15.5213 20.2527 15.7156L21.4795 22.6273C21.5563 23.0731 21.3707 23.5131 20.9955 23.7765C20.784 23.9245 20.5358 24 20.2847 24Z" fill="#0277BD"/>
<path d="M5.39429 23.0578C5.37775 23.0578 5.36061 23.0566 5.34348 23.0538C5.18334 23.0275 5.0752 22.8795 5.10239 22.724L6.3297 15.8089C6.39529 15.4306 6.26529 15.0408 5.98166 14.7671L0.779894 9.87888C0.605576 9.71372 0.547076 9.48171 0.622121 9.2577C0.698348 9.03484 0.883303 8.8834 1.11907 8.85026L8.29683 7.84107C8.70633 7.79021 9.04965 7.55305 9.22042 7.20675L12.4456 0.901322C12.5183 0.75903 12.6967 0.702456 12.8415 0.771602C12.9875 0.841891 13.0477 1.01276 12.9756 1.15448L9.75224 7.45591C9.49697 7.97479 8.98229 8.33195 8.3772 8.40738L1.20357 9.416L6.39529 14.3602C6.81661 14.7665 7.00865 15.3426 6.91174 15.9043L5.68443 22.8206C5.6602 22.9595 5.53493 23.0578 5.39429 23.0578Z" fill="#FFF8E1"/>
</svg>
