<svg width="15" height="20" viewBox="0 0 15 20" fill="none" xmlns="http://www.w3.org/2000/svg">
<path d="M3.00444 6.62518C3.00444 5.6052 3.22657 4.66521 3.67081 3.80523C4.11506 2.94525 4.72368 2.26526 5.49667 1.76527C6.26966 1.26528 7.10484 1.01028 8.00222 1.00028C8.8996 0.990283 9.73478 1.24528 10.5078 1.76527C11.2808 2.28526 11.8894 2.96525 12.3336 3.80523C12.7779 4.64521 13 5.5852 13 6.62518C13 7.05517 12.9067 7.55516 12.7201 8.12515C12.5335 8.69514 12.2981 9.27013 12.0138 9.85012C11.7295 10.4301 11.4052 11.0201 11.0409 11.6201C10.6766 12.2201 10.3212 12.7801 9.97468 13.3001C9.62817 13.82 9.30386 14.28 9.00178 14.68C8.69969 15.08 8.4598 15.405 8.2821 15.655L8.00222 16C7.93114 15.92 7.83785 15.8 7.72235 15.64C7.60684 15.48 7.37139 15.165 7.01599 14.695C6.6606 14.225 6.33185 13.755 6.02976 13.2851C5.72768 12.8151 5.37672 12.2651 4.9769 11.6351C4.57708 11.0051 4.24833 10.4051 3.99067 9.83512C3.73301 9.26513 3.49756 8.70014 3.28432 8.14015C3.07108 7.58016 2.97779 7.07517 3.00444 6.62518ZM4.67037 6.62518C4.67037 7.66516 4.99467 8.55014 5.64327 9.28013C6.29187 10.0101 7.07819 10.3751 8.00222 10.3751C8.92626 10.3751 9.71257 10.0101 10.3612 9.28013C11.0098 8.55014 11.3341 7.66516 11.3341 6.62518C11.3341 5.5852 11.0098 4.70521 10.3612 3.98523C9.71257 3.26524 8.92626 2.89525 8.00222 2.87525C7.07819 2.85525 6.29187 3.22524 5.64327 3.98523C4.99467 4.74521 4.67037 5.6252 4.67037 6.62518ZM6.3363 6.62518C6.3363 6.11519 6.50067 5.6752 6.82941 5.3052C7.15815 4.93521 7.54909 4.75021 8.00222 4.75021C8.45535 4.75021 8.84629 4.93521 9.17503 5.3052C9.50378 5.6752 9.66815 6.11519 9.66815 6.62518C9.66815 7.13517 9.50378 7.58016 9.17503 7.96015C8.84629 8.34015 8.45535 8.52014 8.00222 8.50014C7.54909 8.48014 7.15815 8.30015 6.82941 7.96015C6.50067 7.62016 6.3363 7.17517 6.3363 6.62518Z" fill="#B7B7B7"/>
</svg>
