<svg width="14" height="14" viewBox="0 0 14 14" fill="none" xmlns="http://www.w3.org/2000/svg">
<path d="M1.85714 4L2.68167 10.4932C2.86537 11.9397 3.81894 13 4.93629 13H9.06371C10.181 13 11.1346 11.9397 11.3183 10.4932L12.1429 4M1.85714 4L4.00342 6.30483C4.53356 6.87408 5.32356 6.70765 5.6913 5.94917L7 3.25M1.85714 4C2.33053 4 2.71429 3.49632 2.71429 2.875C2.71429 2.25368 2.33053 1.75 1.85714 1.75C1.38375 1.75 1 2.25368 1 2.875C1 3.49632 1.38375 4 1.85714 4ZM12.1429 4L9.99657 6.30483C9.46646 6.87408 8.67646 6.70765 8.30869 5.94917L7 3.25M12.1429 4C12.6162 4 13 3.49632 13 2.875C13 2.25368 12.6162 1.75 12.1429 1.75C11.6695 1.75 11.2857 2.25368 11.2857 2.875C11.2857 3.49632 11.6695 4 12.1429 4ZM7 3.25C7.47337 3.25 7.85714 2.74632 7.85714 2.125C7.85714 1.50368 7.47337 1 7 1C6.52663 1 6.14286 1.50368 6.14286 2.125C6.14286 2.74632 6.52663 3.25 7 3.25Z" stroke="#DC3050" stroke-linecap="round" stroke-linejoin="round"/>
</svg>
