<svg width="21" height="20" viewBox="0 0 21 20" fill="none" xmlns="http://www.w3.org/2000/svg">
<path d="M1.85627 9.51115L1.85633 9.51111L1.85072 9.50468C1.26588 8.83381 0.86773 8.04306 0.657933 7.1229C0.447224 6.19874 0.447613 5.28624 0.657554 4.37962C0.866924 3.47546 1.26467 2.69145 1.85072 2.01919C2.43533 1.34859 3.11177 0.905923 3.8834 0.674427C4.65935 0.441637 5.42089 0.442286 6.18072 0.673805C6.93226 0.902798 7.59822 1.33963 8.18075 2.00245L9.63095 4.00778L10.0361 4.56803L10.4413 4.00778L11.8946 1.99813C12.4469 1.34164 13.109 0.905008 13.8874 0.675022C14.6787 0.441227 15.4477 0.442498 16.2068 0.673805C16.9647 0.904721 17.6355 1.34698 18.2215 2.01919C18.8075 2.69145 19.2053 3.47546 19.4147 4.37962C19.6246 5.28624 19.625 6.19874 19.4143 7.12289C19.2045 8.04306 18.8063 8.83381 18.2215 9.50468L18.2214 9.50463L18.2159 9.51115L10.0361 19.2238L1.85627 9.51115Z" stroke="black"/>
</svg>
