<svg width="15" height="20" viewBox="0 0 15 20" fill="none" xmlns="http://www.w3.org/2000/svg">
<path d="M0.00666371 7.50024C0.00666371 6.14026 0.339849 4.88695 1.00622 3.74031C1.67259 2.59366 2.58552 1.68701 3.745 1.02036C4.90449 0.353704 6.15726 0.0137104 7.50333 0.000377351C8.8494 -0.0129557 10.1022 0.327038 11.2617 1.02036C12.4211 1.71368 13.3341 2.62033 14.0004 3.74031C14.6668 4.86029 15 6.1136 15 7.50024C15 8.07356 14.8601 8.74021 14.5802 9.5002C14.3003 10.2602 13.9471 11.0268 13.5207 11.8002C13.0942 12.5735 12.6077 13.3601 12.0613 14.1601C11.5149 14.9601 10.9818 15.7067 10.462 16.4001C9.94225 17.0934 9.4558 17.7067 9.00267 18.24C8.54953 18.7734 8.18969 19.2067 7.92315 19.54L7.50333 20C7.39671 19.8933 7.25678 19.7333 7.08352 19.52C6.91026 19.3067 6.55709 18.8867 6.02399 18.26C5.49089 17.6334 4.99778 17.0067 4.54465 16.3801C4.09152 15.7534 3.56508 15.0201 2.96535 14.1801C2.36562 13.3401 1.8725 12.5401 1.48601 11.7802C1.09951 11.0202 0.746335 10.2669 0.426477 9.5202C0.106619 8.77355 -0.0333185 8.10023 0.00666371 7.50024ZM2.50555 7.50024C2.50555 8.88688 2.992 10.0669 3.96491 11.0402C4.93781 12.0135 6.11728 12.5001 7.50333 12.5001C8.88938 12.5001 10.0689 12.0135 11.0418 11.0402C12.0147 10.0669 12.5011 8.88688 12.5011 7.50024C12.5011 6.1136 12.0147 4.94028 11.0418 3.9803C10.0689 3.02032 8.88938 2.527 7.50333 2.50033C6.11728 2.47366 4.93781 2.96699 3.96491 3.9803C2.992 4.99362 2.50555 6.16693 2.50555 7.50024ZM5.00444 7.50024C5.00444 6.82025 5.251 6.23359 5.74411 5.74027C6.23723 5.24695 6.82363 5.00028 7.50333 5.00028C8.18303 5.00028 8.76944 5.24695 9.26255 5.74027C9.75566 6.23359 10.0022 6.82025 10.0022 7.50024C10.0022 8.18022 9.75566 8.77355 9.26255 9.2802C8.76944 9.78686 8.18303 10.0269 7.50333 10.0002C6.82363 9.97352 6.23723 9.73353 5.74411 9.2802C5.251 8.82688 5.00444 8.23356 5.00444 7.50024Z" fill="white"/>
</svg>
