<svg width="25" height="25" viewBox="0 0 25 25" fill="none" xmlns="http://www.w3.org/2000/svg">
<path d="M12.5 25C10.0277 25 7.61099 24.2669 5.55538 22.8934C3.49976 21.5199 1.89761 19.5676 0.951511 17.2835C0.00541615 14.9995 -0.242126 12.4861 0.24019 10.0614C0.722505 7.63661 1.91301 5.40933 3.66117 3.66117C5.40933 1.91301 7.63661 0.722505 10.0614 0.24019C12.4861 -0.242126 14.9995 0.00541615 17.2835 0.951511C19.5676 1.89761 21.5199 3.49976 22.8934 5.55538C24.2669 7.61099 25 10.0277 25 12.5C25 15.8152 23.683 18.9946 21.3388 21.3388C18.9946 23.683 15.8152 25 12.5 25ZM12.5 1.66667C10.3574 1.66667 8.26286 2.30204 6.48133 3.49242C4.69979 4.6828 3.31126 6.37473 2.49131 8.35427C1.67136 10.3338 1.45682 12.512 1.87483 14.6135C2.29284 16.7149 3.32461 18.6453 4.83968 20.1603C6.35475 21.6754 8.28506 22.7072 10.3865 23.1252C12.488 23.5432 14.6662 23.3286 16.6457 22.5087C18.6253 21.6887 20.3172 20.3002 21.5076 18.5187C22.698 16.7371 23.3333 14.6426 23.3333 12.5C23.3333 9.62682 22.192 6.87132 20.1603 4.83968C18.1287 2.80804 15.3732 1.66667 12.5 1.66667Z" fill="#041A36"/>
<path d="M12.5625 8.125C12.2535 8.125 11.9514 8.03336 11.6944 7.86167C11.4375 7.68998 11.2372 7.44595 11.1189 7.16044C11.0007 6.87493 10.9697 6.56077 11.03 6.25767C11.0903 5.95458 11.2391 5.67617 11.4576 5.45765C11.6762 5.23913 11.9546 5.09031 12.2577 5.03002C12.5608 4.96973 12.8749 5.00068 13.1604 5.11894C13.446 5.2372 13.69 5.43747 13.8617 5.69442C14.0334 5.95137 14.125 6.25347 14.125 6.5625C14.125 6.9769 13.9604 7.37433 13.6674 7.66735C13.3743 7.96038 12.9769 8.125 12.5625 8.125Z" fill="#041A36"/>
<path d="M12.5625 20.375C12.1481 20.375 11.7507 20.2852 11.4576 20.1254C11.1646 19.9655 11 19.7488 11 19.5227V11.8523C11 11.6262 11.1646 11.4095 11.4576 11.2496C11.7507 11.0898 12.1481 11 12.5625 11C12.9769 11 13.3743 11.0898 13.6674 11.2496C13.9604 11.4095 14.125 11.6262 14.125 11.8523V19.5227C14.125 19.7488 13.9604 19.9655 13.6674 20.1254C13.3743 20.2852 12.9769 20.375 12.5625 20.375Z" fill="#041A36"/>
</svg>
