<svg width="15" height="14" viewBox="0 0 15 14" fill="none" xmlns="http://www.w3.org/2000/svg">
<path fill-rule="evenodd" clip-rule="evenodd" d="M6.97966 0.432537C7.46592 -0.144178 8.37433 -0.14418 8.86065 0.432537L9.46341 1.14738L10.3536 0.820935C11.0718 0.557574 11.8584 0.998542 11.9825 1.73408L12.1365 2.64578L13.0755 2.79521C13.8331 2.91576 14.2872 3.67955 14.016 4.37682L13.6797 5.24109L14.416 5.82635C15.01 6.29852 15.01 7.18045 14.416 7.65262L13.6797 8.23792L14.016 9.10214C14.2872 9.79943 13.8331 10.5632 13.0755 10.6838L12.1365 10.8332L11.9826 11.7449C11.8584 12.4804 11.0718 12.9214 10.3536 12.658L9.46341 12.3316L8.86065 13.0464C8.37433 13.6232 7.46592 13.6232 6.97966 13.0464L6.37685 12.3316L5.48668 12.658C4.76852 12.9214 3.98187 12.4804 3.8577 11.7449L3.7038 10.8332L2.76478 10.6838C2.00721 10.5632 1.55304 9.79943 1.82429 9.10214L2.16051 8.23792L1.42425 7.65262C0.830263 7.18045 0.83026 6.29852 1.42425 5.82635L2.16051 5.24109L1.82429 4.37682C1.55303 3.67955 2.00721 2.91576 2.76479 2.79521L3.7038 2.64578L3.8577 1.73408C3.98187 0.998542 4.76853 0.557574 5.48668 0.820935L6.37685 1.14738L6.97966 0.432537ZM7.43851 9.22198L11.6928 5.09148L10.8333 4.25699L7.00877 7.97026L5.00752 6.02721L4.14803 6.86169L6.57903 9.22198C6.69301 9.33268 6.8476 9.39481 7.00877 9.39481C7.16995 9.39481 7.32456 9.33268 7.43851 9.22198Z" fill="#3490DF"/>
</svg>
