<svg width="15" height="15" viewBox="0 0 15 15" fill="none" xmlns="http://www.w3.org/2000/svg">
<path d="M4 4.99994C4 5.13254 4.05268 5.25972 4.14645 5.35349C4.24021 5.44726 4.36739 5.49994 4.5 5.49994C4.55914 5.49995 4.61636 5.52094 4.66149 5.55916C4.70662 5.59737 4.73674 5.65036 4.7465 5.70869L4.87925 6.50119C4.91549 6.71876 4.99537 6.92675 5.11408 7.11265C5.23278 7.29855 5.38787 7.45852 5.57 7.58294C5.64125 7.63119 5.71775 7.68494 5.79825 7.74144C6.278 8.07944 6.875 8.49994 7.5 8.49994C8.125 8.49994 8.722 8.07944 9.20175 7.74144C9.28225 7.68494 9.35875 7.63119 9.43025 7.58269C9.61233 7.4583 9.76736 7.29836 9.88603 7.1125C10.0047 6.92664 10.0845 6.7187 10.1208 6.50119L10.2535 5.70869C10.2633 5.65036 10.2934 5.59737 10.3385 5.55916C10.3836 5.52094 10.4409 5.49995 10.5 5.49994C10.6326 5.5013 10.7603 5.44992 10.8551 5.35711C10.9498 5.26431 11.0038 5.13767 11.0051 5.00506C11.0065 4.87245 10.9551 4.74474 10.8623 4.65001C10.7695 4.55528 10.6429 4.5013 10.5103 4.49994L9.9795 4.57494C9.93253 4.83709 9.79376 5.07396 9.58805 5.24312C9.38233 5.41227 9.12311 5.50266 8.85682 5.49809C8.59053 5.49351 8.33457 5.39428 8.13478 5.21816C7.93499 5.04205 7.80444 4.80055 7.7665 4.53694C7.59271 4.48443 7.40729 4.48443 7.2335 4.53694C7.1952 4.80029 7.06447 5.04143 6.8647 5.21725C6.66493 5.39307 6.40913 5.4921 6.14305 5.49664C5.87696 5.50118 5.61794 5.41093 5.41229 5.24202C5.20664 5.07312 5.06776 4.83658 5.0205 4.57469L4.48975 4.49994C4.35893 4.50262 4.23437 4.55648 4.1428 4.64996C4.05124 4.74344 3.99997 4.86908 4 4.99994ZM6 6.74994C6 6.48472 6.10536 6.23037 6.29289 6.04283C6.48043 5.85529 6.73478 5.74994 7 5.74994H8C8.26522 5.74994 8.51957 5.85529 8.70711 6.04283C8.89464 6.23037 9 6.48472 9 6.74994V6.99994C9 7.13254 8.94732 7.25972 8.85355 7.35349C8.75979 7.44726 8.63261 7.49994 8.5 7.49994H6.5C6.36739 7.49994 6.24021 7.44726 6.14645 7.35349C6.05268 7.25972 6 7.13254 6 6.99994V6.74994Z" fill="#5E5E5E"/>
<path d="M8.5 8.75366C8.18857 8.90756 7.84728 8.9916 7.5 8.99991C7.15272 8.9916 6.81143 8.90756 6.5 8.75366C6.5 9.01888 6.60536 9.27323 6.79289 9.46077C6.98043 9.64831 7.23478 9.75366 7.5 9.75366C7.76522 9.75366 8.01957 9.64831 8.20711 9.46077C8.39464 9.27323 8.5 9.01888 8.5 8.75366Z" fill="#5E5E5E"/>
<path d="M7.49476 12.75C8.56169 11.8632 9.30098 10.6447 9.59476 9.28879L8.96201 9.08179C8.88587 9.41246 8.69987 9.70754 8.43437 9.91885C8.16888 10.1302 7.83958 10.2452 7.50026 10.2452C7.16094 10.2452 6.83164 10.1302 6.56615 9.91885C6.30066 9.70754 6.11465 9.41246 6.03851 9.08179L5.40576 9.28879C5.69889 10.6423 6.43378 11.8599 7.49476 12.75Z" fill="#5E5E5E"/>
<path d="M10.7774 1.88904C10.6571 1.81259 10.521 1.76446 10.3794 1.74829C10.6228 2.21144 10.7499 2.72683 10.7499 3.25004V4.03154C10.9153 4.07498 11.0668 4.16011 11.1899 4.27879C11.2327 4.02146 11.2527 3.76088 11.2499 3.50004C11.2486 3.1491 11.2173 2.79891 11.1564 2.45329C11.1363 2.33791 11.0922 2.22804 11.0269 2.13083C10.9616 2.03362 10.8766 1.95123 10.7774 1.88904Z" fill="#5E5E5E"/>
<path d="M1.50007 14.2463C1.49926 14.2792 1.50509 14.3119 1.5172 14.3425C1.52931 14.3731 1.54747 14.4009 1.57057 14.4243C1.5939 14.4483 1.62181 14.4674 1.65264 14.4804C1.68348 14.4934 1.71661 14.5001 1.75007 14.5001H13.2501C13.2835 14.5002 13.3167 14.4937 13.3476 14.4808C13.3784 14.4679 13.4064 14.449 13.4298 14.4251C13.453 14.4016 13.4711 14.3736 13.4832 14.3429C13.4953 14.3122 13.501 14.2793 13.5001 14.2463C13.4946 13.6482 13.4502 13.051 13.3673 12.4586C13.2822 11.8516 13.0288 11.2805 12.6359 10.8101C12.243 10.3396 11.7262 9.98852 11.1441 9.79657L10.0716 9.44657C9.74831 10.8893 8.95879 12.1853 7.82507 13.1343C7.73334 13.2093 7.61852 13.2501 7.50007 13.2501C7.38256 13.2504 7.26859 13.2099 7.17757 13.1356C6.04282 12.186 5.25272 10.8888 4.92957 9.44482L3.85657 9.79607C3.27555 9.98727 2.75956 10.3371 2.36687 10.8061C1.97419 11.2751 1.72045 11.8445 1.63432 12.4501C1.55054 13.0453 1.50569 13.6453 1.50007 14.2463Z" fill="#5E5E5E"/>
<path d="M3.84378 2.45204C3.78266 2.79806 3.75121 3.14867 3.74978 3.50004C3.74694 3.7608 3.76702 4.0213 3.80978 4.27854C3.93292 4.15995 4.08441 4.07491 4.24978 4.03154V3.25004C4.24972 2.72683 4.37688 2.21144 4.62028 1.74829C4.47866 1.76446 4.34257 1.81259 4.22228 1.88904C4.12324 1.9511 4.03836 2.0333 3.97315 2.13029C3.90795 2.22728 3.86387 2.33691 3.84378 2.45204Z" fill="#5E5E5E"/>
<path d="M8.5 6.75C8.5 6.61739 8.44732 6.49021 8.35355 6.39645C8.25979 6.30268 8.13261 6.25 8 6.25H7C6.86739 6.25 6.74021 6.30268 6.64645 6.39645C6.55268 6.49021 6.5 6.61739 6.5 6.75V7H8.5V6.75Z" fill="#5E5E5E"/>
<path d="M6.125 5C6.47018 5 6.75 4.72018 6.75 4.375C6.75 4.02982 6.47018 3.75 6.125 3.75C5.77982 3.75 5.5 4.02982 5.5 4.375C5.5 4.72018 5.77982 5 6.125 5Z" fill="#5E5E5E"/>
<path d="M8.875 5C9.22018 5 9.5 4.72018 9.5 4.375C9.5 4.02982 9.22018 3.75 8.875 3.75C8.52982 3.75 8.25 4.02982 8.25 4.375C8.25 4.72018 8.52982 5 8.875 5Z" fill="#5E5E5E"/>
<path d="M4.75 4.03325L5.0455 4.07575C5.10878 3.84232 5.24604 3.6357 5.4367 3.4869C5.62736 3.3381 5.86113 3.25514 6.10294 3.25046C6.34475 3.24579 6.58155 3.31965 6.77782 3.46097C6.97409 3.60229 7.11925 3.80344 7.1915 4.03425C7.39463 3.98858 7.60537 3.98858 7.8085 4.03425C7.88075 3.80344 8.02591 3.60229 8.22218 3.46097C8.41845 3.31965 8.65525 3.24579 8.89706 3.25046C9.13887 3.25514 9.37264 3.3381 9.5633 3.4869C9.75396 3.6357 9.89122 3.84232 9.9545 4.07575L10.25 4.03325V3.25C10.25 2.52065 9.96027 1.82118 9.44454 1.30546C8.92882 0.789731 8.22935 0.5 7.5 0.5C6.77065 0.5 6.07118 0.789731 5.55546 1.30546C5.03973 1.82118 4.75 2.52065 4.75 3.25V4.03325Z" fill="#5E5E5E"/>
</svg>
