<svg width="15" height="15" viewBox="0 0 15 15" fill="none" xmlns="http://www.w3.org/2000/svg">
<path d="M8.08922 0.357642L10.048 4.09747C10.0935 4.1854 10.1571 4.26164 10.2342 4.3207C10.3113 4.37977 10.4 4.42015 10.4939 4.43895L14.4751 5.23024C14.5886 5.25274 14.6943 5.30674 14.781 5.38656C14.8678 5.4664 14.9325 5.56915 14.9683 5.68407C15.0041 5.79899 15.0097 5.92183 14.9845 6.03985C14.9595 6.1578 14.9045 6.26658 14.8255 6.3547L12.0306 9.46151C11.9657 9.53448 11.9169 9.62169 11.888 9.71672C11.8591 9.81176 11.8508 9.91238 11.8634 10.0112L12.373 14.2425C12.3888 14.3619 12.3733 14.4836 12.3282 14.5944C12.2831 14.7054 12.2101 14.8014 12.1169 14.8724C12.0238 14.9432 11.914 14.9865 11.7992 14.9973C11.6845 15.0081 11.5691 14.9862 11.4653 14.9338L7.77869 13.1181C7.69222 13.0727 7.59675 13.049 7.5 13.049C7.40326 13.049 7.30779 13.0727 7.22132 13.1181L3.5347 14.9338C3.43043 14.9854 3.31488 15.0067 3.20005 14.9956C3.08522 14.9846 2.97535 14.9414 2.88185 14.8709C2.78834 14.8002 2.71462 14.7047 2.6684 14.5942C2.62218 14.4837 2.60514 14.3623 2.61902 14.2425L3.13658 10.0112C3.14929 9.91238 3.1409 9.81176 3.11199 9.71672C3.08307 9.62169 3.03436 9.53448 2.96937 9.46151L0.174544 6.3547C0.0955005 6.26658 0.0405596 6.1578 0.0154381 6.03985C-0.00969138 5.92183 -0.00406182 5.79899 0.0317373 5.68407C0.0675445 5.56915 0.132215 5.4664 0.218966 5.38656C0.305717 5.30674 0.411371 5.25274 0.524899 5.23024L4.50612 4.43895C4.59999 4.42015 4.68869 4.37977 4.76581 4.3207C4.84293 4.26164 4.90652 4.1854 4.95201 4.09747L6.95059 0.357642C7.00553 0.249628 7.08763 0.159289 7.18787 0.0962863C7.2882 0.0332921 7.40294 0 7.51991 0C7.63688 0 7.75169 0.0332921 7.85194 0.0962863C7.95227 0.159289 8.03428 0.249628 8.08922 0.357642Z" fill="#F4A815"/>
</svg>
