<svg width="15" height="15" viewBox="0 0 15 15" fill="none" xmlns="http://www.w3.org/2000/svg">
<path d="M14.8088 1.85039L8.17709 0.085752C7.96308 0.0288867 7.73522 0 7.50002 0C7.26474 0 7.03689 0.0288867 6.82288 0.085752L0.191074 1.85039C0.0749653 1.88156 0 1.95319 0 2.0335C0 2.11377 0.0749653 2.18543 0.191141 2.2166L3.26099 3.0334V5.29594C3.26176 6.46576 3.7177 7.58941 4.5448 8.45944C4.94227 8.87704 5.39971 9.20868 5.90449 9.44479C6.43989 9.69568 6.99501 9.82283 7.55439 9.82283C8.11348 9.82283 8.66866 9.69568 9.20437 9.44479C9.96332 9.08903 10.6163 8.51766 11.0928 7.79273C11.5865 7.0403 11.8475 6.17687 11.8478 5.29594V3.00451L13.3674 2.6001V4.48072C13.1591 4.50369 12.9977 4.65929 12.9977 4.84693C12.9977 5.01023 13.1202 5.15174 13.2956 5.19882L12.9734 7.05375C12.9655 7.09992 12.9808 7.14656 13.0157 7.18225C13.0507 7.21752 13.1015 7.23797 13.1551 7.23797H14.3733C14.4268 7.23797 14.4776 7.21749 14.5127 7.18201C14.5475 7.14677 14.5629 7.09989 14.555 7.05352L14.2327 5.19882C14.4082 5.15174 14.5307 5.01026 14.5307 4.84693C14.5307 4.65929 14.3692 4.50369 14.1609 4.48072V2.38898L14.8089 2.21657C14.925 2.1854 15 2.11354 15 2.03347C15 1.95343 14.9249 1.88153 14.8088 1.85039ZM7.55439 8.72669C7.20466 8.72669 6.84928 8.64343 6.49816 8.47898C5.95426 8.2256 5.46007 7.78863 5.1064 7.24819C4.94337 6.99981 4.81098 6.72958 4.71247 6.44414C6.75712 6.12844 8.02108 4.99749 8.73409 4.07197C9.07808 4.68064 9.66313 5.44172 10.5554 5.79018C10.4506 6.52213 10.1111 7.22021 9.5971 7.75928C9.30771 8.06408 8.96657 8.31293 8.61049 8.47919C8.25924 8.64343 7.90386 8.72669 7.55439 8.72669Z" fill="#363535"/>
<path d="M11.456 9.2062L11.4223 9.18777L7.70986 12.0376L3.99737 9.18774L3.96365 9.20617C2.72589 9.88105 1.4104 11.7155 1.4104 13.786V13.814L1.43881 13.8272C1.46417 13.8391 4.02135 15.0002 7.70986 15.0002C11.3983 15.0002 13.9556 13.8391 13.9809 13.8273L14.0093 13.8141V13.7861C14.0093 11.7155 12.6938 9.88105 11.456 9.2062Z" fill="#363535"/>
</svg>
