<svg width="15" height="15" viewBox="0 0 15 15" fill="none" xmlns="http://www.w3.org/2000/svg">
<path d="M14.4174 1.85039L8.6327 0.085752C8.44603 0.0288867 8.24728 0 8.04211 0C7.83688 0 7.63813 0.0288867 7.45145 0.085752L1.66667 1.85039C1.56539 1.88156 1.5 1.95319 1.5 2.0335C1.5 2.11377 1.56539 2.18543 1.66673 2.2166L4.34449 3.0334V5.29594C4.34517 6.46576 4.74287 7.58941 5.46434 8.45944C5.81104 8.87704 6.21006 9.20868 6.65036 9.44478C7.11738 9.69568 7.6016 9.82283 8.08954 9.82283C8.57722 9.82283 9.06149 9.69568 9.52878 9.44478C10.1908 9.08903 10.7604 8.51766 11.176 7.79273C11.6067 7.0403 11.8344 6.17687 11.8346 5.29594V3.00451L13.1601 2.6001V4.48072C12.9784 4.50369 12.8376 4.65929 12.8376 4.84693C12.8376 5.01023 12.9445 5.15174 13.0975 5.19882L12.8164 7.05375C12.8095 7.09992 12.8229 7.14656 12.8534 7.18225C12.8839 7.21752 12.9282 7.23797 12.9749 7.23797H14.0376C14.0842 7.23797 14.1285 7.21749 14.1591 7.18201C14.1894 7.14677 14.2029 7.09989 14.1961 7.05352L13.9149 5.19882C14.0679 5.15174 14.1749 5.01026 14.1749 4.84693C14.1749 4.65929 14.0339 4.50369 13.8523 4.48072V2.38898L14.4175 2.21657C14.5187 2.1854 14.5842 2.11354 14.5842 2.03347C14.5842 1.95343 14.5187 1.88153 14.4174 1.85039ZM8.08954 8.72669C7.78447 8.72669 7.47448 8.64343 7.16821 8.47898C6.69378 8.2256 6.2627 7.78863 5.95421 7.24819C5.812 6.99981 5.69651 6.72958 5.61059 6.44414C7.39409 6.12844 8.49662 4.99749 9.11856 4.07197C9.41862 4.68064 9.92895 5.44172 10.7072 5.79018C10.6158 6.52213 10.3197 7.22022 9.87135 7.75928C9.61893 8.06408 9.32136 8.31293 9.01075 8.47919C8.70436 8.64343 8.39437 8.72669 8.08954 8.72669Z" fill="#5E5E5E"/>
<path d="M11.493 9.20596L11.4636 9.18753L8.22536 12.0374L4.98703 9.1875L4.95762 9.20593C3.87794 9.88081 2.73047 11.7153 2.73047 13.7858V13.8138L2.75525 13.827C2.77737 13.8388 5.00795 15 8.22536 15C11.4427 15 13.6733 13.8388 13.6954 13.827L13.7202 13.8138V13.7858C13.7203 11.7153 12.5727 9.88081 11.493 9.20596Z" fill="#5E5E5E"/>
</svg>
