<svg width="12" height="15" viewBox="0 0 12 15" fill="none" xmlns="http://www.w3.org/2000/svg">
<path id="Vector" d="M10.3198 0H4.67141C4.39662 0 4.24396 0.146199 4.21343 0.175439L0.183193 4.03509C0.152661 4.06433 0 4.21053 0 4.44444V13.3626C0 14.269 0.763302 15 1.7098 15H10.2893C11.2358 15 11.9991 14.269 11.9991 13.3626V1.63743C12.0296 0.730994 11.2663 0 10.3198 0ZM4.03024 2.07602V3.39181C4.03024 3.62573 3.84704 3.80117 3.60279 3.80117H2.19831L4.03024 2.07602ZM10.7473 13.3918C10.7473 13.6257 10.5336 13.8012 10.3198 13.8012H1.7098C1.46554 13.8012 1.28235 13.5965 1.28235 13.3918V5.08772H3.60279C4.54928 5.08772 5.31259 4.35673 5.31259 3.45029V1.22807H10.2893C10.5336 1.22807 10.7168 1.40351 10.7168 1.63743L10.7473 13.3918Z" fill="#B7B7B7"/>
</svg>
