<svg width="45" height="45" viewBox="0 0 45 45" fill="none" xmlns="http://www.w3.org/2000/svg">
<rect width="45" height="45" rx="22.5" fill="#328EE3"/>
<path d="M13.2857 10V12.1739H11V35H35V16.5217H25.8571V12.1739H23.5714V10H13.2857ZM14.4286 11.087H22.4286V13.2609H24.7143V33.913H19.5714V30.1087H17.2857V33.913H12.1429V13.2609H14.4286V11.087ZM14.4286 14.3478V15.4348H15.5714V14.3478H14.4286ZM16.7143 14.3478V15.4348H17.8571V14.3478H16.7143ZM19 14.3478V15.4348H20.1429V14.3478H19ZM21.2857 14.3478V15.4348H22.4286V14.3478H21.2857ZM14.4286 17.0652V19.2391H15.5714V17.0652H14.4286ZM16.7143 17.0652V19.2391H17.8571V17.0652H16.7143ZM19 17.0652V19.2391H20.1429V17.0652H19ZM21.2857 17.0652V19.2391H22.4286V17.0652H21.2857ZM25.8571 17.6087H33.8571V33.913H25.8571V17.6087ZM27 18.6957V19.7826H28.1429V18.6957H27ZM29.2857 18.6957V19.7826H30.4286V18.6957H29.2857ZM31.5714 18.6957V19.7826H32.7143V18.6957H31.5714ZM14.4286 20.3261V22.5H15.5714V20.3261H14.4286ZM16.7143 20.3261V22.5H17.8571V20.3261H16.7143ZM19 20.3261V22.5H20.1429V20.3261H19ZM21.2857 20.3261V22.5H22.4286V20.3261H21.2857ZM27 20.8696V21.9565H28.1429V20.8696H27ZM29.2857 20.8696V21.9565H30.4286V20.8696H29.2857ZM31.5714 20.8696V21.9565H32.7143V20.8696H31.5714ZM27 23.0435V24.1304H28.1429V23.0435H27ZM29.2857 23.0435V24.1304H30.4286V23.0435H29.2857ZM31.5714 23.0435V24.1304H32.7143V23.0435H31.5714ZM14.4286 23.587V25.7609H15.5714V23.587H14.4286ZM16.7143 23.587V25.7609H17.8571V23.587H16.7143ZM19 23.587V25.7609H20.1429V23.587H19ZM21.2857 23.587V25.7609H22.4286V23.587H21.2857ZM27 25.2174V26.3043H28.1429V25.2174H27ZM29.2857 25.2174V26.3043H30.4286V25.2174H29.2857ZM31.5714 25.2174V26.3043H32.7143V25.2174H31.5714ZM14.4286 26.8478V29.0217H15.5714V26.8478H14.4286ZM16.7143 26.8478V29.0217H17.8571V26.8478H16.7143ZM19 26.8478V29.0217H20.1429V26.8478H19ZM21.2857 26.8478V29.0217H22.4286V26.8478H21.2857ZM27 27.3913V28.4783H28.1429V27.3913H27ZM29.2857 27.3913V28.4783H30.4286V27.3913H29.2857ZM31.5714 27.3913V28.4783H32.7143V27.3913H31.5714ZM27 29.5652V30.6522H28.1429V29.5652H27ZM29.2857 29.5652V30.6522H30.4286V29.5652H29.2857ZM31.5714 29.5652V30.6522H32.7143V29.5652H31.5714ZM14.4286 30.1087V32.8261H15.5714V30.1087H14.4286ZM21.2857 30.1087V32.8261H22.4286V30.1087H21.2857ZM27 31.7391V32.8261H28.1429V31.7391H27ZM29.2857 31.7391V32.8261H30.4286V31.7391H29.2857ZM31.5714 31.7391V32.8261H32.7143V31.7391H31.5714Z" fill="white"/>
</svg>
