<svg width="147" height="158" viewBox="0 0 147 158" fill="none" xmlns="http://www.w3.org/2000/svg">
<path d="M69.6137 17.0903C69.9786 6.57528 78.9292 -1.87316 89.0518 0.995731C96.6142 3.139 103.853 6.40802 110.519 10.7243C122.555 18.518 132.277 29.4369 138.659 42.3287C145.041 55.2205 147.846 69.607 146.778 83.9697C145.71 98.3324 140.809 112.139 132.591 123.931C124.374 135.723 113.145 145.065 100.09 150.969C87.0351 156.873 72.6384 159.122 58.4192 157.476C44.2 155.831 30.686 150.354 19.3033 141.622C12.9245 136.729 7.3476 130.915 2.73669 124.398C-3.28698 115.884 1.56248 104.702 11.2293 100.788V100.788C20.9557 96.8488 31.8491 102.09 39.6236 109.138C40.4672 109.903 41.3435 110.634 42.2508 111.33C48.2139 115.905 55.2936 118.774 62.7428 119.636C70.1919 120.498 77.7341 119.32 84.5733 116.227C91.4125 113.134 97.295 108.24 101.6 102.062C105.905 95.8845 108.473 88.6517 109.032 81.1274C109.592 73.6031 108.122 66.0663 104.779 59.3126C101.436 52.5588 96.3423 46.8386 90.0367 42.7557C89.1002 42.1493 88.1421 41.5823 87.165 41.0556C77.909 36.0666 69.2491 27.5988 69.6137 17.0903V17.0903Z" fill="url(#paint0_linear_1345_199)"/>
<defs>
<linearGradient id="paint0_linear_1345_199" x1="116.284" y1="17.8496" x2="33.3165" y2="141.256" gradientUnits="userSpaceOnUse">
<stop offset="0.078125" stop-color="#FD7791"/>
<stop offset="0.755208" stop-color="#FD7791" stop-opacity="0.42"/>
</linearGradient>
</defs>
</svg>
