<svg width="122" height="116" viewBox="0 0 122 116" fill="none" xmlns="http://www.w3.org/2000/svg">
<path d="M57.7548 2.87022C58.0577 -5.87094 65.4989 -12.8945 73.9123 -10.5041C80.1832 -8.72237 86.1858 -6.00698 91.7138 -2.42292C101.706 4.05555 109.778 13.1319 115.076 23.8482C120.374 34.5646 122.703 46.5233 121.816 58.4623C120.929 70.4013 116.86 81.8777 110.038 91.6801C103.216 101.483 93.894 109.248 83.0559 114.156C72.2179 119.063 60.2658 120.932 48.4612 119.565C36.6566 118.197 25.4374 113.644 15.9877 106.386C10.685 102.313 6.04982 97.473 2.21895 92.0468C-2.77251 84.9768 1.25159 75.6995 9.27181 72.4475C17.3516 69.1713 26.4034 73.5264 32.8597 79.3857C33.5594 80.0206 34.286 80.6279 35.0384 81.2058C39.9889 85.0082 45.8664 87.3935 52.0506 88.1099C58.2348 88.8264 64.4962 87.8473 70.174 85.2762C75.8519 82.705 80.7355 78.6371 84.3094 73.5018C87.8834 68.3665 90.0151 62.3542 90.4796 56.0996C90.9441 49.8451 89.7242 43.5801 86.9485 37.9661C84.1729 32.352 79.9445 27.5971 74.7097 24.2032C73.937 23.7022 73.1467 23.2336 72.3406 22.7981C64.6514 18.6434 57.452 11.6049 57.7548 2.87022Z" fill="url(#paint0_linear_1041_36)"/>
<defs>
<linearGradient id="paint0_linear_1041_36" x1="96.5" y1="3.5" x2="27.5" y2="106" gradientUnits="userSpaceOnUse">
<stop offset="0.078125" stop-color="#FD7791"/>
<stop offset="0.755208" stop-color="#FD7791" stop-opacity="0.42"/>
</linearGradient>
</defs>
</svg>
