<svg width="19" height="19" viewBox="0 0 19 19" fill="none" xmlns="http://www.w3.org/2000/svg">
<g clip-path="url(#clip0_718_214)">
<path d="M9.5 0C4.26107 0 0 4.26107 0 9.5C0 14.7389 4.26107 19 9.5 19C14.7389 19 19 14.7389 19 9.5C19 4.26107 14.7389 0 9.5 0ZM9.5 17.7333C4.96027 17.7333 1.26667 14.0397 1.26667 9.5C1.26667 4.96027 4.96027 1.26667 9.5 1.26667C14.0397 1.26667 17.7333 4.96027 17.7333 9.5C17.7333 14.0397 14.0397 17.7333 9.5 17.7333Z" fill="#DA435F"/>
<path d="M10.1336 4.43335H8.86693V8.86668H4.43359V10.1333H8.86693V14.5667H10.1336V10.1333H14.5669V8.86668H10.1336V4.43335Z" fill="#DA435F"/>
</g>
<defs>
<clipPath id="clip0_718_214">
<rect width="19" height="19" fill="white"/>
</clipPath>
</defs>
</svg>
