<svg width="16" height="18" viewBox="0 0 16 18" fill="none" xmlns="http://www.w3.org/2000/svg">
<path d="M13.049 0.585693L10.7074 2.88294C10.7074 2.88294 11.4808 3.39894 12.1896 4.12494C12.8771 4.85169 13.3714 5.67219 13.3714 5.67219L15.3693 3.07044C15.3693 3.07044 15.348 2.60169 14.4027 1.59369C13.4361 0.585693 13.049 0.585693 13.049 0.585693ZM5.42187 13.4534L5.31462 14.5784L12.7486 6.14094C12.7486 6.14094 12.2542 5.39094 11.6527 4.75794C11.0298 4.10169 10.3203 3.58569 10.3203 3.58569L2.88637 12.0232L4.04687 11.9527L4.17612 13.3124L5.42187 13.4534ZM0.4375 17.0392L2.2855 12.9142L3.31675 12.8204L3.40269 14.1097L4.64912 14.2972L4.51987 15.3284L0.78125 17.3909L0.4375 17.0392Z" fill="#DA435F"/>
</svg>
