<svg width="165" height="165" viewBox="0 0 165 165" fill="none" xmlns="http://www.w3.org/2000/svg">
<circle cx="82.5" cy="82.5" r="82.5" fill="#D9D9D9"/>
<path fill-rule="evenodd" clip-rule="evenodd" d="M82.4178 79.6257C79.1961 79.6257 76.5845 82.2 76.5845 85.3757C76.5845 88.5515 79.1961 91.1257 82.4178 91.1257C85.6396 91.1257 88.2511 88.5515 88.2511 85.3757C88.2511 82.2 85.6396 79.6257 82.4178 79.6257Z" fill="#323232"/>
<path fill-rule="evenodd" clip-rule="evenodd" d="M111.584 75.3245C111.584 75.4209 111.584 75.5183 111.584 75.6166V94.1899C111.584 96.7386 111.584 98.9345 111.344 100.693C111.087 102.578 110.507 104.384 109.021 105.849C107.534 107.315 105.702 107.886 103.79 108.139C102.006 108.376 99.7778 108.376 97.1922 108.376H67.6418C65.0562 108.376 62.8283 108.376 61.0443 108.139C59.1324 107.886 57.2997 107.315 55.8132 105.849C54.3267 104.384 53.747 102.578 53.49 100.693C53.2501 98.9345 53.2502 96.7386 53.2504 94.1899V75.6166C53.2504 75.5183 53.2503 75.4209 53.2502 75.3245C53.2489 73.9988 53.2478 72.8558 53.4966 71.8439C54.2685 68.705 56.7548 66.2542 59.9392 65.4933C60.9658 65.2481 62.1253 65.2492 63.4703 65.2504C63.5681 65.2505 63.6668 65.2506 63.7666 65.2506C64.7766 65.2506 64.9799 65.2431 65.1442 65.2189C65.8095 65.1206 66.4199 64.7985 66.872 64.3074C66.9836 64.1861 67.1027 64.0235 67.6629 63.1951L68.3236 62.2184C68.3903 62.1196 68.4564 62.0217 68.522 61.9244C69.4779 60.5069 70.3211 59.2567 71.5176 58.3664C72.2415 57.8279 73.0459 57.4036 73.902 57.1086C75.3172 56.6211 76.8403 56.623 78.5669 56.6253C78.6854 56.6255 78.8049 56.6256 78.9251 56.6256H85.9091C86.0292 56.6256 86.1488 56.6255 86.2672 56.6253C87.9939 56.623 89.517 56.6211 90.9321 57.1086C91.7882 57.4036 92.5926 57.8279 93.3165 58.3664C94.5129 59.2567 95.3561 60.507 96.3122 61.9244C96.3776 62.0217 96.4438 62.1197 96.5106 62.2184L97.1712 63.1951C97.7315 64.0235 97.8505 64.1861 97.9622 64.3074C98.4143 64.7985 99.0247 65.1206 99.69 65.2189C99.8542 65.2431 100.058 65.2506 101.068 65.2506C101.167 65.2506 101.266 65.2505 101.364 65.2504C102.709 65.2492 103.868 65.2481 104.895 65.4933C108.079 66.2542 110.566 68.705 111.337 71.8439C111.586 72.8558 111.585 73.9988 111.584 75.3245ZM70.7508 85.3757C70.7508 79.0245 75.9741 73.8757 82.4175 73.8757C88.8607 73.8757 94.0842 79.0245 94.0842 85.3757C94.0842 91.7269 88.8607 96.8757 82.4175 96.8757C75.9741 96.8757 70.7508 91.7269 70.7508 85.3757Z" fill="#323232"/>
</svg>
