<svg width="20" height="18" viewBox="0 0 20 18" fill="none" xmlns="http://www.w3.org/2000/svg">
<path fill-rule="evenodd" clip-rule="evenodd" d="M8.2361 0C7.09975 0 6.06096 0.64201 5.55279 1.65836L5.15836 2.44721C4.98897 2.786 4.6427 3 4.26393 3H3C1.34315 3 0 4.34315 0 6V15C0 16.6569 1.34315 18 3 18H17C18.6569 18 20 16.6569 20 15V6C20 4.34315 18.6569 3 17 3H15.7361C15.3573 3 15.011 2.786 14.8416 2.44721L14.4472 1.65836C13.939 0.64201 12.9002 0 11.7639 0H8.2361ZM9 8V5H11V8H14V10H11V13H9V10H6V8H9Z" fill="#328EE3"/>
</svg>
