<svg width="41" height="41" viewBox="0 0 41 41" fill="none" xmlns="http://www.w3.org/2000/svg">
<path d="M8.41078 0.0966797C7.30282 0.185207 6.76906 0.289829 5.82285 0.619791C4.75532 0.998039 3.89807 1.46481 3.20257 2.06035C1.51232 3.51701 0.598459 5.12658 0.202182 7.37193C0.056611 8.18476 0.0404364 8.71592 0.0242619 14.0034L0 19.7495L1.90051 19.6932C5.38613 19.5966 8.3946 19.3471 10.0929 19.0333C12.786 18.5262 14.8725 17.4961 16.3444 15.9187C18.7302 13.3837 19.5065 10.3174 19.733 2.54322C19.7572 1.6982 19.7977 0.788795 19.8219 0.50712L19.8624 0.00815392L14.5409 0.0162029C11.6133 0.02425 8.85558 0.0564423 8.41078 0.0966797Z" fill="black"/>
<path d="M20.38 1.19116C20.5821 6.09229 20.6711 7.45238 20.8733 8.82051C21.3666 12.2408 22.1996 14.2045 23.8818 15.959C25.9925 18.156 28.5724 19.0735 33.8049 19.4839C35.0826 19.5805 38.3742 19.7253 39.4255 19.7253H40.1938L40.1695 14.0758C40.1534 8.24107 40.1615 8.38593 39.8218 6.68784C39.474 4.91731 38.2367 3.01802 36.6758 1.81889C35.6488 1.03825 33.9423 0.354183 32.5352 0.161036C32.1065 0.0966511 29.7936 0.0564117 26.0977 0.0322685L20.3233 7.82013e-05L20.38 1.19116Z" fill="black"/>
<path d="M0.0242619 26.0509C0.0485237 31.3223 0.0646983 31.9098 0.202182 32.6904C0.630808 35.0806 1.69833 36.835 3.55841 38.2273C4.58549 38.9919 6.07355 39.5874 7.53735 39.8127C8.73427 39.9978 19.6036 40.0864 19.7492 39.9093C19.8947 39.7403 19.6521 34.1471 19.4014 31.958C19.1588 29.8093 18.6088 27.6283 18.0185 26.4533C17.1612 24.7552 15.657 23.1859 14.0234 22.2845C11.7508 21.0291 8.43504 20.4818 2.05417 20.3209L0 20.2645L0.0242619 26.0509Z" fill="black"/>
<path d="M36.3119 20.3771C29.3245 20.699 26.2837 21.5762 23.9626 23.9584C22.2319 25.7209 21.3747 27.7087 20.8733 31.1129C20.6549 32.5776 20.4447 35.9416 20.4042 38.6779L20.38 39.9656H25.4345C32.2359 39.9736 32.9557 39.9253 34.4923 39.37C36.8618 38.5089 38.8271 36.5211 39.5792 34.2114C40.1372 32.5294 40.1291 32.5857 40.1695 24.4091L40.1938 20.2886L38.9403 20.3047C38.2529 20.3047 37.0721 20.3449 36.3119 20.3771Z" fill="black"/>
</svg>
