<svg width="40" height="40" viewBox="0 0 40 40" fill="none" xmlns="http://www.w3.org/2000/svg">
<g clip-path="url(#clip0_63_1017)">
<path d="M33 0H7C3.13401 0 0 3.13401 0 7V33C0 36.866 3.13401 40 7 40H33C36.866 40 40 36.866 40 33V7C40 3.13401 36.866 0 33 0Z" fill="#4489C8"/>
<path d="M6.0125 12.3563H10.8125C10.9128 12.3561 11.0109 12.3865 11.0935 12.4435C11.1761 12.5004 11.2394 12.5812 11.275 12.675C11.8063 14.0438 14.0125 19.4 16.0313 19.8375C17.5313 19.8375 17 12.7125 15.0938 12.7125C14.5938 12.7125 15.9813 11.825 16.075 11.7875C17.8465 11.3019 19.716 11.3019 21.4875 11.7875C22.4438 12.1875 22.6063 13.3063 22.6313 14.2563C22.6562 15.2063 21.5688 19.2563 23 19.6938C24.875 20.2688 27.2875 14.3875 27.85 12.9438C27.8866 12.8511 27.9503 12.7717 28.0329 12.7159C28.1154 12.6601 28.2129 12.6306 28.3125 12.6313H33.6563C33.7388 12.631 33.8202 12.6512 33.8931 12.6901C33.9659 12.7289 34.028 12.7852 34.0738 12.8539C34.1196 12.9226 34.1477 13.0016 34.1556 13.0838C34.1634 13.166 34.1508 13.2489 34.1188 13.325C33.018 15.8361 31.6983 18.2454 30.175 20.525C30.0455 20.7131 29.9847 20.9401 30.0029 21.1678C30.0212 21.3954 30.1172 21.6099 30.275 21.775C31.875 23.4875 36.25 28.3375 33.75 28.3375H28.3563C28.2168 28.3379 28.079 28.3085 27.9518 28.2514C27.8246 28.1943 27.7111 28.1107 27.6188 28.0063C26.7813 27.0813 24.3438 24.5063 23.2437 24.7125C22.3313 24.8813 22.2438 26.4313 22.2875 27.4438C22.3013 27.705 22.2122 27.9612 22.0392 28.1575C21.8663 28.3538 21.6234 28.4745 21.3625 28.4938C20.4063 28.55 19.1 28.575 18.9813 28.5688C15.1688 28.325 12.9125 25.7813 10.7563 22.9438C8.49759 19.9355 6.73567 16.5847 5.5375 13.0188C5.51301 12.9433 5.50659 12.8632 5.51877 12.7848C5.53095 12.7064 5.56137 12.632 5.60759 12.5675C5.65382 12.503 5.71454 12.4503 5.78488 12.4136C5.85521 12.3769 5.93318 12.3573 6.0125 12.3563Z" fill="white"/>
</g>
<defs>
<clipPath id="clip0_63_1017">
<rect width="40" height="40" fill="white"/>
</clipPath>
</defs>
</svg>
