<svg width="40" height="40" viewBox="0 0 40 40" fill="none" xmlns="http://www.w3.org/2000/svg">
<g clip-path="url(#clip0_63_1026)">
<path d="M34 0H6C2.68629 0 0 2.68629 0 6V34C0 37.3137 2.68629 40 6 40H34C37.3137 40 40 37.3137 40 34V6C40 2.68629 37.3137 0 34 0Z" fill="#ED1D24"/>
<path d="M33.3594 13.203C33.0469 12.0311 32.0313 11.0936 30.8594 10.7811C28.2031 10.078 12.1875 9.9999 9.14063 10.7811C7.96875 11.0936 6.95313 12.0311 6.64063 13.203C5.9375 16.1718 5.85938 23.7499 6.64063 26.7968C6.95313 27.9686 7.96875 28.9061 9.14063 29.2186C11.9531 29.9999 27.9688 29.9999 30.8594 29.2186C32.0313 28.9061 33.0469 27.9686 33.3594 26.7968C34.0625 23.9843 34.0625 16.0936 33.3594 13.203Z" fill="white"/>
<path d="M17.1875 15.8594V24.1406L24.4531 20" fill="#ED1D24"/>
</g>
<defs>
<clipPath id="clip0_63_1026">
<rect width="40" height="40" fill="white"/>
</clipPath>
</defs>
</svg>
