<svg width="12" height="14" viewBox="0 0 12 14" fill="none" xmlns="http://www.w3.org/2000/svg">
<mask id="path-1-inside-1_582_3110" fill="white">
<path d="M6.98333 7.71363C8.19325 7.73955 9.36565 7.34819 10.2435 6.62534C11.1214 5.90248 11.6332 4.90712 11.6667 3.85742C11.6332 2.80772 11.1214 1.81235 10.2435 1.0895C9.36565 0.366649 8.19325 -0.0247099 6.98333 0.00121014H2.22222C2.07488 0.00121014 1.93357 0.051995 1.82939 0.142392C1.7252 0.23279 1.66667 0.355395 1.66667 0.483236V6.74957H0.555556C0.408213 6.74957 0.266905 6.80036 0.162719 6.89076C0.0585317 6.98115 0 7.10376 0 7.2316C0 7.35944 0.0585317 7.48205 0.162719 7.57245C0.266905 7.66284 0.408213 7.71363 0.555556 7.71363H1.66667V8.67768H0.555556C0.408213 8.67768 0.266905 8.72846 0.162719 8.81886C0.0585317 8.90926 0 9.03186 0 9.15971C0 9.28755 0.0585317 9.41015 0.162719 9.50055C0.266905 9.59095 0.408213 9.64173 0.555556 9.64173H1.66667V13.0159C1.66667 13.1438 1.7252 13.2664 1.82939 13.3568C1.93357 13.4472 2.07488 13.4979 2.22222 13.4979C2.36956 13.4979 2.51087 13.4472 2.61506 13.3568C2.71925 13.2664 2.77778 13.1438 2.77778 13.0159V9.64173H7.77778C7.92512 9.64173 8.06643 9.59095 8.17062 9.50055C8.2748 9.41015 8.33333 9.28755 8.33333 9.15971C8.33333 9.03186 8.2748 8.90926 8.17062 8.81886C8.06643 8.72846 7.92512 8.67768 7.77778 8.67768H2.77778V7.71363H6.98333ZM2.77778 0.965262H6.98333C7.89822 0.940508 8.78725 1.2307 9.45648 1.77252C10.1257 2.31434 10.5208 3.06381 10.5556 3.85742C10.5222 4.65146 10.1276 5.40168 9.45803 5.94377C8.78848 6.48585 7.89862 6.77561 6.98333 6.74957H2.77778V0.965262Z"/>
</mask>
<path d="M6.98333 7.71363C8.19325 7.73955 9.36565 7.34819 10.2435 6.62534C11.1214 5.90248 11.6332 4.90712 11.6667 3.85742C11.6332 2.80772 11.1214 1.81235 10.2435 1.0895C9.36565 0.366649 8.19325 -0.0247099 6.98333 0.00121014H2.22222C2.07488 0.00121014 1.93357 0.051995 1.82939 0.142392C1.7252 0.23279 1.66667 0.355395 1.66667 0.483236V6.74957H0.555556C0.408213 6.74957 0.266905 6.80036 0.162719 6.89076C0.0585317 6.98115 0 7.10376 0 7.2316C0 7.35944 0.0585317 7.48205 0.162719 7.57245C0.266905 7.66284 0.408213 7.71363 0.555556 7.71363H1.66667V8.67768H0.555556C0.408213 8.67768 0.266905 8.72846 0.162719 8.81886C0.0585317 8.90926 0 9.03186 0 9.15971C0 9.28755 0.0585317 9.41015 0.162719 9.50055C0.266905 9.59095 0.408213 9.64173 0.555556 9.64173H1.66667V13.0159C1.66667 13.1438 1.7252 13.2664 1.82939 13.3568C1.93357 13.4472 2.07488 13.4979 2.22222 13.4979C2.36956 13.4979 2.51087 13.4472 2.61506 13.3568C2.71925 13.2664 2.77778 13.1438 2.77778 13.0159V9.64173H7.77778C7.92512 9.64173 8.06643 9.59095 8.17062 9.50055C8.2748 9.41015 8.33333 9.28755 8.33333 9.15971C8.33333 9.03186 8.2748 8.90926 8.17062 8.81886C8.06643 8.72846 7.92512 8.67768 7.77778 8.67768H2.77778V7.71363H6.98333ZM2.77778 0.965262H6.98333C7.89822 0.940508 8.78725 1.2307 9.45648 1.77252C10.1257 2.31434 10.5208 3.06381 10.5556 3.85742C10.5222 4.65146 10.1276 5.40168 9.45803 5.94377C8.78848 6.48585 7.89862 6.77561 6.98333 6.74957H2.77778V0.965262Z" fill="#FF2128"/>
<path d="M6.98333 7.71363L7.02617 5.71409L7.00475 5.71363H6.98333V7.71363ZM11.6667 3.85742L13.6657 3.92113L13.6677 3.85742L13.6657 3.79371L11.6667 3.85742ZM6.98333 0.00121014V2.00121H7.00475L7.02617 2.00075L6.98333 0.00121014ZM1.66667 6.74957V8.74957H3.66667V6.74957H1.66667ZM0 7.2316L2 7.2316L0 7.2316ZM1.66667 7.71363H3.66667V5.71363H1.66667V7.71363ZM1.66667 8.67768V10.6777H3.66667V8.67768H1.66667ZM0 9.15971L2 9.15971L0 9.15971ZM1.66667 9.64173H3.66667V7.64173H1.66667V9.64173ZM2.77778 9.64173V7.64173H0.777778V9.64173H2.77778ZM2.77778 8.67768H0.777778V10.6777H2.77778V8.67768ZM2.77778 7.71363V5.71363H0.777778V7.71363H2.77778ZM2.77778 0.965262V-1.03474H0.777778V0.965262H2.77778ZM6.98333 0.965262V2.96526H7.01039L7.03743 2.96453L6.98333 0.965262ZM10.5556 3.85742L12.5538 3.94126L12.5574 3.85558L12.5536 3.7699L10.5556 3.85742ZM6.98333 6.74957L7.0402 4.75038L7.01177 4.74957H6.98333V6.74957ZM2.77778 6.74957H0.777778V8.74957H2.77778V6.74957ZM6.9405 9.71317C8.59555 9.74862 10.2426 9.21686 11.5148 8.1693L8.97226 5.08137C8.48872 5.47951 7.79095 5.73047 7.02617 5.71409L6.9405 9.71317ZM11.5148 8.1693C12.7955 7.11483 13.6122 5.59755 13.6657 3.92113L9.66768 3.79371C9.6542 4.21669 9.44741 4.69014 8.97226 5.08137L11.5148 8.1693ZM13.6657 3.79371C13.6122 2.11729 12.7955 0.600005 11.5148 -0.454466L8.97226 2.63347C9.44741 3.0247 9.6542 3.49815 9.66768 3.92113L13.6657 3.79371ZM11.5148 -0.454466C10.2426 -1.50203 8.59555 -2.03379 6.9405 -1.99833L7.02617 2.00075C7.79095 1.98437 8.48872 2.23532 8.97226 2.63347L11.5148 -0.454466ZM6.98333 -1.99879H2.22222V2.00121H6.98333V-1.99879ZM2.22222 -1.99879C1.62892 -1.99879 1.01263 -1.79683 0.518679 -1.36825L3.14009 1.65304C2.85451 1.90082 2.52084 2.00121 2.22222 2.00121V-1.99879ZM0.518679 -1.36825C0.0157721 -0.931907 -0.333333 -0.274081 -0.333333 0.483236H3.66667C3.66667 0.984871 3.43462 1.39749 3.14009 1.65304L0.518679 -1.36825ZM-0.333333 0.483236V6.74957H3.66667V0.483236H-0.333333ZM1.66667 4.74957H0.555556V8.74957H1.66667V4.74957ZM0.555556 4.74957C-0.0377393 4.74957 -0.654033 4.95153 -1.14799 5.38011L1.47343 8.4014C1.18784 8.64919 0.854165 8.74957 0.555556 8.74957V4.74957ZM-1.14799 5.38011C-1.6509 5.81646 -2 6.47429 -2 7.2316L2 7.2316C2 7.73323 1.76796 8.14585 1.47343 8.4014L-1.14799 5.38011ZM-2 7.2316C-2 7.98892 -1.6509 8.64674 -1.14799 9.08309L1.47343 6.0618C1.76796 6.31735 2 6.72997 2 7.2316L-2 7.2316ZM-1.14799 9.08309C-0.654033 9.51167 -0.0377393 9.71363 0.555556 9.71363V5.71363C0.854165 5.71363 1.18784 5.81402 1.47343 6.0618L-1.14799 9.08309ZM0.555556 9.71363H1.66667V5.71363H0.555556V9.71363ZM-0.333333 7.71363V8.67768H3.66667V7.71363H-0.333333ZM1.66667 6.67768H0.555556V10.6777H1.66667V6.67768ZM0.555556 6.67768C-0.0377393 6.67768 -0.654033 6.87964 -1.14799 7.30822L1.47343 10.3295C1.18784 10.5773 0.854165 10.6777 0.555556 10.6777V6.67768ZM-1.14799 7.30822C-1.6509 7.74456 -2 8.40239 -2 9.15971L2 9.15971C2 9.66134 1.76796 10.074 1.47343 10.3295L-1.14799 7.30822ZM-2 9.15971C-2 9.91702 -1.6509 10.5748 -1.14799 11.0112L1.47343 7.9899C1.76796 8.24546 2 8.65807 2 9.15971L-2 9.15971ZM-1.14799 11.0112C-0.654033 11.4398 -0.0377393 11.6417 0.555556 11.6417V7.64173C0.854165 7.64173 1.18784 7.74212 1.47343 7.9899L-1.14799 11.0112ZM0.555556 11.6417H1.66667V7.64173H0.555556V11.6417ZM-0.333333 9.64173V13.0159H3.66667V9.64173H-0.333333ZM-0.333333 13.0159C-0.333333 13.7732 0.0157704 14.4311 0.518679 14.8674L3.14009 11.8461C3.43463 12.1017 3.66667 12.5143 3.66667 13.0159H-0.333333ZM0.518679 14.8674C1.01263 15.296 1.62893 15.4979 2.22222 15.4979V11.4979C2.52083 11.4979 2.85451 11.5983 3.14009 11.8461L0.518679 14.8674ZM2.22222 15.4979C2.81552 15.4979 3.43181 15.296 3.92577 14.8674L1.30435 11.8461C1.58993 11.5983 1.92361 11.4979 2.22222 11.4979V15.4979ZM3.92577 14.8674C4.42867 14.4311 4.77778 13.7732 4.77778 13.0159H0.777778C0.777778 12.5143 1.00982 12.1017 1.30435 11.8461L3.92577 14.8674ZM4.77778 13.0159V9.64173H0.777778V13.0159H4.77778ZM2.77778 11.6417H7.77778V7.64173H2.77778V11.6417ZM7.77778 11.6417C8.37107 11.6417 8.98737 11.4398 9.48132 11.0112L6.85991 7.9899C7.14549 7.74212 7.47917 7.64173 7.77778 7.64173V11.6417ZM9.48132 11.0112C9.98423 10.5748 10.3333 9.91701 10.3333 9.15971H6.33333C6.33333 8.65808 6.56537 8.24546 6.85991 7.9899L9.48132 11.0112ZM10.3333 9.15971C10.3333 8.4024 9.98423 7.74457 9.48132 7.30822L6.85991 10.3295C6.56537 10.074 6.33333 9.66133 6.33333 9.15971H10.3333ZM9.48132 7.30822C8.98737 6.87964 8.37107 6.67768 7.77778 6.67768V10.6777C7.47917 10.6777 7.14549 10.5773 6.85991 10.3295L9.48132 7.30822ZM7.77778 6.67768H2.77778V10.6777H7.77778V6.67768ZM4.77778 8.67768V7.71363H0.777778V8.67768H4.77778ZM2.77778 9.71363H6.98333V5.71363H2.77778V9.71363ZM2.77778 2.96526H6.98333V-1.03474H2.77778V2.96526ZM7.03743 2.96453C7.50823 2.95179 7.92379 3.10493 8.19799 3.32693L10.715 0.218103C9.65072 -0.643538 8.2882 -1.07078 6.92924 -1.03401L7.03743 2.96453ZM8.19799 3.32693C8.46405 3.54234 8.55005 3.7756 8.55747 3.94493L12.5536 3.7699C12.4915 2.35202 11.7874 1.08633 10.715 0.218103L8.19799 3.32693ZM8.55731 3.77357C8.55025 3.94185 8.46507 4.17438 8.19954 4.38935L10.7165 7.49818C11.7901 6.62898 12.4942 5.36107 12.5538 3.94126L8.55731 3.77357ZM8.19954 4.38935C7.92581 4.61097 7.51054 4.76376 7.0402 4.75038L6.92647 8.74877C8.28669 8.78746 9.65116 8.36073 10.7165 7.49818L8.19954 4.38935ZM6.98333 4.74957H2.77778V8.74957H6.98333V4.74957ZM4.77778 6.74957V0.965262H0.777778V6.74957H4.77778Z" fill="#FF2128" mask="url(#path-1-inside-1_582_3110)"/>
</svg>
