<svg width="69" height="111" viewBox="0 0 69 111" fill="none" xmlns="http://www.w3.org/2000/svg">
<path d="M9.77891 91.4253C3.70407 81.4885 0.499831 69.9345 0.571377 58.2246C0.64293 46.5146 3.98706 35.1745 10.1809 25.6384C16.3747 16.1023 25.14 8.79844 35.3684 4.65042C45.5968 0.502397 56.8289 -0.30346 67.6443 2.33475C78.4597 4.97296 88.3726 10.9367 96.1296 19.472C103.886 28.0072 109.139 38.7304 111.223 50.2858C113.307 61.8411 112.129 73.7094 107.837 84.39C103.546 95.0706 96.3338 104.084 87.1134 110.29L70.4676 83.0617C74.6911 80.219 77.9946 76.0905 79.9603 71.1981C81.9261 66.3058 82.4658 60.8694 81.5112 55.5764C80.5566 50.2833 78.1507 45.3714 74.5975 41.4618C71.0444 37.5522 66.5037 34.8204 61.5496 33.612C56.5955 32.4035 51.4506 32.7726 46.7653 34.6727C42.0801 36.5727 38.0651 39.9183 35.228 44.2864C32.3908 48.6545 30.859 53.8489 30.8263 59.2128C30.7935 64.5767 32.2612 69.869 35.0439 74.4207L9.77891 91.4253Z" fill="#FFADAD"/>
</svg>
