<svg width="112" height="63" viewBox="0 0 112 63" fill="none" xmlns="http://www.w3.org/2000/svg">
<path d="M0.00637461 44.2231C3.51977 33.119 10.1369 23.1203 19.0211 15.4914C27.9053 7.86252 38.6574 2.94605 49.9178 1.36373C61.1783 -0.218587 72.4412 1.60431 82.2825 6.60192C92.1237 11.5995 100.101 19.5474 105.206 29.4404C110.311 39.3334 112.314 50.7273 110.962 62.1812C109.61 73.6351 104.964 84.6346 97.6108 93.7888C90.2575 102.943 80.5277 109.841 69.6517 113.609C58.7757 117.378 47.242 117.849 36.509 114.962L46.136 84.5359C51.0523 85.8582 56.3354 85.6426 61.3173 83.9162C66.2991 82.1898 70.756 79.0303 74.1242 74.8372C77.4924 70.6441 79.6207 65.6056 80.24 60.3591C80.8593 55.1125 79.9417 49.8934 77.6034 45.3619C75.265 40.8303 71.6108 37.1897 67.1029 34.9005C62.5951 32.6113 57.436 31.7763 52.278 32.5011C47.1201 33.2259 42.195 35.4779 38.1255 38.9724C34.056 42.4669 31.025 47.0469 29.4157 52.1332L0.00637461 44.2231Z" fill="#FFADAD"/>
</svg>
