<svg width="124" height="124" viewBox="0 0 124 124" fill="none" xmlns="http://www.w3.org/2000/svg">
<g filter="url(#filter0_d_1083_11)">
<circle cx="61" cy="61" r="50" fill="white"/>
</g>
<path d="M60.5002 55.6668C66.1151 55.6668 70.6668 50.8912 70.6668 45.0002C70.6668 39.1091 66.1151 34.3335 60.5002 34.3335C54.8853 34.3335 50.3335 39.1091 50.3335 45.0002C50.3335 50.8912 54.8853 55.6668 60.5002 55.6668Z" stroke="#041A36" stroke-width="2"/>
<path d="M80.8268 76.9998C80.8332 76.562 80.8332 76.1172 80.8332 75.6665C80.8332 69.039 71.7297 63.6665 60.4998 63.6665C49.27 63.6665 40.1665 69.039 40.1665 75.6665C40.1665 82.294 40.1665 87.6665 60.4998 87.6665C66.1703 87.6665 70.2593 87.2486 73.2082 86.5022" stroke="#041A36" stroke-width="2" stroke-linecap="round"/>
<defs>
<filter id="filter0_d_1083_11" x="0" y="0" width="124" height="124" filterUnits="userSpaceOnUse" color-interpolation-filters="sRGB">
<feFlood flood-opacity="0" result="BackgroundImageFix"/>
<feColorMatrix in="SourceAlpha" type="matrix" values="0 0 0 0 0 0 0 0 0 0 0 0 0 0 0 0 0 0 127 0" result="hardAlpha"/>
<feOffset dx="1" dy="1"/>
<feGaussianBlur stdDeviation="6"/>
<feComposite in2="hardAlpha" operator="out"/>
<feColorMatrix type="matrix" values="0 0 0 0 0 0 0 0 0 0 0 0 0 0 0 0 0 0 0.14 0"/>
<feBlend mode="normal" in2="BackgroundImageFix" result="effect1_dropShadow_1083_11"/>
<feBlend mode="normal" in="SourceGraphic" in2="effect1_dropShadow_1083_11" result="shape"/>
</filter>
</defs>
</svg>
