<svg width="45" height="45" viewBox="0 0 45 45" fill="none" xmlns="http://www.w3.org/2000/svg">
<rect width="45" height="45" rx="22.5" fill="#328EE3"/>
<path d="M10.2686 33.8621C10.4626 33.9162 10.6609 33.7909 10.7116 33.5758C11.4573 30.468 14.4877 29.6625 16.299 29.1805C16.7529 29.06 17.1112 28.9646 17.3443 28.8522C19.4076 27.8518 20.0801 26.2425 20.2814 25.0683C20.306 24.9268 20.2604 24.7812 20.1619 24.6858C19.0876 23.6499 18.1812 22.0947 17.6093 20.3059C17.5934 20.255 17.568 20.2081 17.5347 20.1676C16.7782 19.2489 16.3439 18.2777 16.3439 17.5038C16.3439 17.0517 16.4966 16.7485 16.8405 16.5196C16.9455 16.4492 17.0113 16.3255 17.0164 16.1897C17.1764 12.0702 19.8028 8.82729 23.0244 8.80627C23.028 8.80627 23.0982 8.81193 23.1018 8.81193C26.3393 8.86207 28.9491 12.1745 29.0425 16.3522C29.0454 16.4678 29.0917 16.5762 29.1713 16.6506C29.3979 16.8649 29.5036 17.1366 29.5036 17.5054C29.5036 18.1532 29.1945 18.9497 28.6342 19.7471C28.6074 19.7851 28.5871 19.8288 28.5734 19.8749C27.9942 21.9257 26.9546 23.7364 25.7225 24.8443C25.6182 24.9381 25.569 25.0885 25.5936 25.2349C25.7949 26.4083 26.4674 28.0168 28.5307 29.0188C28.7746 29.1369 29.1532 29.229 29.6332 29.3447C31.4264 29.7782 34.4271 30.5052 35.1634 33.5758C35.2068 33.7561 35.353 33.875 35.5123 33.875C35.5434 33.875 35.5746 33.8701 35.6064 33.8613C35.7997 33.803 35.9141 33.5814 35.8627 33.3655C35.0121 29.8178 31.6125 28.9953 29.7867 28.5538C29.3632 28.4511 28.9976 28.3629 28.8195 28.2756C27.473 27.6222 26.6433 26.6267 26.3501 25.3117C27.6004 24.1124 28.6465 22.2621 29.2445 20.187C29.8793 19.2651 30.2283 18.3157 30.2283 17.5046C30.2283 16.9636 30.0719 16.5123 29.7621 16.1597C29.5898 11.6278 26.6947 8.05903 23.1018 8.00162L22.994 8C19.4662 8.02103 16.5589 11.496 16.3048 15.9495C15.8516 16.3215 15.6214 16.8431 15.6214 17.5054C15.6214 18.4621 16.1057 19.6064 16.9534 20.6561C17.5391 22.4538 18.4469 24.0332 19.5277 25.1387C19.236 26.4585 18.4056 27.4572 17.0562 28.1114C16.8818 28.1963 16.5343 28.2893 16.1318 28.3961C14.2922 28.8845 10.8694 29.7943 10.0123 33.3671C9.9609 33.5831 10.0753 33.8038 10.2686 33.8621Z" fill="white"/>
</svg>
