<svg width="57" height="50" viewBox="0 0 57 50" fill="none" xmlns="http://www.w3.org/2000/svg">
<path d="M46.1194 38.4893C41.0633 41.9043 34.8545 43.7447 28.4733 43.72C22.0921 43.6953 15.9021 41.8068 10.8806 38.3528L18.4518 35.2396C18.8123 35.0909 19.1584 34.9165 19.4865 34.7182C19.5861 34.6582 19.6856 34.5954 19.7805 34.5299C20.6045 33.9768 21.2828 33.2743 21.769 32.4703C22.1366 31.8525 22.3808 31.1841 22.491 30.494C22.567 30.0462 22.6054 29.5941 22.6061 29.1414C22.6061 28.3607 22.5579 27.58 22.5485 26.798C22.5423 26.3649 22.5371 25.9322 22.533 25.5L22.8442 25.6365L23.6533 26.0036L24.0282 26.0596L28.3662 26.7065L33.2082 27.4299L33.3545 31.7974L33.4027 33.2251L33.4261 33.9184V33.9634L35.3087 34.635L46.1194 38.4893Z" fill="#DE8276"/>
<path d="M33.3949 33.6916C32.8602 33.7723 32.31 33.6975 31.8281 33.4787L22.5439 26.8209C22.533 26.5125 22.5236 26.8359 22.519 26.5275C22.5128 26.0944 22.5076 25.6617 22.5034 25.2295L22.8146 25.366L23.6237 25.7331L23.9987 25.7891L28.3366 26.436L33.1787 27.1594L33.3249 31.5269L33.3732 32.9546L33.3965 33.6479V33.6929L33.3949 33.6916Z" fill="#A76962"/>
<path d="M38.1872 21.8237C37.9453 22.0456 37.6802 22.2471 37.3953 22.4256C35.7771 23.4533 33.6175 23.7904 31.7721 24.3445C30.9942 24.5779 22.5579 26.6812 22.5579 27.1384C22.5579 27.0388 21.7317 26.3195 20.6908 25.446C18.9343 23.9703 17.7098 22.0751 17.1689 19.9951C16.6279 17.9151 16.7943 15.7416 17.6474 13.7437C19.3449 9.83071 24.7564 7.13376 29.2889 6.51002C31.4469 6.21385 34.008 6.0487 36.0012 6.95633C37.0203 7.42174 37.8683 8.10007 38.6462 8.85211C38.889 9.08959 39.1244 9.33208 39.3526 9.57957C39.4507 9.6833 39.5471 9.78703 39.642 9.89212C43.1849 13.7956 41.9293 18.3747 38.1872 21.8237Z" fill="url(#paint0_linear_560_81)"/>
<path d="M38.1873 21.8238C37.9453 22.0457 37.6802 22.2472 37.3953 22.4257C37.3289 22.3241 37.2691 22.2193 37.2164 22.1118C36.8056 21.2929 36.594 20.4043 36.4384 19.5185C36.1961 18.2295 36.0304 16.9302 35.9421 15.626C35.8005 13.5323 34.7813 12.4937 36.8087 10.8613C37.5383 10.2748 38.4072 9.8375 39.3527 9.58105C39.4507 9.68478 39.5471 9.78851 39.6421 9.89361C43.1849 13.7957 41.9293 18.3748 38.1873 21.8238Z" fill="url(#paint1_linear_560_81)"/>
<path d="M21.002 24.0008C22.4629 24.0008 23.6471 22.962 23.6471 21.6806C23.6471 20.3992 22.4629 19.3604 21.002 19.3604C19.5412 19.3604 18.3569 20.3992 18.3569 21.6806C18.3569 22.962 19.5412 24.0008 21.002 24.0008Z" fill="#E18477"/>
<path d="M21.8422 23.7581C23.1501 23.7581 24.2104 22.8281 24.2104 21.6808C24.2104 20.5336 23.1501 19.6035 21.8422 19.6035C20.5344 19.6035 19.4741 20.5336 19.4741 21.6808C19.4741 22.8281 20.5344 23.7581 21.8422 23.7581Z" fill="#A76962"/>
<path d="M22.0399 19.4805C22.169 20.9627 22.1644 22.7725 22.2095 23.3021C22.3267 24.6296 22.4429 25.9567 22.558 27.2833L32.8956 32.5803C33.6117 32.8151 34.4018 32.8075 35.1117 32.5589C35.8217 32.3103 36.4007 31.8387 36.7357 31.2359C38.2231 28.5636 40.6099 24.3434 40.2956 22.7739C39.8289 20.4536 38.5841 19.6347 38.5841 19.6347L39.1022 16.9132C39.6266 14.1466 38.5452 11.5275 34.8608 11.2245C34.0828 11.1617 33.2161 11.2914 32.754 11.8359C31.5093 13.3045 32.2266 15.1116 30.3579 16.4764C28.0893 18.1183 23.0279 18.8349 21.8423 17.5096C21.8423 17.5096 21.9512 18.4473 22.0399 19.4805Z" fill="#DE8276"/>
<path d="M29.7976 25.2705C30.5452 26.0029 31.5701 26.4727 32.6823 26.5931" stroke="#00214E" stroke-miterlimit="10"/>
<path d="M33.4729 18.8271C33.4604 18.8749 35.5516 23.7584 35.5516 23.7584L32.7603 23.8771" stroke="#00214E" stroke-miterlimit="10"/>
<path d="M26.863 17.8793C28.3034 17.618 29.7849 17.581 31.2399 17.7701" stroke="#00214E" stroke-miterlimit="10"/>
<path d="M36.051 17.897C36.9402 17.7153 37.8568 17.6595 38.7661 17.7319" stroke="#00214E" stroke-miterlimit="10"/>
<path d="M46.1194 38.4885C41.0633 41.9034 34.8545 43.7439 28.4733 43.7191C22.0921 43.6944 15.9021 41.806 10.8806 38.352L18.4518 35.2388C18.8123 35.0901 19.1584 34.9157 19.4865 34.7174C19.5861 34.6573 19.6856 34.5945 19.7805 34.529C20.6045 33.976 21.2828 33.2735 21.769 32.4695C22.1366 31.8517 22.3808 31.1833 22.491 30.4932C22.6009 30.5866 22.7162 30.6749 22.8364 30.7579C23.7904 31.3768 24.8258 31.8928 25.9203 32.2948C26.4516 32.4892 26.995 32.6573 27.5478 32.7984C29.2132 33.2244 30.9521 33.3857 32.6823 33.2747C32.9219 33.2584 33.1631 33.2379 33.4027 33.2229L33.4261 33.9162V33.9613L35.3087 34.6328L46.1194 38.4885Z" fill="#00214E"/>
<path d="M28.9839 19.4141C29.933 19.4141 29.933 20.6943 28.9839 20.7011H28.9403C27.9896 20.7011 27.9896 19.4209 28.9403 19.4141H28.9823H28.9839Z" fill="#00214E"/>
<path d="M36.7837 19.2236C37.6644 19.2305 37.6644 20.4111 36.7837 20.4179H36.7433C35.8626 20.4179 35.8626 19.2305 36.7433 19.2236H36.7837Z" fill="#00214E"/>
<defs>
<linearGradient id="paint0_linear_560_81" x1="16.8476" y1="16.7082" x2="41.7394" y2="16.7082" gradientUnits="userSpaceOnUse">
<stop stop-color="#16243F"/>
<stop offset="1" stop-color="#6878B1"/>
</linearGradient>
<linearGradient id="paint1_linear_560_81" x1="34.1185" y1="9.95229" x2="40.5102" y2="21.5646" gradientUnits="userSpaceOnUse">
<stop stop-color="#16243F"/>
<stop offset="1" stop-color="#6878B1"/>
</linearGradient>
</defs>
</svg>
