<svg width="15" height="15" viewBox="0 0 15 15" fill="none" xmlns="http://www.w3.org/2000/svg">
<path d="M1.42969 0V15H11.1797L13.5703 12.6094V0H1.42969ZM11.2734 14.2266V12.5859H12.9141L11.2734 14.2266ZM13.1016 12.1406H10.8047V14.5312H1.89844V0.46875H13.1016V12.1406Z" fill="#808184"/>
<path d="M3.5625 2.22656H11.4141V2.69531H3.5625V2.22656ZM3.5625 3.86719H11.4141V4.33594H3.5625V3.86719ZM3.5625 5.50781H11.4141V5.97656H3.5625V5.50781ZM3.5625 7.14844H11.4141V7.61719H3.5625V7.14844ZM3.5625 8.78906H11.4141V9.25781H3.5625V8.78906ZM3.5625 10.4297H11.4141V10.8984H3.5625V10.4297Z" fill="#808184"/>
</svg>
