<svg width="35" height="35" viewBox="0 0 35 35" fill="none" xmlns="http://www.w3.org/2000/svg">
<path d="M34.3048 15.5558C34.6179 15.2367 34.8369 14.8372 34.9376 14.4015C35.0383 13.9657 35.0168 13.5107 34.8754 13.0864C34.7341 12.6621 34.4784 12.2851 34.1366 11.997C33.7947 11.7088 33.38 11.5208 32.9381 11.4534L24.1503 10.1106C24.0234 10.0909 23.9034 10.0402 23.8009 9.96288C23.6984 9.88559 23.6165 9.78414 23.5626 9.66756L19.6867 1.38903C19.4916 0.973722 19.1823 0.622559 18.7951 0.376589C18.4079 0.130618 17.9587 0 17.5 0C17.0413 0 16.5921 0.130618 16.2049 0.376589C15.8177 0.622559 15.5084 0.973722 15.3133 1.38903L11.4374 9.67303C11.3828 9.78858 11.3006 9.88894 11.1982 9.96525C11.0957 10.0416 10.976 10.0915 10.8497 10.1106L2.06191 11.4644C1.62003 11.5317 1.2053 11.7198 0.863447 12.0079C0.521598 12.2961 0.265905 12.673 0.124558 13.0973C-0.0167891 13.5216 -0.0383007 13.9767 0.0623945 14.4124C0.16309 14.8481 0.382081 15.2476 0.695225 15.5667L7.15419 22.2125C7.23962 22.3009 7.30335 22.4079 7.34035 22.5251C7.37735 22.6424 7.38661 22.7666 7.36739 22.888L5.85583 32.1867C5.78214 32.6348 5.83595 33.0947 6.01112 33.5136C6.18628 33.9326 6.47573 34.2939 6.84639 34.556C7.21704 34.8182 7.65394 34.9707 8.10714 34.9962C8.56034 35.0217 9.01156 34.919 9.40922 34.7L17.1201 30.4199C17.2349 30.3555 17.3643 30.3216 17.4959 30.3216C17.6275 30.3216 17.7569 30.3555 17.8717 30.4199L25.5826 34.7C25.9802 34.919 26.4315 35.0217 26.8847 34.9962C27.3379 34.9707 27.7748 34.8182 28.1454 34.556C28.5161 34.2939 28.8055 33.9326 28.9807 33.5136C29.1559 33.0947 29.2097 32.6348 29.136 32.1867L27.6244 22.888C27.605 22.7666 27.6141 22.6423 27.6511 22.525C27.6882 22.4078 27.752 22.3007 27.8376 22.2125L34.3048 15.5558ZM26.0172 23.1424L27.5287 32.441C27.5548 32.587 27.5382 32.7374 27.481 32.8742C27.4238 33.0109 27.3284 33.1283 27.2062 33.2122C27.0882 33.2977 26.9481 33.3473 26.8026 33.355C26.6572 33.3628 26.5126 33.3284 26.3862 33.256L18.6726 28.9814C18.3147 28.7811 17.9114 28.676 17.5014 28.676C17.0913 28.676 16.688 28.7811 16.3301 28.9814L8.61927 33.256C8.49276 33.3281 8.34822 33.3623 8.20285 33.3545C8.05748 33.3467 7.91739 33.2974 7.79926 33.2122C7.67709 33.1283 7.58169 33.0109 7.52449 32.8742C7.46728 32.7374 7.4507 32.587 7.47672 32.441L8.98828 23.1424C9.04935 22.7664 9.02158 22.3813 8.90719 22.018C8.79279 21.6547 8.59496 21.3232 8.32954 21.0502L1.87058 14.4126C1.76866 14.3092 1.69773 14.1794 1.66584 14.0377C1.63396 13.8961 1.64239 13.7484 1.69017 13.6113C1.7336 13.4741 1.8149 13.352 1.92468 13.2591C2.03447 13.1662 2.16827 13.1063 2.31065 13.0862L11.0984 11.7379C11.4913 11.6775 11.8632 11.5212 12.1812 11.2827C12.4992 11.0441 12.7536 10.7308 12.9216 10.3704L16.7948 2.0837C16.8568 1.94877 16.9562 1.83447 17.0812 1.75435C17.2062 1.67423 17.3516 1.63165 17.5 1.63165C17.6484 1.63165 17.7938 1.67423 17.9188 1.75435C18.0438 1.83447 18.1432 1.94877 18.2052 2.0837L22.0784 10.3704C22.2467 10.7311 22.5014 11.0447 22.82 11.2833C23.1385 11.5218 23.5109 11.678 23.9043 11.7379L32.6921 13.0862C32.8345 13.1063 32.9683 13.1662 33.0781 13.2591C33.1878 13.352 33.2691 13.4741 33.3126 13.6113C33.3603 13.7484 33.3688 13.8961 33.3369 14.0377C33.305 14.1794 33.2341 14.3092 33.1322 14.4126L26.6705 21.0502C26.406 21.3238 26.2092 21.6554 26.0958 22.0187C25.9823 22.382 25.9554 22.7668 26.0172 23.1424Z" fill="black"/>
</svg>
