<svg width="15" height="15" viewBox="0 0 15 15" fill="none" xmlns="http://www.w3.org/2000/svg">
<g clip-path="url(#clip0_538_136)">
<mask id="mask0_538_136" style="mask-type:luminance" maskUnits="userSpaceOnUse" x="0" y="0" width="15" height="15">
<path d="M15 0H0V15H15V0Z" fill="white"/>
</mask>
<g mask="url(#mask0_538_136)">
<path fill-rule="evenodd" clip-rule="evenodd" d="M6.53256 0.819711C7.03262 0.20886 7.96681 0.208858 8.46694 0.819711L9.08681 1.57687L10.0022 1.2311C10.7408 0.952149 11.5498 1.41922 11.6774 2.19829L11.8358 3.16396L12.8014 3.32223C13.5805 3.44992 14.0476 4.25891 13.7686 4.99745L13.4228 5.91288L14.18 6.53278C14.7908 7.03291 14.7908 7.96703 14.18 8.46715L13.4228 9.08709L13.7686 10.0025C14.0476 10.741 13.5805 11.55 12.8014 11.6777L11.8358 11.836L11.6775 12.8017C11.5498 13.5807 10.7408 14.0478 10.0022 13.7688L9.08681 13.4231L8.46694 14.1802C7.96681 14.7911 7.03262 14.7911 6.53256 14.1802L5.91264 13.4231L4.99721 13.7688C4.25866 14.0478 3.44967 13.5807 3.32199 12.8017L3.16371 11.836L2.19804 11.6777C1.41897 11.55 0.951906 10.741 1.23086 10.0025L1.57662 9.08709L0.819468 8.46715C0.208616 7.96703 0.208613 7.03291 0.819468 6.53278L1.57662 5.91288L1.23086 4.99745C0.9519 4.25891 1.41897 3.44992 2.19805 3.32223L3.16371 3.16396L3.32199 2.19829C3.44967 1.41922 4.25867 0.952149 4.99721 1.2311L5.91264 1.57687L6.53256 0.819711ZM7.00444 10.1294L11.3794 5.75442L10.4956 4.87054L6.5625 8.80359L4.50444 6.74553L3.62056 7.62941L6.12056 10.1294C6.23777 10.2467 6.39675 10.3125 6.5625 10.3125C6.72825 10.3125 6.88725 10.2467 7.00444 10.1294Z" fill="#3490DF"/>
</g>
</g>
<defs>
<clipPath id="clip0_538_136">
<rect width="15" height="15" fill="white"/>
</clipPath>
</defs>
</svg>
