<svg width="15" height="20" viewBox="0 0 15 20" fill="none" xmlns="http://www.w3.org/2000/svg">
<path d="M3.00444 7.62518C3.00444 6.6052 3.22657 5.66521 3.67081 4.80523C4.11506 3.94525 4.72368 3.26526 5.49667 2.76527C6.26966 2.26528 7.10484 2.01028 8.00222 2.00028C8.8996 1.99028 9.73478 2.24528 10.5078 2.76527C11.2808 3.28526 11.8894 3.96525 12.3336 4.80523C12.7779 5.64521 13 6.5852 13 7.62518C13 8.05517 12.9067 8.55516 12.7201 9.12515C12.5335 9.69514 12.2981 10.2701 12.0138 10.8501C11.7295 11.4301 11.4052 12.0201 11.0409 12.6201C10.6766 13.2201 10.3212 13.7801 9.97468 14.3001C9.62817 14.82 9.30387 15.28 9.00178 15.68C8.69969 16.08 8.4598 16.405 8.2821 16.655L8.00222 17C7.93114 16.92 7.83785 16.8 7.72235 16.64C7.60684 16.48 7.37139 16.165 7.01599 15.695C6.6606 15.225 6.33185 14.755 6.02976 14.2851C5.72768 13.8151 5.37672 13.2651 4.9769 12.6351C4.57708 12.0051 4.24833 11.4051 3.99067 10.8351C3.73301 10.2651 3.49756 9.70014 3.28432 9.14015C3.07108 8.58016 2.97779 8.07517 3.00444 7.62518ZM4.67037 7.62518C4.67037 8.66516 4.99467 9.55014 5.64327 10.2801C6.29187 11.0101 7.07819 11.3751 8.00222 11.3751C8.92626 11.3751 9.71257 11.0101 10.3612 10.2801C11.0098 9.55014 11.3341 8.66516 11.3341 7.62518C11.3341 6.5852 11.0098 5.70521 10.3612 4.98523C9.71257 4.26524 8.92626 3.89525 8.00222 3.87525C7.07819 3.85525 6.29187 4.22524 5.64327 4.98523C4.99467 5.74521 4.67037 6.6252 4.67037 7.62518ZM6.3363 7.62518C6.3363 7.11519 6.50067 6.6752 6.82941 6.3052C7.15815 5.93521 7.54909 5.75021 8.00222 5.75021C8.45535 5.75021 8.84629 5.93521 9.17503 6.3052C9.50378 6.6752 9.66815 7.11519 9.66815 7.62518C9.66815 8.13517 9.50378 8.58016 9.17503 8.96015C8.84629 9.34015 8.45535 9.52014 8.00222 9.50014C7.54909 9.48014 7.15815 9.30015 6.82941 8.96015C6.50067 8.62016 6.3363 8.17517 6.3363 7.62518Z" fill="#B7B7B7"/>
</svg>
