<svg width="61" height="61" viewBox="0 0 61 61" fill="none" xmlns="http://www.w3.org/2000/svg">
<g clip-path="url(#clip0_1418_121)">
<path d="M29.5468 42.8906C30.8629 42.8906 31.9296 43.9573 31.9296 45.2734C31.9296 46.5896 30.8629 47.6562 29.5468 47.6562H26.2109C24.8948 47.6562 23.8281 46.5896 23.8281 45.2734C23.8281 43.9573 24.8948 42.8906 26.2109 42.8906H29.5468ZM49.0858 30.1426C49.0858 28.8264 48.0192 27.7598 46.703 27.7598H26.2109C24.8948 27.7598 23.8281 28.8264 23.8281 30.1426C23.8281 31.4587 24.8948 32.5254 26.2109 32.5254H46.703C48.0192 32.5254 49.0858 31.4587 49.0858 30.1426ZM26.2109 18.2285H46.703C48.0192 18.2285 49.0858 17.1618 49.0858 15.8457C49.0858 14.5296 48.0192 13.4629 46.703 13.4629H26.2109C24.8948 13.4629 23.8281 14.5296 23.8281 15.8457C23.8281 17.1618 24.8948 18.2285 26.2109 18.2285ZM16.6797 42.8906H14.2968C12.9807 42.8906 11.914 43.9573 11.914 45.2734C11.914 46.5896 12.9807 47.6562 14.2968 47.6562H16.6797C17.9958 47.6562 19.0625 46.5896 19.0625 45.2734C19.0625 43.9573 17.9958 42.8906 16.6797 42.8906ZM16.6797 27.7598H14.2968C12.9807 27.7598 11.914 28.8264 11.914 30.1426C11.914 31.4587 12.9807 32.5254 14.2968 32.5254H16.6797C17.9958 32.5254 19.0625 31.4587 19.0625 30.1426C19.0625 28.8264 17.9958 27.7598 16.6797 27.7598ZM16.6797 13.4629H14.2968C12.9807 13.4629 11.914 14.5296 11.914 15.8457C11.914 17.1618 12.9807 18.2285 14.2968 18.2285H16.6797C17.9958 18.2285 19.0625 17.1618 19.0625 15.8457C19.0625 14.5296 17.9958 13.4629 16.6797 13.4629ZM60.3023 56.932C61.2326 57.8628 61.2326 59.3716 60.3023 60.3019C59.8369 60.7673 59.2267 61 58.6171 61C58.0074 61 57.3973 60.7673 56.9319 60.3024L52.9011 56.2716C51.296 57.2308 49.4205 57.7832 47.4179 57.7832C41.5055 57.7832 36.6952 52.9729 36.6952 47.0605C36.6952 41.1482 41.5055 36.3379 47.4179 36.3379C53.3302 36.3379 58.1405 41.1482 58.1405 47.0605C58.1405 49.2484 57.4815 51.2845 56.352 52.9827L60.3023 56.932ZM47.4179 53.0176C50.7026 53.0176 53.3749 50.3453 53.3749 47.0605C53.3749 43.7758 50.7026 41.1035 47.4179 41.1035C44.1331 41.1035 41.4609 43.7758 41.4609 47.0605C41.4609 50.3453 44.1331 53.0176 47.4179 53.0176ZM51.4687 0H9.53123C4.27556 0 0 4.27557 0 9.53125V51.4688C0 56.7244 4.27556 61 9.53123 61H34.0742C35.3903 61 36.457 59.9333 36.457 58.6172C36.457 57.3011 35.3903 56.2344 34.0742 56.2344H9.53123C6.90363 56.2344 4.76562 54.0964 4.76562 51.4688V9.53125C4.76562 6.90364 6.90363 4.76562 9.53123 4.76562H51.4687C54.0963 4.76562 56.2343 6.90364 56.2343 9.53125V33.1211C56.2343 34.4372 57.3009 35.5039 58.6171 35.5039C59.9332 35.5039 60.9999 34.4372 60.9999 33.1211V9.53125C60.9999 4.27557 56.7243 0 51.4687 0Z" fill="url(#paint0_linear_1418_121)"/>
</g>
<defs>
<linearGradient id="paint0_linear_1418_121" x1="0" y1="30.5" x2="60.9999" y2="30.5" gradientUnits="userSpaceOnUse">
<stop stop-color="#00F2FE"/>
<stop offset="0.0208" stop-color="#03EFFE"/>
<stop offset="0.2931" stop-color="#24D2FE"/>
<stop offset="0.5538" stop-color="#3CBDFE"/>
<stop offset="0.7956" stop-color="#4AB0FE"/>
<stop offset="1" stop-color="#4FACFE"/>
</linearGradient>
<clipPath id="clip0_1418_121">
<rect width="61" height="61" fill="white"/>
</clipPath>
</defs>
</svg>
