<svg width="61" height="61" viewBox="0 0 61 61" fill="none" xmlns="http://www.w3.org/2000/svg">
<path fill-rule="evenodd" clip-rule="evenodd" d="M15.8867 17.7916C15.8867 9.72386 22.4335 3.17706 30.5014 3.17706C33.8218 3.17706 36.87 4.25796 39.3324 6.13414C40.1699 6.77217 40.3315 7.96826 39.6935 8.80569C39.0553 9.64311 37.8592 9.80474 37.022 9.1667C35.2144 7.78955 32.9757 6.98956 30.5014 6.98956C24.5391 6.98956 19.6992 11.8294 19.6992 17.7916C19.6992 23.7539 24.5391 28.5937 30.5014 28.5937C36.4636 28.5937 41.3034 23.7539 41.3034 17.7916C41.3034 16.7389 42.1569 15.8854 43.2097 15.8854C44.2624 15.8854 45.1159 16.7389 45.1159 17.7916C45.1159 25.8594 38.5691 32.4062 30.5014 32.4062C22.4335 32.4062 15.8867 25.8594 15.8867 17.7916Z" fill="url(#paint0_linear_1431_29)"/>
<path fill-rule="evenodd" clip-rule="evenodd" d="M30.501 40.0312C19.1216 40.0312 10.5742 47.4806 10.5742 55.9167C10.5742 56.9694 9.72075 57.8229 8.66797 57.8229C7.61516 57.8229 6.76172 56.9694 6.76172 55.9167C6.76172 44.6802 17.7853 36.2188 30.501 36.2188C31.5537 36.2188 32.4072 37.0722 32.4072 38.125C32.4072 39.1778 31.5537 40.0312 30.501 40.0312Z" fill="url(#paint1_linear_1431_29)"/>
<path fill-rule="evenodd" clip-rule="evenodd" d="M46.2593 40.0313C42.8202 40.0313 40.0322 42.8192 40.0322 46.2583C40.0322 49.6975 42.8202 52.4854 46.2593 52.4854C49.6984 52.4854 52.4864 49.6975 52.4864 46.2583C52.4864 42.8192 49.6984 40.0313 46.2593 40.0313ZM36.2197 46.2583C36.2197 40.7137 40.7147 36.2188 46.2593 36.2188C51.804 36.2188 56.2989 40.7137 56.2989 46.2583C56.2989 51.803 51.804 56.2979 46.2593 56.2979C40.7147 56.2979 36.2197 51.803 36.2197 46.2583Z" fill="url(#paint2_linear_1431_29)"/>
<path fill-rule="evenodd" clip-rule="evenodd" d="M52.0281 52.0272C52.7723 51.2827 53.9793 51.2827 54.7238 52.0272L57.2654 54.5688C58.0099 55.3133 58.0099 56.5201 57.2654 57.2645C56.521 58.009 55.3139 58.009 54.5697 57.2645L52.0281 54.7228C51.2836 53.9784 51.2836 52.7716 52.0281 52.0272Z" fill="url(#paint3_linear_1431_29)"/>
<defs>
<linearGradient id="paint0_linear_1431_29" x1="32.2927" y1="3.17706" x2="32.2927" y2="57.8229" gradientUnits="userSpaceOnUse">
<stop stop-color="#FD5394"/>
<stop offset="1" stop-color="#8100E4"/>
</linearGradient>
<linearGradient id="paint1_linear_1431_29" x1="32.2924" y1="3.17709" x2="32.2924" y2="57.8229" gradientUnits="userSpaceOnUse">
<stop stop-color="#FD5394"/>
<stop offset="1" stop-color="#8100E4"/>
</linearGradient>
<linearGradient id="paint2_linear_1431_29" x1="32.2923" y1="3.17708" x2="32.2923" y2="57.8229" gradientUnits="userSpaceOnUse">
<stop stop-color="#FD5394"/>
<stop offset="1" stop-color="#8100E4"/>
</linearGradient>
<linearGradient id="paint3_linear_1431_29" x1="32.2923" y1="3.17708" x2="32.2923" y2="57.8229" gradientUnits="userSpaceOnUse">
<stop stop-color="#FD5394"/>
<stop offset="1" stop-color="#8100E4"/>
</linearGradient>
</defs>
</svg>
