<svg width="45" height="45" viewBox="0 0 45 45" fill="none" xmlns="http://www.w3.org/2000/svg">
<rect width="45" height="45" rx="22.5" fill="#172E5B"/>
<rect x="2.5" y="2.5" width="40" height="40" rx="20" stroke="#6EB6F8"/>
<g filter="url(#filter0_d_954_29)">
<path d="M9.0166 25.8213C9.40397 26.04 9.7959 26.2383 10.1924 26.416C10.5934 26.5892 11.0081 26.7373 11.4365 26.8604C11.8649 26.9788 12.3138 27.07 12.7832 27.1338C13.2572 27.1976 13.7607 27.2295 14.2939 27.2295C14.9365 27.2295 15.4834 27.1885 15.9346 27.1064C16.3857 27.0199 16.7526 26.9036 17.0352 26.7578C17.3223 26.6074 17.5296 26.4297 17.6572 26.2246C17.7894 26.0195 17.8555 25.7962 17.8555 25.5547C17.8555 25.1673 17.6937 24.862 17.3701 24.6387C17.0465 24.4108 16.5475 24.2969 15.873 24.2969C15.5768 24.2969 15.2646 24.3174 14.9365 24.3584C14.6084 24.3949 14.2757 24.4359 13.9385 24.4814C13.6058 24.527 13.2754 24.5703 12.9473 24.6113C12.6237 24.6478 12.3184 24.666 12.0312 24.666C11.5527 24.666 11.0924 24.6045 10.6504 24.4814C10.2129 24.3584 9.82324 24.1738 9.48145 23.9277C9.14421 23.6816 8.87533 23.374 8.6748 23.0049C8.47428 22.6357 8.37402 22.2051 8.37402 21.7129C8.37402 21.4212 8.41276 21.1318 8.49023 20.8447C8.57227 20.5576 8.69987 20.2842 8.87305 20.0244C9.05078 19.7601 9.27865 19.5163 9.55664 19.293C9.83464 19.0651 10.1696 18.8691 10.5615 18.7051C10.958 18.541 11.4137 18.4134 11.9287 18.3223C12.4482 18.2266 13.0384 18.1787 13.6992 18.1787C14.1777 18.1787 14.6585 18.2061 15.1416 18.2607C15.6247 18.3109 16.0941 18.3838 16.5498 18.4795C17.0101 18.5752 17.4521 18.6914 17.876 18.8281C18.2998 18.9603 18.694 19.1084 19.0586 19.2725L18.1084 21.0225C17.8076 20.8903 17.484 20.7695 17.1377 20.6602C16.7913 20.5462 16.429 20.4482 16.0508 20.3662C15.6725 20.2842 15.2806 20.2204 14.875 20.1748C14.474 20.1247 14.0638 20.0996 13.6445 20.0996C13.0475 20.0996 12.5553 20.1429 12.168 20.2295C11.7852 20.3161 11.4798 20.4277 11.252 20.5645C11.0241 20.6966 10.8646 20.847 10.7734 21.0156C10.6868 21.1797 10.6436 21.3438 10.6436 21.5078C10.6436 21.8268 10.7871 22.0889 11.0742 22.2939C11.3613 22.4945 11.7988 22.5947 12.3867 22.5947C12.6237 22.5947 12.8949 22.5788 13.2002 22.5469C13.5101 22.5104 13.8337 22.4717 14.1709 22.4307C14.5127 22.3896 14.859 22.3532 15.21 22.3213C15.5654 22.2848 15.9095 22.2666 16.2422 22.2666C16.8711 22.2666 17.4271 22.3372 17.9102 22.4785C18.3978 22.6198 18.8057 22.8226 19.1338 23.0869C19.4619 23.3467 19.7103 23.6634 19.8789 24.0371C20.0475 24.4062 20.1318 24.821 20.1318 25.2812C20.1318 25.8965 19.9883 26.4456 19.7012 26.9287C19.4186 27.4072 19.013 27.8128 18.4844 28.1455C17.9603 28.4736 17.3268 28.7243 16.584 28.8975C15.8411 29.0661 15.014 29.1504 14.1025 29.1504C13.501 29.1504 12.9131 29.1117 12.3389 29.0342C11.7646 28.9613 11.2132 28.8564 10.6846 28.7197C10.1605 28.5785 9.65918 28.4121 9.18066 28.2207C8.70671 28.0247 8.26693 27.8105 7.86133 27.5781L9.0166 25.8213ZM21.1367 18.3154H23.502L26.4004 25.2129L27.0703 26.8809L27.5967 25.2129L28.6631 22.6973L26.7422 18.3154H28.9707L29.7568 20.4004L30.4883 18.3154H32.7168L30.7959 22.6973L31.8828 25.2676L32.5391 26.8809L33.0449 25.2402L35.957 18.3154H38.3223L33.6055 29H31.459L30.5088 26.8809L29.7363 24.8232L28.9639 26.8809L28 29H25.8535L21.1367 18.3154Z" fill="#6EB6F8"/>
</g>
<defs>
<filter id="filter0_d_954_29" x="7.86133" y="18.1787" width="34.4609" height="12.9717" filterUnits="userSpaceOnUse" color-interpolation-filters="sRGB">
<feFlood flood-opacity="0" result="BackgroundImageFix"/>
<feColorMatrix in="SourceAlpha" type="matrix" values="0 0 0 0 0 0 0 0 0 0 0 0 0 0 0 0 0 0 127 0" result="hardAlpha"/>
<feOffset dx="3" dy="1"/>
<feGaussianBlur stdDeviation="0.5"/>
<feComposite in2="hardAlpha" operator="out"/>
<feColorMatrix type="matrix" values="0 0 0 0 0 0 0 0 0 0 0 0 0 0 0 0 0 0 0.25 0"/>
<feBlend mode="normal" in2="BackgroundImageFix" result="effect1_dropShadow_954_29"/>
<feBlend mode="normal" in="SourceGraphic" in2="effect1_dropShadow_954_29" result="shape"/>
</filter>
</defs>
</svg>
