<svg width="35" height="35" viewBox="0 0 35 35" fill="none" xmlns="http://www.w3.org/2000/svg">
<path d="M17.5 3.86719C9.96864 3.86719 3.8667 9.96913 3.8667 17.5005C3.8667 25.0297 9.96864 31.1316 17.5 31.1316C25.0292 31.1316 31.1311 25.0297 31.1311 17.5005C31.1311 9.96913 25.0292 3.86719 17.5 3.86719ZM12.9175 25.7257C10.904 25.7257 9.2704 24.0943 9.2704 22.0786C9.2704 20.0651 10.904 18.4315 12.9175 18.4315C14.9332 18.4315 16.5646 20.0651 16.5646 22.0786C16.5646 24.0943 14.9332 25.7257 12.9175 25.7257ZM12.9175 16.5695C10.904 16.5695 9.2704 14.9381 9.2704 12.9224C9.2704 10.9067 10.904 9.27528 12.9175 9.27528C14.9332 9.27528 16.5646 10.9067 16.5646 12.9224C16.5646 14.9381 14.9332 16.5695 12.9175 16.5695ZM22.0825 25.7257C20.069 25.7257 18.4354 24.0943 18.4354 22.0786C18.4354 20.0651 20.069 18.4315 22.0825 18.4315C24.096 18.4315 25.7296 20.0651 25.7296 22.0786C25.7296 24.0943 24.096 25.7257 22.0825 25.7257ZM22.0825 16.5695C20.069 16.5695 18.4354 14.9381 18.4354 12.9224C18.4354 10.9067 20.069 9.27528 22.0825 9.27528C24.096 9.27528 25.7296 10.9067 25.7296 12.9224C25.7296 14.9381 24.096 16.5695 22.0825 16.5695Z" fill="#3490DF"/>
<path d="M17.5 0C7.85194 0 0 7.85194 0 17.5C0 27.1481 7.85194 35 17.5 35C27.1481 35 35 27.1481 35 17.5C35 7.85194 27.1481 0 17.5 0ZM17.5 33.0151C8.94322 33.0151 1.98275 26.0546 1.98275 17.5C1.98275 8.94322 8.94322 1.98275 17.5 1.98275C26.0546 1.98275 33.0151 8.94322 33.0151 17.5C33.0151 26.0546 26.0546 33.0151 17.5 33.0151Z" fill="#3490DF"/>
</svg>
