<svg width="178" height="35" viewBox="0 0 178 35" fill="none" xmlns="http://www.w3.org/2000/svg">
<path d="M48.4487 21.1401C48.9191 21.4058 49.395 21.6465 49.8765 21.8623C50.3634 22.0726 50.867 22.2524 51.3872 22.4019C51.9074 22.5457 52.4525 22.6564 53.0225 22.7339C53.598 22.8114 54.2095 22.8501 54.8569 22.8501C55.6372 22.8501 56.3013 22.8003 56.8491 22.7007C57.397 22.5955 57.8424 22.4544 58.1855 22.2773C58.5342 22.0947 58.786 21.8789 58.9409 21.6299C59.1014 21.3809 59.1816 21.1097 59.1816 20.8164C59.1816 20.346 58.9852 19.9753 58.5923 19.7041C58.1994 19.4274 57.5934 19.2891 56.7744 19.2891C56.4147 19.2891 56.0356 19.314 55.6372 19.3638C55.2388 19.408 54.8348 19.4578 54.4253 19.5132C54.0213 19.5685 53.6201 19.6211 53.2217 19.6709C52.8288 19.7152 52.458 19.7373 52.1094 19.7373C51.5283 19.7373 50.9694 19.6626 50.4326 19.5132C49.9014 19.3638 49.4282 19.1396 49.0132 18.8408C48.6037 18.542 48.2772 18.1685 48.0337 17.7202C47.7902 17.272 47.6685 16.749 47.6685 16.1514C47.6685 15.7972 47.7155 15.4458 47.8096 15.0972C47.9092 14.7485 48.0641 14.4165 48.2744 14.1011C48.4902 13.7801 48.7669 13.484 49.1045 13.2129C49.4421 12.9362 49.8488 12.6982 50.3247 12.499C50.8062 12.2998 51.3595 12.1449 51.9849 12.0342C52.6157 11.918 53.3324 11.8599 54.1348 11.8599C54.7158 11.8599 55.2996 11.8931 55.8862 11.9595C56.4728 12.0203 57.0428 12.1089 57.5962 12.2251C58.1551 12.3413 58.6919 12.4824 59.2065 12.6484C59.7212 12.8089 60.1999 12.9888 60.6426 13.188L59.4888 15.313C59.1235 15.1525 58.7306 15.0059 58.3101 14.873C57.8895 14.7347 57.4495 14.6157 56.9902 14.5161C56.5309 14.4165 56.055 14.339 55.5625 14.2837C55.0755 14.2228 54.5775 14.1924 54.0684 14.1924C53.3434 14.1924 52.7458 14.245 52.2754 14.3501C51.8105 14.4552 51.4398 14.5908 51.1631 14.7568C50.8864 14.9173 50.6927 15.0999 50.582 15.3047C50.4769 15.5039 50.4243 15.7031 50.4243 15.9023C50.4243 16.2897 50.5986 16.6079 50.9473 16.8569C51.2959 17.1004 51.8271 17.2222 52.541 17.2222C52.8288 17.2222 53.158 17.2028 53.5288 17.1641C53.9051 17.1198 54.298 17.0728 54.7075 17.0229C55.1226 16.9731 55.5431 16.9289 55.9692 16.8901C56.4009 16.8459 56.8187 16.8237 57.2227 16.8237C57.9863 16.8237 58.6615 16.9095 59.248 17.0811C59.8402 17.2526 60.3354 17.4989 60.7339 17.8198C61.1323 18.1353 61.4339 18.5199 61.6387 18.9736C61.8434 19.4219 61.9458 19.9255 61.9458 20.4844C61.9458 21.2314 61.7715 21.8983 61.4229 22.4849C61.0798 23.0659 60.5872 23.5584 59.9453 23.9624C59.3089 24.3608 58.5397 24.6652 57.6377 24.8755C56.7357 25.0802 55.7313 25.1826 54.6245 25.1826C53.894 25.1826 53.1802 25.1356 52.4829 25.0415C51.7856 24.953 51.116 24.8257 50.4741 24.6597C49.8377 24.4881 49.229 24.2861 48.6479 24.0537C48.0724 23.8158 47.5384 23.5557 47.0459 23.2734L48.4487 21.1401ZM64.0708 20.0693C64.0708 19.4053 64.2064 18.7716 64.4775 18.1685C64.7487 17.5597 65.1388 17.0229 65.6479 16.5581C66.1571 16.0933 66.7796 15.7225 67.5156 15.4458C68.2572 15.1691 69.0983 15.0308 70.0391 15.0308C70.9743 15.0308 71.8154 15.1719 72.5625 15.4541C73.3151 15.7308 73.9515 16.1126 74.4717 16.5996C74.9974 17.0866 75.3986 17.6593 75.6753 18.3179C75.9575 18.9764 76.0986 19.682 76.0986 20.4346C76.0986 20.5286 76.0959 20.631 76.0903 20.7417C76.0903 20.8468 76.0848 20.9437 76.0737 21.0322H66.8101C66.9152 21.3255 67.084 21.5939 67.3164 21.8374C67.5544 22.0809 67.8504 22.2912 68.2046 22.4683C68.5588 22.6453 68.9683 22.7837 69.4331 22.8833C69.8979 22.9774 70.4126 23.0244 70.9771 23.0244C71.5415 23.0244 72.1032 22.9663 72.6621 22.8501C73.221 22.7284 73.755 22.5762 74.2642 22.3936L75.0942 24.2695C74.7733 24.4189 74.4468 24.5518 74.1147 24.668C73.7882 24.7786 73.4451 24.8727 73.0854 24.9502C72.7313 25.0221 72.3577 25.0775 71.9648 25.1162C71.5775 25.1549 71.168 25.1743 70.7363 25.1743C69.6351 25.1743 68.6694 25.0415 67.8394 24.7759C67.0093 24.5103 66.3148 24.1478 65.7559 23.6885C65.1969 23.2292 64.7764 22.6896 64.4941 22.0698C64.2119 21.45 64.0708 20.7832 64.0708 20.0693ZM73.4922 19.1147C73.4036 18.8436 73.2653 18.5918 73.0771 18.3594C72.8945 18.1214 72.6649 17.9167 72.3882 17.7451C72.1115 17.568 71.7905 17.4297 71.4253 17.3301C71.0601 17.2305 70.6589 17.1807 70.2217 17.1807C69.7568 17.1807 69.3335 17.2332 68.9517 17.3384C68.5698 17.4435 68.235 17.5846 67.9473 17.7617C67.6595 17.9388 67.4188 18.1436 67.2251 18.376C67.0369 18.6084 66.8986 18.8547 66.8101 19.1147H73.4922ZM77.3936 15.1968H80.2407L82.7891 21.0903L83.5361 22.7422L84.4492 20.6006L82.0254 15.1968H84.416L85.603 18.1021L86.79 15.1968H89.1807L86.7485 20.6006L87.6699 22.7422L88.417 21.0903L90.9653 15.1968H93.8125L89.1724 25H86.4995L85.603 23.1074L84.7065 25H82.0337L77.3936 15.1968ZM96.8257 13.8687C96.5822 13.8687 96.3608 13.8354 96.1616 13.769C95.9679 13.6971 95.8019 13.603 95.6636 13.4868C95.5252 13.3651 95.4173 13.2267 95.3398 13.0718C95.2679 12.9113 95.2319 12.7425 95.2319 12.5654C95.2319 12.3828 95.2679 12.214 95.3398 12.0591C95.4173 11.8986 95.5252 11.7603 95.6636 11.644C95.8019 11.5278 95.9679 11.4365 96.1616 11.3701C96.3608 11.2982 96.5822 11.2622 96.8257 11.2622C97.0747 11.2622 97.2961 11.2982 97.4897 11.3701C97.689 11.4365 97.8577 11.5278 97.9961 11.644C98.1344 11.7603 98.2396 11.8986 98.3115 12.0591C98.389 12.214 98.4277 12.3828 98.4277 12.5654C98.4277 12.7425 98.389 12.9113 98.3115 13.0718C98.2396 13.2267 98.1344 13.3651 97.9961 13.4868C97.8577 13.603 97.689 13.6971 97.4897 13.769C97.2961 13.8354 97.0747 13.8687 96.8257 13.8687ZM95.5972 15.2051H98.0542V25H95.5972V15.2051ZM101.208 15.2051H103.666V16.0352C104.319 15.6644 104.941 15.4043 105.533 15.2549C106.131 15.1055 106.715 15.0308 107.285 15.0308C108.032 15.0308 108.723 15.1414 109.36 15.3628C109.996 15.5786 110.547 15.9023 111.012 16.334C111.477 16.7656 111.839 17.3052 112.099 17.9526C112.365 18.5946 112.498 19.3389 112.498 20.1855V25H110.049V20.584C110.049 20.0472 109.971 19.5685 109.816 19.1479C109.667 18.7218 109.448 18.3649 109.161 18.0771C108.878 17.7839 108.533 17.5625 108.123 17.4131C107.719 17.2581 107.265 17.1807 106.762 17.1807C106.496 17.1807 106.222 17.2083 105.94 17.2637C105.663 17.319 105.389 17.3993 105.118 17.5044C104.853 17.604 104.595 17.7313 104.346 17.8862C104.097 18.0356 103.87 18.2072 103.666 18.4009V25H101.208V15.2051ZM117.055 26.6602C117.365 26.7708 117.68 26.8621 118.001 26.9341C118.322 27.0116 118.632 27.0724 118.931 27.1167C119.235 27.1665 119.526 27.1997 119.802 27.2163C120.079 27.2384 120.325 27.2495 120.541 27.2495C121.194 27.2495 121.761 27.1693 122.243 27.0088C122.73 26.8538 123.134 26.6436 123.455 26.3779C123.781 26.1123 124.025 25.8024 124.185 25.4482C124.346 25.0996 124.426 24.7288 124.426 24.3359V23.9126C124.215 24.0565 123.969 24.1948 123.687 24.3276C123.405 24.4604 123.095 24.5767 122.757 24.6763C122.42 24.7759 122.06 24.8561 121.678 24.917C121.302 24.9779 120.912 25.0083 120.508 25.0083C119.705 25.0083 118.964 24.8893 118.283 24.6514C117.603 24.4079 117.013 24.0703 116.515 23.6387C116.017 23.2015 115.627 22.6785 115.345 22.0698C115.068 21.4611 114.93 20.786 114.93 20.0444C114.93 19.2863 115.076 18.6001 115.37 17.9858C115.663 17.366 116.067 16.8376 116.582 16.4004C117.102 15.9632 117.716 15.6257 118.424 15.3877C119.133 15.1497 119.902 15.0308 120.732 15.0308C121.086 15.0308 121.438 15.0529 121.786 15.0972C122.135 15.1414 122.467 15.2023 122.782 15.2798C123.103 15.3573 123.402 15.4513 123.679 15.562C123.961 15.6672 124.21 15.7834 124.426 15.9106V15.2051H126.883V23.8794C126.883 24.7703 126.747 25.5589 126.476 26.2451C126.205 26.9313 125.806 27.5068 125.281 27.9717C124.761 28.4421 124.113 28.7962 123.338 29.0342C122.564 29.2777 121.675 29.3994 120.674 29.3994C120.314 29.3994 119.941 29.3828 119.553 29.3496C119.166 29.3219 118.776 29.2777 118.383 29.2168C117.995 29.1615 117.611 29.0923 117.229 29.0093C116.853 28.9318 116.49 28.8405 116.142 28.7354L117.055 26.6602ZM117.511 20.0195C117.511 20.4124 117.589 20.7832 117.744 21.1318C117.904 21.4749 118.131 21.7765 118.424 22.0366C118.718 22.2912 119.072 22.4932 119.487 22.6426C119.902 22.7865 120.369 22.8584 120.89 22.8584C121.227 22.8584 121.562 22.828 121.894 22.7671C122.232 22.7007 122.553 22.6094 122.857 22.4932C123.167 22.377 123.455 22.2358 123.72 22.0698C123.991 21.9038 124.227 21.7184 124.426 21.5137V18.2847C124.177 18.0854 123.914 17.9167 123.637 17.7783C123.361 17.64 123.078 17.5265 122.791 17.438C122.503 17.3494 122.212 17.2858 121.919 17.2471C121.626 17.2028 121.341 17.1807 121.064 17.1807C120.5 17.1807 119.996 17.2554 119.553 17.4048C119.116 17.5542 118.745 17.759 118.441 18.019C118.142 18.2736 117.912 18.5724 117.752 18.9155C117.591 19.2586 117.511 19.6266 117.511 20.0195ZM128.311 12.0259H131.183L134.702 20.4014L135.516 22.4268L136.155 20.4014L137.45 17.3467L135.117 12.0259H137.823L138.778 14.5576L139.666 12.0259H142.372L140.04 17.3467L141.359 20.4678L142.156 22.4268L142.771 20.4346L146.307 12.0259H149.179L143.451 25H140.845L139.691 22.4268L138.753 19.9282L137.815 22.4268L136.645 25H134.038L128.311 12.0259ZM150.416 20.0693C150.416 19.4053 150.551 18.7716 150.822 18.1685C151.093 17.5597 151.484 17.0229 151.993 16.5581C152.502 16.0933 153.124 15.7225 153.86 15.4458C154.602 15.1691 155.443 15.0308 156.384 15.0308C157.319 15.0308 158.16 15.1719 158.907 15.4541C159.66 15.7308 160.296 16.1126 160.816 16.5996C161.342 17.0866 161.743 17.6593 162.02 18.3179C162.302 18.9764 162.443 19.682 162.443 20.4346C162.443 20.5286 162.441 20.631 162.435 20.7417C162.435 20.8468 162.43 20.9437 162.418 21.0322H153.155C153.26 21.3255 153.429 21.5939 153.661 21.8374C153.899 22.0809 154.195 22.2912 154.549 22.4683C154.903 22.6453 155.313 22.7837 155.778 22.8833C156.243 22.9774 156.757 23.0244 157.322 23.0244C157.886 23.0244 158.448 22.9663 159.007 22.8501C159.566 22.7284 160.1 22.5762 160.609 22.3936L161.439 24.2695C161.118 24.4189 160.792 24.5518 160.459 24.668C160.133 24.7786 159.79 24.8727 159.43 24.9502C159.076 25.0221 158.702 25.0775 158.31 25.1162C157.922 25.1549 157.513 25.1743 157.081 25.1743C155.98 25.1743 155.014 25.0415 154.184 24.7759C153.354 24.5103 152.66 24.1478 152.101 23.6885C151.542 23.2292 151.121 22.6896 150.839 22.0698C150.557 21.45 150.416 20.7832 150.416 20.0693ZM159.837 19.1147C159.748 18.8436 159.61 18.5918 159.422 18.3594C159.239 18.1214 159.01 17.9167 158.733 17.7451C158.456 17.568 158.135 17.4297 157.77 17.3301C157.405 17.2305 157.004 17.1807 156.566 17.1807C156.102 17.1807 155.678 17.2332 155.296 17.3384C154.915 17.4435 154.58 17.5846 154.292 17.7617C154.004 17.9388 153.764 18.1436 153.57 18.376C153.382 18.6084 153.243 18.8547 153.155 19.1147H159.837ZM165.025 11.229H167.482V16.1265C167.698 15.9771 167.952 15.8359 168.246 15.7031C168.539 15.5703 168.854 15.4541 169.192 15.3545C169.529 15.2549 169.878 15.1774 170.238 15.1221C170.597 15.0612 170.957 15.0308 171.317 15.0308C172.147 15.0308 172.908 15.1525 173.6 15.396C174.297 15.6395 174.895 15.9826 175.393 16.4253C175.891 16.868 176.278 17.3993 176.555 18.019C176.837 18.6333 176.978 19.314 176.978 20.061C176.978 20.8413 176.831 21.5469 176.538 22.1777C176.245 22.8031 175.838 23.3398 175.318 23.7881C174.803 24.2308 174.189 24.5739 173.475 24.8174C172.767 25.0553 171.998 25.1743 171.167 25.1743C170.813 25.1743 170.462 25.1522 170.113 25.1079C169.77 25.0636 169.438 25.0028 169.117 24.9253C168.802 24.8478 168.503 24.7565 168.221 24.6514C167.944 24.5407 167.698 24.4217 167.482 24.2944V25H165.025V11.229ZM167.482 21.9204C167.731 22.1196 167.994 22.2884 168.271 22.4268C168.547 22.5651 168.829 22.6785 169.117 22.7671C169.405 22.8556 169.695 22.922 169.989 22.9663C170.282 23.005 170.567 23.0244 170.844 23.0244C171.408 23.0244 171.909 22.9497 172.346 22.8003C172.789 22.6453 173.16 22.4351 173.458 22.1694C173.763 21.9038 173.995 21.5911 174.156 21.2314C174.316 20.8717 174.396 20.4816 174.396 20.061C174.396 19.6681 174.316 19.2974 174.156 18.9487C174.001 18.6001 173.774 18.2957 173.475 18.0356C173.182 17.77 172.825 17.5625 172.404 17.4131C171.989 17.2581 171.522 17.1807 171.001 17.1807C170.669 17.1807 170.337 17.2139 170.005 17.2803C169.673 17.3411 169.352 17.4297 169.042 17.5459C168.738 17.6621 168.45 17.8032 168.179 17.9692C167.914 18.1353 167.681 18.3206 167.482 18.5254V21.9204Z" fill="white"/>
<path d="M17.5 3.86719C9.96864 3.86719 3.8667 9.96913 3.8667 17.5005C3.8667 25.0297 9.96864 31.1316 17.5 31.1316C25.0292 31.1316 31.1311 25.0297 31.1311 17.5005C31.1311 9.96913 25.0292 3.86719 17.5 3.86719ZM12.9175 25.7257C10.904 25.7257 9.2704 24.0943 9.2704 22.0786C9.2704 20.0651 10.904 18.4315 12.9175 18.4315C14.9332 18.4315 16.5646 20.0651 16.5646 22.0786C16.5646 24.0943 14.9332 25.7257 12.9175 25.7257ZM12.9175 16.5695C10.904 16.5695 9.2704 14.9381 9.2704 12.9224C9.2704 10.9067 10.904 9.27528 12.9175 9.27528C14.9332 9.27528 16.5646 10.9067 16.5646 12.9224C16.5646 14.9381 14.9332 16.5695 12.9175 16.5695ZM22.0825 25.7257C20.069 25.7257 18.4354 24.0943 18.4354 22.0786C18.4354 20.0651 20.069 18.4315 22.0825 18.4315C24.096 18.4315 25.7296 20.0651 25.7296 22.0786C25.7296 24.0943 24.096 25.7257 22.0825 25.7257ZM22.0825 16.5695C20.069 16.5695 18.4354 14.9381 18.4354 12.9224C18.4354 10.9067 20.069 9.27528 22.0825 9.27528C24.096 9.27528 25.7296 10.9067 25.7296 12.9224C25.7296 14.9381 24.096 16.5695 22.0825 16.5695Z" fill="#3490DF"/>
<path d="M17.5 0C7.85194 0 0 7.85194 0 17.5C0 27.1481 7.85194 35 17.5 35C27.1481 35 35 27.1481 35 17.5C35 7.85194 27.1481 0 17.5 0ZM17.5 33.0151C8.94322 33.0151 1.98275 26.0546 1.98275 17.5C1.98275 8.94322 8.94322 1.98275 17.5 1.98275C26.0546 1.98275 33.0151 8.94322 33.0151 17.5C33.0151 26.0546 26.0546 33.0151 17.5 33.0151Z" fill="#3490DF"/>
</svg>
