<svg width="220" height="45" viewBox="0 0 220 45" fill="none" xmlns="http://www.w3.org/2000/svg">
<rect width="45" height="45" rx="22.5" fill="#172E5B"/>
<rect x="2.5" y="2.5" width="40" height="40" rx="20" stroke="#6EB6F8"/>
<g filter="url(#filter0_d_945_26)">
<path d="M9.0166 25.8213C9.40397 26.04 9.7959 26.2383 10.1924 26.416C10.5934 26.5892 11.0081 26.7373 11.4365 26.8604C11.8649 26.9788 12.3138 27.07 12.7832 27.1338C13.2572 27.1976 13.7607 27.2295 14.2939 27.2295C14.9365 27.2295 15.4834 27.1885 15.9346 27.1064C16.3857 27.0199 16.7526 26.9036 17.0352 26.7578C17.3223 26.6074 17.5296 26.4297 17.6572 26.2246C17.7894 26.0195 17.8555 25.7962 17.8555 25.5547C17.8555 25.1673 17.6937 24.862 17.3701 24.6387C17.0465 24.4108 16.5475 24.2969 15.873 24.2969C15.5768 24.2969 15.2646 24.3174 14.9365 24.3584C14.6084 24.3949 14.2757 24.4359 13.9385 24.4814C13.6058 24.527 13.2754 24.5703 12.9473 24.6113C12.6237 24.6478 12.3184 24.666 12.0312 24.666C11.5527 24.666 11.0924 24.6045 10.6504 24.4814C10.2129 24.3584 9.82324 24.1738 9.48145 23.9277C9.14421 23.6816 8.87533 23.374 8.6748 23.0049C8.47428 22.6357 8.37402 22.2051 8.37402 21.7129C8.37402 21.4212 8.41276 21.1318 8.49023 20.8447C8.57227 20.5576 8.69987 20.2842 8.87305 20.0244C9.05078 19.7601 9.27865 19.5163 9.55664 19.293C9.83464 19.0651 10.1696 18.8691 10.5615 18.7051C10.958 18.541 11.4137 18.4134 11.9287 18.3223C12.4482 18.2266 13.0384 18.1787 13.6992 18.1787C14.1777 18.1787 14.6585 18.2061 15.1416 18.2607C15.6247 18.3109 16.0941 18.3838 16.5498 18.4795C17.0101 18.5752 17.4521 18.6914 17.876 18.8281C18.2998 18.9603 18.694 19.1084 19.0586 19.2725L18.1084 21.0225C17.8076 20.8903 17.484 20.7695 17.1377 20.6602C16.7913 20.5462 16.429 20.4482 16.0508 20.3662C15.6725 20.2842 15.2806 20.2204 14.875 20.1748C14.474 20.1247 14.0638 20.0996 13.6445 20.0996C13.0475 20.0996 12.5553 20.1429 12.168 20.2295C11.7852 20.3161 11.4798 20.4277 11.252 20.5645C11.0241 20.6966 10.8646 20.847 10.7734 21.0156C10.6868 21.1797 10.6436 21.3438 10.6436 21.5078C10.6436 21.8268 10.7871 22.0889 11.0742 22.2939C11.3613 22.4945 11.7988 22.5947 12.3867 22.5947C12.6237 22.5947 12.8949 22.5788 13.2002 22.5469C13.5101 22.5104 13.8337 22.4717 14.1709 22.4307C14.5127 22.3896 14.859 22.3532 15.21 22.3213C15.5654 22.2848 15.9095 22.2666 16.2422 22.2666C16.8711 22.2666 17.4271 22.3372 17.9102 22.4785C18.3978 22.6198 18.8057 22.8226 19.1338 23.0869C19.4619 23.3467 19.7103 23.6634 19.8789 24.0371C20.0475 24.4062 20.1318 24.821 20.1318 25.2812C20.1318 25.8965 19.9883 26.4456 19.7012 26.9287C19.4186 27.4072 19.013 27.8128 18.4844 28.1455C17.9603 28.4736 17.3268 28.7243 16.584 28.8975C15.8411 29.0661 15.014 29.1504 14.1025 29.1504C13.501 29.1504 12.9131 29.1117 12.3389 29.0342C11.7646 28.9613 11.2132 28.8564 10.6846 28.7197C10.1605 28.5785 9.65918 28.4121 9.18066 28.2207C8.70671 28.0247 8.26693 27.8105 7.86133 27.5781L9.0166 25.8213ZM21.1367 18.3154H23.502L26.4004 25.2129L27.0703 26.8809L27.5967 25.2129L28.6631 22.6973L26.7422 18.3154H28.9707L29.7568 20.4004L30.4883 18.3154H32.7168L30.7959 22.6973L31.8828 25.2676L32.5391 26.8809L33.0449 25.2402L35.957 18.3154H38.3223L33.6055 29H31.459L30.5088 26.8809L29.7363 24.8232L28.9639 26.8809L28 29H25.8535L21.1367 18.3154Z" fill="#6EB6F8"/>
</g>
<g filter="url(#filter1_d_945_26)">
<path d="M59.8809 25.459C60.4342 25.7715 60.9941 26.0547 61.5605 26.3086C62.1335 26.556 62.7259 26.7676 63.3379 26.9434C63.9499 27.1126 64.5911 27.2428 65.2617 27.334C65.9388 27.4251 66.6582 27.4707 67.4199 27.4707C68.3379 27.4707 69.1191 27.4121 69.7637 27.2949C70.4082 27.1712 70.9323 27.0052 71.3359 26.7969C71.7461 26.582 72.0423 26.3281 72.2246 26.0352C72.4134 25.7422 72.5078 25.4232 72.5078 25.0781C72.5078 24.5247 72.2767 24.0885 71.8145 23.7695C71.3522 23.444 70.6393 23.2812 69.6758 23.2812C69.2526 23.2812 68.8066 23.3105 68.3379 23.3691C67.8691 23.4212 67.3939 23.4798 66.9121 23.5449C66.4368 23.61 65.9648 23.6719 65.4961 23.7305C65.0339 23.7826 64.5977 23.8086 64.1875 23.8086C63.5039 23.8086 62.8464 23.7207 62.2148 23.5449C61.5898 23.3691 61.0332 23.1055 60.5449 22.7539C60.0632 22.4023 59.679 21.9629 59.3926 21.4355C59.1061 20.9082 58.9629 20.293 58.9629 19.5898C58.9629 19.1732 59.0182 18.7598 59.1289 18.3496C59.2461 17.9395 59.4284 17.5488 59.6758 17.1777C59.9297 16.8001 60.2552 16.4518 60.6523 16.1328C61.0495 15.8073 61.528 15.5273 62.0879 15.293C62.6543 15.0586 63.3053 14.8763 64.041 14.7461C64.7832 14.6094 65.6263 14.541 66.5703 14.541C67.2539 14.541 67.9408 14.5801 68.6309 14.6582C69.321 14.7298 69.9915 14.834 70.6426 14.9707C71.3001 15.1074 71.9316 15.2734 72.5371 15.4688C73.1426 15.6576 73.7057 15.8691 74.2266 16.1035L72.8691 18.6035C72.4395 18.4147 71.9772 18.2422 71.4824 18.0859C70.9876 17.9232 70.4701 17.7832 69.9297 17.666C69.3893 17.5488 68.8294 17.4577 68.25 17.3926C67.6771 17.321 67.0911 17.2852 66.4922 17.2852C65.6393 17.2852 64.9362 17.347 64.3828 17.4707C63.8359 17.5944 63.3997 17.7539 63.0742 17.9492C62.7487 18.138 62.5208 18.3529 62.3906 18.5938C62.2669 18.8281 62.2051 19.0625 62.2051 19.2969C62.2051 19.7526 62.4102 20.127 62.8203 20.4199C63.2305 20.7064 63.8555 20.8496 64.6953 20.8496C65.0339 20.8496 65.4212 20.8268 65.8574 20.7812C66.3001 20.7292 66.7624 20.6738 67.2441 20.6152C67.7324 20.5566 68.2272 20.5046 68.7285 20.459C69.2363 20.4069 69.7279 20.3809 70.2031 20.3809C71.1016 20.3809 71.8958 20.4818 72.5859 20.6836C73.2826 20.8854 73.8652 21.1751 74.334 21.5527C74.8027 21.9238 75.1576 22.3763 75.3984 22.9102C75.6393 23.4375 75.7598 24.0299 75.7598 24.6875C75.7598 25.5664 75.5547 26.3509 75.1445 27.041C74.7409 27.7246 74.1615 28.304 73.4062 28.7793C72.6576 29.248 71.7526 29.6061 70.6914 29.8535C69.6302 30.0944 68.4486 30.2148 67.1465 30.2148C66.2871 30.2148 65.4473 30.1595 64.627 30.0488C63.8066 29.9447 63.0189 29.7949 62.2637 29.5996C61.515 29.3978 60.7988 29.1602 60.1152 28.8867C59.4382 28.6068 58.8099 28.3008 58.2305 27.9688L59.8809 25.459ZM78.2598 24.1992C78.2598 23.418 78.4193 22.6725 78.7383 21.9629C79.0573 21.2467 79.5163 20.6152 80.1152 20.0684C80.7142 19.5215 81.4466 19.0853 82.3125 18.7598C83.1849 18.4342 84.1745 18.2715 85.2812 18.2715C86.3815 18.2715 87.3711 18.4375 88.25 18.7695C89.1354 19.0951 89.8841 19.5443 90.4961 20.1172C91.1146 20.6901 91.5866 21.3639 91.9121 22.1387C92.2441 22.9134 92.4102 23.7435 92.4102 24.6289C92.4102 24.7396 92.4069 24.86 92.4004 24.9902C92.4004 25.1139 92.3939 25.2279 92.3809 25.332H81.4824C81.6061 25.6771 81.8047 25.9928 82.0781 26.2793C82.3581 26.5658 82.7064 26.8132 83.123 27.0215C83.5397 27.2298 84.0215 27.3926 84.5684 27.5098C85.1152 27.6204 85.7207 27.6758 86.3848 27.6758C87.0488 27.6758 87.7096 27.6074 88.3672 27.4707C89.0247 27.3275 89.653 27.1484 90.252 26.9336L91.2285 29.1406C90.8509 29.3164 90.4668 29.4727 90.0762 29.6094C89.6921 29.7396 89.2884 29.8503 88.8652 29.9414C88.4486 30.026 88.0091 30.0911 87.5469 30.1367C87.0911 30.1823 86.6094 30.2051 86.1016 30.2051C84.806 30.2051 83.6699 30.0488 82.6934 29.7363C81.7168 29.4238 80.8997 28.9974 80.2422 28.457C79.5846 27.9167 79.0898 27.2819 78.7578 26.5527C78.4258 25.8236 78.2598 25.0391 78.2598 24.1992ZM89.3438 23.0762C89.2396 22.7572 89.0768 22.4609 88.8555 22.1875C88.6406 21.9076 88.3704 21.6667 88.0449 21.4648C87.7194 21.2565 87.3418 21.0938 86.9121 20.9766C86.4824 20.8594 86.0104 20.8008 85.4961 20.8008C84.9492 20.8008 84.4512 20.8626 84.002 20.9863C83.5527 21.11 83.1589 21.276 82.8203 21.4844C82.4818 21.6927 82.1986 21.9336 81.9707 22.207C81.7493 22.4805 81.5866 22.7702 81.4824 23.0762H89.3438ZM93.9336 18.4668H97.2832L100.281 25.4004L101.16 27.3438L102.234 24.8242L99.3828 18.4668H102.195L103.592 21.8848L104.988 18.4668H107.801L104.939 24.8242L106.023 27.3438L106.902 25.4004L109.9 18.4668H113.25L107.791 30H104.646L103.592 27.7734L102.537 30H99.3926L93.9336 18.4668ZM116.795 16.9043C116.508 16.9043 116.248 16.8652 116.014 16.7871C115.786 16.7025 115.59 16.5918 115.428 16.4551C115.265 16.3118 115.138 16.1491 115.047 15.9668C114.962 15.778 114.92 15.5794 114.92 15.3711C114.92 15.1562 114.962 14.9577 115.047 14.7754C115.138 14.5866 115.265 14.4238 115.428 14.2871C115.59 14.1504 115.786 14.043 116.014 13.9648C116.248 13.8802 116.508 13.8379 116.795 13.8379C117.088 13.8379 117.348 13.8802 117.576 13.9648C117.811 14.043 118.009 14.1504 118.172 14.2871C118.335 14.4238 118.458 14.5866 118.543 14.7754C118.634 14.9577 118.68 15.1562 118.68 15.3711C118.68 15.5794 118.634 15.778 118.543 15.9668C118.458 16.1491 118.335 16.3118 118.172 16.4551C118.009 16.5918 117.811 16.7025 117.576 16.7871C117.348 16.8652 117.088 16.9043 116.795 16.9043ZM115.35 18.4766H118.24V30H115.35V18.4766ZM121.951 18.4766H124.842V19.4531C125.61 19.0169 126.342 18.7109 127.039 18.5352C127.742 18.3594 128.429 18.2715 129.1 18.2715C129.979 18.2715 130.792 18.4017 131.541 18.6621C132.29 18.916 132.938 19.2969 133.484 19.8047C134.031 20.3125 134.458 20.9473 134.764 21.709C135.076 22.4642 135.232 23.3398 135.232 24.3359V30H132.352V24.8047C132.352 24.1732 132.26 23.61 132.078 23.1152C131.902 22.6139 131.645 22.194 131.307 21.8555C130.975 21.5104 130.568 21.25 130.086 21.0742C129.611 20.8919 129.077 20.8008 128.484 20.8008C128.172 20.8008 127.85 20.8333 127.518 20.8984C127.192 20.9635 126.87 21.0579 126.551 21.1816C126.238 21.2988 125.936 21.4486 125.643 21.6309C125.35 21.8066 125.083 22.0085 124.842 22.2363V30H121.951V18.4766ZM140.594 31.9531C140.958 32.0833 141.329 32.1908 141.707 32.2754C142.085 32.3665 142.449 32.4382 142.801 32.4902C143.159 32.5488 143.501 32.5879 143.826 32.6074C144.152 32.6335 144.441 32.6465 144.695 32.6465C145.464 32.6465 146.131 32.5521 146.697 32.3633C147.27 32.181 147.745 31.9336 148.123 31.6211C148.507 31.3086 148.794 30.944 148.982 30.5273C149.171 30.1172 149.266 29.681 149.266 29.2188V28.7207C149.018 28.89 148.729 29.0527 148.396 29.209C148.064 29.3652 147.7 29.502 147.303 29.6191C146.906 29.7363 146.482 29.8307 146.033 29.9023C145.59 29.974 145.132 30.0098 144.656 30.0098C143.712 30.0098 142.84 29.8698 142.039 29.5898C141.238 29.3034 140.545 28.9062 139.959 28.3984C139.373 27.8841 138.914 27.2689 138.582 26.5527C138.257 25.8366 138.094 25.0423 138.094 24.1699C138.094 23.278 138.266 22.4707 138.611 21.748C138.956 21.0189 139.432 20.3971 140.037 19.8828C140.649 19.3685 141.372 18.9714 142.205 18.6914C143.038 18.4115 143.943 18.2715 144.92 18.2715C145.337 18.2715 145.75 18.2975 146.16 18.3496C146.57 18.4017 146.961 18.4733 147.332 18.5645C147.71 18.6556 148.061 18.7663 148.387 18.8965C148.719 19.0202 149.012 19.1569 149.266 19.3066V18.4766H152.156V28.6816C152.156 29.7298 151.997 30.6576 151.678 31.4648C151.359 32.2721 150.89 32.9492 150.271 33.4961C149.66 34.0495 148.898 34.4661 147.986 34.7461C147.075 35.0326 146.03 35.1758 144.852 35.1758C144.428 35.1758 143.989 35.1562 143.533 35.1172C143.077 35.0846 142.618 35.0326 142.156 34.9609C141.701 34.8958 141.248 34.8145 140.799 34.7168C140.356 34.6257 139.93 34.5182 139.52 34.3945L140.594 31.9531ZM141.131 24.1406C141.131 24.6029 141.222 25.0391 141.404 25.4492C141.593 25.8529 141.86 26.2077 142.205 26.5137C142.55 26.8132 142.967 27.0508 143.455 27.2266C143.943 27.3958 144.493 27.4805 145.105 27.4805C145.503 27.4805 145.896 27.4447 146.287 27.373C146.684 27.2949 147.062 27.1875 147.42 27.0508C147.785 26.9141 148.123 26.748 148.436 26.5527C148.755 26.3574 149.031 26.1393 149.266 25.8984V22.0996C148.973 21.8652 148.663 21.6667 148.338 21.5039C148.012 21.3411 147.68 21.2077 147.342 21.1035C147.003 20.9993 146.661 20.9245 146.316 20.8789C145.971 20.8268 145.636 20.8008 145.311 20.8008C144.646 20.8008 144.054 20.8887 143.533 21.0645C143.019 21.2402 142.583 21.4811 142.225 21.7871C141.873 22.0866 141.603 22.4382 141.414 22.8418C141.225 23.2454 141.131 23.6784 141.131 24.1406Z" fill="white"/>
<path d="M153.836 14.7363H157.215L161.355 24.5898L162.312 26.9727L163.064 24.5898L164.588 20.9961L161.844 14.7363H165.027L166.15 17.7148L167.195 14.7363H170.379L167.635 20.9961L169.188 24.668L170.125 26.9727L170.848 24.6289L175.008 14.7363H178.387L171.648 30H168.582L167.225 26.9727L166.121 24.0332L165.018 26.9727L163.641 30H160.574L153.836 14.7363ZM179.842 24.1992C179.842 23.418 180.001 22.6725 180.32 21.9629C180.639 21.2467 181.098 20.6152 181.697 20.0684C182.296 19.5215 183.029 19.0853 183.895 18.7598C184.767 18.4342 185.757 18.2715 186.863 18.2715C187.964 18.2715 188.953 18.4375 189.832 18.7695C190.717 19.0951 191.466 19.5443 192.078 20.1172C192.697 20.6901 193.169 21.3639 193.494 22.1387C193.826 22.9134 193.992 23.7435 193.992 24.6289C193.992 24.7396 193.989 24.86 193.982 24.9902C193.982 25.1139 193.976 25.2279 193.963 25.332H183.064C183.188 25.6771 183.387 25.9928 183.66 26.2793C183.94 26.5658 184.288 26.8132 184.705 27.0215C185.122 27.2298 185.604 27.3926 186.15 27.5098C186.697 27.6204 187.303 27.6758 187.967 27.6758C188.631 27.6758 189.292 27.6074 189.949 27.4707C190.607 27.3275 191.235 27.1484 191.834 26.9336L192.811 29.1406C192.433 29.3164 192.049 29.4727 191.658 29.6094C191.274 29.7396 190.87 29.8503 190.447 29.9414C190.031 30.026 189.591 30.0911 189.129 30.1367C188.673 30.1823 188.191 30.2051 187.684 30.2051C186.388 30.2051 185.252 30.0488 184.275 29.7363C183.299 29.4238 182.482 28.9974 181.824 28.457C181.167 27.9167 180.672 27.2819 180.34 26.5527C180.008 25.8236 179.842 25.0391 179.842 24.1992ZM190.926 23.0762C190.822 22.7572 190.659 22.4609 190.438 22.1875C190.223 21.9076 189.952 21.6667 189.627 21.4648C189.301 21.2565 188.924 21.0938 188.494 20.9766C188.064 20.8594 187.592 20.8008 187.078 20.8008C186.531 20.8008 186.033 20.8626 185.584 20.9863C185.135 21.11 184.741 21.276 184.402 21.4844C184.064 21.6927 183.781 21.9336 183.553 22.207C183.331 22.4805 183.169 22.7702 183.064 23.0762H190.926ZM197.029 13.7988H199.92V19.5605C200.174 19.3848 200.473 19.2188 200.818 19.0625C201.163 18.9062 201.535 18.7695 201.932 18.6523C202.329 18.5352 202.739 18.444 203.162 18.3789C203.585 18.3073 204.008 18.2715 204.432 18.2715C205.408 18.2715 206.303 18.4147 207.117 18.7012C207.938 18.9876 208.641 19.3913 209.227 19.9121C209.812 20.4329 210.268 21.0579 210.594 21.7871C210.926 22.5098 211.092 23.3105 211.092 24.1895C211.092 25.1074 210.919 25.9375 210.574 26.6797C210.229 27.4154 209.751 28.0469 209.139 28.5742C208.533 29.0951 207.811 29.4987 206.971 29.7852C206.137 30.0651 205.232 30.2051 204.256 30.2051C203.839 30.2051 203.426 30.179 203.016 30.127C202.612 30.0749 202.221 30.0033 201.844 29.9121C201.473 29.821 201.121 29.7135 200.789 29.5898C200.464 29.4596 200.174 29.3197 199.92 29.1699V30H197.029V13.7988ZM199.92 26.377C200.213 26.6113 200.522 26.8099 200.848 26.9727C201.173 27.1354 201.505 27.2689 201.844 27.373C202.182 27.4772 202.524 27.5553 202.869 27.6074C203.214 27.653 203.549 27.6758 203.875 27.6758C204.539 27.6758 205.128 27.5879 205.643 27.4121C206.163 27.2298 206.6 26.9824 206.951 26.6699C207.309 26.3574 207.583 25.9896 207.771 25.5664C207.96 25.1432 208.055 24.6842 208.055 24.1895C208.055 23.7272 207.96 23.291 207.771 22.8809C207.589 22.4707 207.322 22.1126 206.971 21.8066C206.626 21.4941 206.206 21.25 205.711 21.0742C205.223 20.8919 204.673 20.8008 204.061 20.8008C203.67 20.8008 203.279 20.8398 202.889 20.918C202.498 20.9896 202.12 21.0938 201.756 21.2305C201.398 21.3672 201.059 21.5332 200.74 21.7285C200.428 21.9238 200.154 22.1419 199.92 22.3828V26.377Z" fill="#6EB6F8"/>
</g>
<defs>
<filter id="filter0_d_945_26" x="7.86133" y="18.1787" width="34.4609" height="12.9717" filterUnits="userSpaceOnUse" color-interpolation-filters="sRGB">
<feFlood flood-opacity="0" result="BackgroundImageFix"/>
<feColorMatrix in="SourceAlpha" type="matrix" values="0 0 0 0 0 0 0 0 0 0 0 0 0 0 0 0 0 0 127 0" result="hardAlpha"/>
<feOffset dx="3" dy="1"/>
<feGaussianBlur stdDeviation="0.5"/>
<feComposite in2="hardAlpha" operator="out"/>
<feColorMatrix type="matrix" values="0 0 0 0 0 0 0 0 0 0 0 0 0 0 0 0 0 0 0.25 0"/>
<feBlend mode="normal" in2="BackgroundImageFix" result="effect1_dropShadow_945_26"/>
<feBlend mode="normal" in="SourceGraphic" in2="effect1_dropShadow_945_26" result="shape"/>
</filter>
<filter id="filter1_d_945_26" x="58.2305" y="13.7988" width="160.861" height="29.377" filterUnits="userSpaceOnUse" color-interpolation-filters="sRGB">
<feFlood flood-opacity="0" result="BackgroundImageFix"/>
<feColorMatrix in="SourceAlpha" type="matrix" values="0 0 0 0 0 0 0 0 0 0 0 0 0 0 0 0 0 0 127 0" result="hardAlpha"/>
<feOffset dx="4" dy="4"/>
<feGaussianBlur stdDeviation="2"/>
<feComposite in2="hardAlpha" operator="out"/>
<feColorMatrix type="matrix" values="0 0 0 0 0 0 0 0 0 0 0 0 0 0 0 0 0 0 0.25 0"/>
<feBlend mode="normal" in2="BackgroundImageFix" result="effect1_dropShadow_945_26"/>
<feBlend mode="normal" in="SourceGraphic" in2="effect1_dropShadow_945_26" result="shape"/>
</filter>
</defs>
</svg>
